<svg viewBox="0 0 34 54" fill="none" xmlns="http://www.w3.org/2000/svg">
  <g clip-path="url(#clip0_91_1907)">
    <path d="M26.2139 29.8838C24.1128 29.8838 22.2292 30.8147 20.9393 32.2802L17.634 29.9403C17.9848 28.9742 18.1863 27.937 18.1863 26.8512C18.1863 25.7844 17.9919 24.7645 17.6525 23.8127L20.9504 21.4976C22.2402 22.9557 24.1189 23.8815 26.2139 23.8815C30.0919 23.8815 33.2474 20.7265 33.2474 16.848C33.2474 12.9695 30.0919 9.8145 26.2139 9.8145C22.3359 9.8145 19.1804 12.9695 19.1804 16.848C19.1804 17.5422 19.2853 18.2116 19.4735 18.8456L16.1734 21.1619C14.7948 19.4517 12.8099 18.2576 10.5484 17.8931V13.9158C13.7344 13.2466 16.135 10.4159 16.135 7.0335C16.135 3.15498 12.9795 0 9.10145 0C5.22345 0 2.06795 3.15498 2.06795 7.0335C2.06795 10.3706 4.40631 13.1664 7.52857 13.8833V17.9123C3.26751 18.6602 0.0166016 22.379 0.0166016 26.8512C0.0166016 31.3453 3.2997 35.0777 7.59153 35.8002V40.0545C4.43733 40.7478 2.06795 43.5607 2.06795 46.9206C2.06795 50.7991 5.22345 53.954 9.10145 53.954C12.9795 53.954 16.135 50.7991 16.135 46.9206C16.135 43.5607 13.7656 40.7478 10.6114 40.0545V35.8001C12.7837 35.4341 14.749 34.2911 16.1412 32.5839L19.4685 34.939C19.2838 35.5673 19.1804 36.2301 19.1804 36.9173C19.1804 40.7958 22.3359 43.9508 26.2139 43.9508C30.0919 43.9508 33.2474 40.7958 33.2474 36.9173C33.2474 33.0388 30.0919 29.8838 26.2139 29.8838ZM26.2139 13.4378C28.0944 13.4378 29.6239 14.968 29.6239 16.848C29.6239 18.728 28.0944 20.258 26.2139 20.258C24.3333 20.258 22.8038 18.728 22.8038 16.848C22.8038 14.968 24.3333 13.4378 26.2139 13.4378ZM5.69127 7.0335C5.69127 5.1535 7.22093 3.62345 9.10145 3.62345C10.982 3.62345 12.5115 5.1535 12.5115 7.0335C12.5115 8.9135 10.982 10.4435 9.10145 10.4435C7.22093 10.4435 5.69127 8.9135 5.69127 7.0335ZM12.5115 46.9206C12.5115 48.8006 10.982 50.3306 9.10145 50.3306C7.22093 50.3306 5.69127 48.8006 5.69127 46.9206C5.69127 45.0405 7.22093 43.5105 9.10145 43.5105C10.982 43.5105 12.5115 45.0405 12.5115 46.9206ZM9.10119 31.6071C6.47843 31.6071 4.34478 29.4739 4.34478 26.8512C4.34478 24.2285 6.47843 22.0948 9.10119 22.0948C11.7238 22.0948 13.8575 24.2285 13.8575 26.8512C13.8575 29.4739 11.7238 31.6071 9.10119 31.6071ZM26.2139 40.3275C24.3333 40.3275 22.8038 38.7973 22.8038 36.9173C22.8038 35.0373 24.3333 33.5073 26.2139 33.5073C28.0944 33.5073 29.6239 35.0373 29.6239 36.9173C29.6239 38.7973 28.0944 40.3275 26.2139 40.3275Z" fill="#231F20"/>
  </g>
  <defs>
    <clipPath id="clip0_91_1907">
      <rect width="33.264" height="54" fill="white"/>
    </clipPath>
  </defs>
</svg>
