<svg width="90" height="75" viewBox="0 0 90 75" fill="none" xmlns="http://www.w3.org/2000/svg">
<g clip-path="url(#clip0_12_288)">
<path d="M23.7201 78C17.8995 77.9923 12.3033 75.7482 8.08288 71.7294C3.86249 67.7106 1.33903 62.2228 1.03175 56.3953C0.724471 50.5678 2.65675 44.8439 6.43098 40.4014C10.2052 35.9588 15.5343 33.1356 21.3216 32.5127C19.6175 25.8127 20.638 18.7084 24.1584 12.7627C27.6788 6.81703 33.4109 2.51696 40.0936 0.808472C46.7764 -0.900015 53.8623 0.123036 59.7927 3.65257C65.7231 7.1821 70.0121 12.929 71.7161 19.629C75.6906 19.0742 79.7363 19.3452 83.6018 20.4251C87.4672 21.5051 91.0697 23.3709 94.1852 25.9065C97.3006 28.4421 99.8623 31.5933 101.711 35.164C103.56 38.7348 104.656 42.6487 104.931 46.6623C105.206 50.676 104.655 54.7035 103.311 58.4943C101.968 62.2852 99.8603 65.7583 97.1204 68.6976C94.3806 71.637 91.0668 73.9797 87.3852 75.58C83.7036 77.1803 79.7329 78.0041 75.7202 78H23.7201Z" fill="#6D7386" fill-opacity="0.1"/>
</g>
<defs>
<clipPath id="clip0_12_288">
<rect width="90" height="75" rx="8" fill="white"/>
</clipPath>
</defs>
</svg>
