<svg width="90" height="75" viewBox="0 0 90 75" fill="none" xmlns="http://www.w3.org/2000/svg">
<g clip-path="url(#clip0_12_290)">
<mask id="mask0_12_290" style="mask-type:alpha" maskUnits="userSpaceOnUse" x="19" y="-6" width="89" height="109">
<path d="M104.952 24.2046V30.1424C105.064 34.5118 102.824 37.873 98.7904 40.5612C93.3005 44.2584 86.6906 45.9387 79.8563 46.9476C65.0674 49.1881 50.5033 48.9638 36.3869 44.2586C32.914 43.1379 29.441 41.1216 26.5277 38.9929C23.3907 36.8641 22.1583 33.9516 22.1583 30.7022C22.1583 26.5571 22.2701 22.5239 22.1583 18.378C21.8223 13.3366 24.7349 9.52765 29.7763 6.61415C35.1537 3.47719 41.3158 1.9087 47.8138 1.01243C61.2594 -1.003 74.7041 -0.666213 87.8122 2.80674C92.0697 3.92741 95.9905 5.49577 99.2399 7.8481C102.937 10.5371 104.842 13.6741 104.73 17.7073C104.953 20.0597 104.953 22.0767 104.953 24.2047L104.952 24.2046ZM63.6117 6.95166C56.6658 6.95166 49.9435 7.51199 43.3334 9.19215C39.4118 10.2003 35.6029 11.4326 32.5777 14.0092C30.0011 16.2497 30.0011 18.7147 32.5777 20.7317C34.9309 22.8606 38.0676 24.0929 41.4281 24.9892C56.1044 28.7982 70.7811 28.7982 85.5697 24.9892C88.9309 24.0928 92.0677 22.8604 94.42 20.6199C96.7731 18.491 96.9966 15.9144 94.42 14.01C92.6273 12.5533 90.2749 11.321 87.922 10.5372C80.193 7.62387 72.0139 7.06349 63.6105 6.95166H63.6117Z" fill="#6D7386"/>
<path d="M104.729 41.6834C104.617 41.5709 104.729 41.6834 104.729 41.6834C104.729 47.6212 105.176 53.4472 104.617 59.1606C104.281 63.0822 100.808 65.7704 96.8862 67.8993C91.6205 70.7002 85.907 72.2687 79.8567 73.1649C66.1885 75.2938 52.6323 74.8451 39.3002 71.3722C34.9308 70.2515 30.7858 68.5713 27.3121 65.8823C24.0635 63.3057 22.2707 60.3924 22.3824 56.6951V44.035C22.3824 43.1386 22.4941 42.3548 22.7184 41.6818C26.4155 43.4746 29.8886 45.8269 33.6976 47.1717C43.3326 50.8689 53.7518 51.8772 64.283 51.8772C74.4784 51.8772 84.5613 50.869 93.9722 47.1717C97.4467 45.7166 100.92 43.4752 104.729 41.6832L104.729 41.6834Z" fill="#6D7386"/>
<path d="M22.3829 67.2289C31.5702 74.3992 42.5492 76.6397 54.3128 77.5361C66.9729 78.5443 79.4085 77.8722 91.3962 74.1749C96.326 72.6064 100.695 70.4778 104.616 67.1165C104.728 68.5732 104.952 69.357 104.952 70.3651C104.952 74.0623 104.84 77.8714 104.952 81.5686C105.4 87.618 101.815 91.7639 95.7647 94.6766C90.7234 97.2532 85.009 98.5982 79.2956 99.4937C65.7391 101.51 52.2953 101.174 39.0752 97.701C34.9301 96.5803 31.0087 95.0119 27.7599 92.7713C24.0628 90.0822 21.9339 86.8334 22.1582 82.8002C22.27 78.6551 22.1582 74.5094 22.1582 70.3643C22.1582 69.3578 22.3825 68.4614 22.3825 67.229L22.3829 67.2289Z" fill="#6D7386"/>
</mask>
<g mask="url(#mask0_12_290)">
<rect x="-254" y="-22" width="351" height="100" rx="8" fill="#6D7386" fill-opacity="0.1"/>
</g>
</g>
<defs>
<clipPath id="clip0_12_290">
<rect width="90" height="75" rx="8" fill="white"/>
</clipPath>
</defs>
</svg>
