<svg width="135" height="40" viewBox="0 0 135 40" fill="none" xmlns="http://www.w3.org/2000/svg">
<rect x="1.875" y="10.875" width="2.24992" height="20.2493" rx="0.547286" fill="white"/>
<rect x="6.375" y="10.875" width="2.24992" height="20.2493" rx="0.547286" fill="white"/>
<rect x="10.8752" y="10.875" width="2.24992" height="20.2493" rx="0.547286" fill="white"/>
<rect x="15.3743" y="10.875" width="2.24992" height="20.2493" rx="0.547286" fill="white"/>
<rect x="19.8755" y="18.7502" width="2.24992" height="4.49985" rx="0.547286" fill="white"/>
<path d="M39.2 15.642C37.916 15.642 36.914 16.086 36.194 16.974C35.474 17.85 35.114 19.056 35.114 20.592C35.114 22.116 35.45 23.316 36.122 24.192C36.794 25.068 37.814 25.506 39.182 25.506C39.734 25.506 40.262 25.458 40.766 25.362C41.282 25.254 41.804 25.116 42.332 24.948V26.622C41.828 26.814 41.312 26.952 40.784 27.036C40.268 27.132 39.656 27.18 38.948 27.18C37.628 27.18 36.536 26.91 35.672 26.37C34.808 25.818 34.16 25.05 33.728 24.066C33.296 23.07 33.08 21.906 33.08 20.574C33.08 19.278 33.314 18.132 33.782 17.136C34.262 16.14 34.958 15.366 35.87 14.814C36.782 14.25 37.898 13.968 39.218 13.968C39.866 13.968 40.496 14.04 41.108 14.184C41.732 14.316 42.302 14.508 42.818 14.76L42.098 16.38C41.678 16.188 41.222 16.02 40.73 15.876C40.25 15.72 39.74 15.642 39.2 15.642ZM46.7926 27H44.8846V13.32H46.7926V27ZM50.7609 13.608C51.0489 13.608 51.3009 13.692 51.5169 13.86C51.7329 14.028 51.8409 14.31 51.8409 14.706C51.8409 15.09 51.7329 15.372 51.5169 15.552C51.3009 15.72 51.0489 15.804 50.7609 15.804C50.4489 15.804 50.1849 15.72 49.9689 15.552C49.7649 15.372 49.6629 15.09 49.6629 14.706C49.6629 14.31 49.7649 14.028 49.9689 13.86C50.1849 13.692 50.4489 13.608 50.7609 13.608ZM51.6969 17.298V27H49.7889V17.298H51.6969ZM58.5992 27.18C57.2552 27.18 56.1752 26.784 55.3592 25.992C54.5432 25.188 54.1352 23.928 54.1352 22.212C54.1352 21.012 54.3332 20.04 54.7292 19.296C55.1252 18.552 55.6712 18.006 56.3672 17.658C57.0632 17.298 57.8552 17.118 58.7432 17.118C59.2832 17.118 59.7872 17.178 60.2552 17.298C60.7352 17.406 61.1312 17.532 61.4432 17.676L60.8672 19.224C60.5312 19.092 60.1712 18.978 59.7872 18.882C59.4152 18.786 59.0612 18.738 58.7252 18.738C56.9732 18.738 56.0972 19.89 56.0972 22.194C56.0972 23.298 56.3132 24.138 56.7452 24.714C57.1772 25.29 57.8132 25.578 58.6532 25.578C59.1932 25.578 59.6672 25.518 60.0752 25.398C60.4952 25.278 60.8792 25.122 61.2272 24.93V26.586C60.8792 26.79 60.5012 26.94 60.0932 27.036C59.6852 27.132 59.1872 27.18 58.5992 27.18ZM65.4074 20.16C65.4074 20.4 65.3954 20.688 65.3714 21.024C65.3474 21.36 65.3294 21.66 65.3174 21.924H65.3714C65.5034 21.744 65.6834 21.51 65.9114 21.222C66.1514 20.922 66.3614 20.676 66.5414 20.484L69.5114 17.298H71.7254L67.8194 21.456L71.9774 27H69.7274L66.5234 22.662L65.4074 23.598V27H63.5174V13.32H65.4074V20.16ZM83.8141 27H81.8701V21.132H75.7321V27H73.7881V14.148H75.7321V19.476H81.8701V14.148H83.8141V27ZM95.587 22.14C95.587 23.748 95.173 24.99 94.345 25.866C93.517 26.742 92.401 27.18 90.997 27.18C90.121 27.18 89.341 26.982 88.657 26.586C87.985 26.19 87.451 25.62 87.055 24.876C86.671 24.12 86.479 23.208 86.479 22.14C86.479 20.532 86.887 19.296 87.703 18.432C88.519 17.556 89.635 17.118 91.051 17.118C91.939 17.118 92.719 17.316 93.391 17.712C94.075 18.096 94.609 18.66 94.993 19.404C95.389 20.148 95.587 21.06 95.587 22.14ZM88.441 22.14C88.441 23.232 88.645 24.084 89.053 24.696C89.473 25.308 90.133 25.614 91.033 25.614C91.933 25.614 92.587 25.308 92.995 24.696C93.415 24.084 93.625 23.232 93.625 22.14C93.625 21.036 93.415 20.19 92.995 19.602C92.575 19.002 91.915 18.702 91.015 18.702C90.115 18.702 89.461 19.002 89.053 19.602C88.645 20.19 88.441 21.036 88.441 22.14ZM106.358 17.298V27H104.828L104.558 25.722H104.468C104.156 26.226 103.724 26.598 103.172 26.838C102.62 27.066 102.038 27.18 101.426 27.18C100.286 27.18 99.4157 26.898 98.8157 26.334C98.2157 25.77 97.9157 24.876 97.9157 23.652V17.298H99.8417V23.364C99.8417 24.864 100.496 25.614 101.804 25.614C102.8 25.614 103.49 25.32 103.874 24.732C104.258 24.144 104.45 23.304 104.45 22.212V17.298H106.358ZM115.788 24.264C115.788 25.212 115.44 25.938 114.744 26.442C114.048 26.934 113.082 27.18 111.846 27.18C111.162 27.18 110.574 27.126 110.082 27.018C109.602 26.922 109.158 26.778 108.75 26.586V24.912C109.17 25.116 109.662 25.302 110.226 25.47C110.802 25.626 111.36 25.704 111.9 25.704C112.62 25.704 113.136 25.59 113.448 25.362C113.772 25.134 113.934 24.828 113.934 24.444C113.934 24.228 113.874 24.036 113.754 23.868C113.634 23.688 113.406 23.508 113.07 23.328C112.746 23.136 112.266 22.92 111.63 22.68C111.006 22.428 110.478 22.182 110.046 21.942C109.626 21.69 109.302 21.396 109.074 21.06C108.846 20.712 108.732 20.268 108.732 19.728C108.732 18.888 109.068 18.246 109.74 17.802C110.424 17.346 111.324 17.118 112.44 17.118C113.028 17.118 113.58 17.178 114.096 17.298C114.624 17.418 115.134 17.586 115.626 17.802L114.996 19.26C114.576 19.08 114.144 18.93 113.7 18.81C113.256 18.678 112.806 18.612 112.35 18.612C111.774 18.612 111.336 18.702 111.036 18.882C110.736 19.062 110.586 19.314 110.586 19.638C110.586 19.866 110.658 20.064 110.802 20.232C110.946 20.4 111.186 20.568 111.522 20.736C111.87 20.904 112.344 21.108 112.944 21.348C113.544 21.576 114.054 21.81 114.474 22.05C114.906 22.29 115.23 22.584 115.446 22.932C115.674 23.28 115.788 23.724 115.788 24.264ZM121.878 17.118C123.15 17.118 124.152 17.514 124.884 18.306C125.616 19.086 125.982 20.154 125.982 21.51V22.554H119.466C119.49 23.55 119.748 24.312 120.24 24.84C120.744 25.368 121.446 25.632 122.346 25.632C122.97 25.632 123.522 25.578 124.002 25.47C124.494 25.35 124.998 25.176 125.514 24.948V26.532C125.022 26.748 124.53 26.91 124.038 27.018C123.546 27.126 122.958 27.18 122.274 27.18C121.326 27.18 120.492 26.994 119.772 26.622C119.064 26.25 118.506 25.698 118.098 24.966C117.702 24.222 117.504 23.31 117.504 22.23C117.504 21.138 117.684 20.214 118.044 19.458C118.416 18.702 118.926 18.126 119.574 17.73C120.234 17.322 121.002 17.118 121.878 17.118ZM121.878 18.594C121.194 18.594 120.642 18.816 120.222 19.26C119.814 19.704 119.574 20.334 119.502 21.15H124.074C124.062 20.394 123.876 19.782 123.516 19.314C123.168 18.834 122.622 18.594 121.878 18.594Z" fill="white"/>
</svg>
