<svg width="365" height="64" viewBox="0 0 365 64" fill="none" xmlns="http://www.w3.org/2000/svg">
<path d="M101.6 18.926C97.748 18.926 94.742 20.258 92.582 22.922C90.422 25.55 89.342 29.168 89.342 33.776C89.342 38.348 90.35 41.948 92.366 44.576C94.382 47.204 97.442 48.518 101.546 48.518C103.202 48.518 104.786 48.374 106.298 48.086C107.846 47.762 109.412 47.348 110.996 46.844V51.866C109.484 52.442 107.936 52.856 106.352 53.108C104.804 53.396 102.968 53.54 100.844 53.54C96.884 53.54 93.608 52.73 91.016 51.11C88.424 49.454 86.48 47.15 85.184 44.198C83.888 41.21 83.24 37.718 83.24 33.722C83.24 29.834 83.942 26.396 85.346 23.408C86.786 20.42 88.874 18.098 91.61 16.442C94.346 14.75 97.694 13.904 101.654 13.904C103.598 13.904 105.488 14.12 107.324 14.552C109.196 14.948 110.906 15.524 112.454 16.28L110.294 21.14C109.034 20.564 107.666 20.06 106.19 19.628C104.75 19.16 103.22 18.926 101.6 18.926ZM124.378 53H118.654V11.96H124.378V53ZM136.283 12.824C137.147 12.824 137.903 13.076 138.551 13.58C139.199 14.084 139.523 14.93 139.523 16.118C139.523 17.27 139.199 18.116 138.551 18.656C137.903 19.16 137.147 19.412 136.283 19.412C135.347 19.412 134.555 19.16 133.907 18.656C133.295 18.116 132.989 17.27 132.989 16.118C132.989 14.93 133.295 14.084 133.907 13.58C134.555 13.076 135.347 12.824 136.283 12.824ZM139.091 23.894V53H133.367V23.894H139.091ZM159.798 53.54C155.766 53.54 152.526 52.352 150.078 49.976C147.63 47.564 146.406 43.784 146.406 38.636C146.406 35.036 147 32.12 148.188 29.888C149.376 27.656 151.014 26.018 153.102 24.974C155.19 23.894 157.566 23.354 160.23 23.354C161.85 23.354 163.362 23.534 164.766 23.894C166.206 24.218 167.394 24.596 168.33 25.028L166.602 29.672C165.594 29.276 164.514 28.934 163.362 28.646C162.246 28.358 161.184 28.214 160.176 28.214C154.92 28.214 152.292 31.67 152.292 38.582C152.292 41.894 152.94 44.414 154.236 46.142C155.532 47.87 157.44 48.734 159.96 48.734C161.58 48.734 163.002 48.554 164.226 48.194C165.486 47.834 166.638 47.366 167.682 46.79V51.758C166.638 52.37 165.504 52.82 164.28 53.108C163.056 53.396 161.562 53.54 159.798 53.54ZM180.222 32.48C180.222 33.2 180.186 34.064 180.114 35.072C180.042 36.08 179.988 36.98 179.952 37.772H180.114C180.51 37.232 181.05 36.53 181.734 35.666C182.454 34.766 183.084 34.028 183.624 33.452L192.534 23.894H199.176L187.458 36.368L199.932 53H193.182L183.57 39.986L180.222 42.794V53H174.552V11.96H180.222V32.48ZM235.442 53H229.61V35.396H211.196V53H205.364V14.444H211.196V30.428H229.61V14.444H235.442V53ZM270.761 38.42C270.761 43.244 269.519 46.97 267.035 49.598C264.551 52.226 261.203 53.54 256.991 53.54C254.363 53.54 252.023 52.946 249.971 51.758C247.955 50.57 246.353 48.86 245.165 46.628C244.013 44.36 243.437 41.624 243.437 38.42C243.437 33.596 244.661 29.888 247.109 27.296C249.557 24.668 252.905 23.354 257.153 23.354C259.817 23.354 262.157 23.948 264.173 25.136C266.225 26.288 267.827 27.98 268.979 30.212C270.167 32.444 270.761 35.18 270.761 38.42ZM249.323 38.42C249.323 41.696 249.935 44.252 251.159 46.088C252.419 47.924 254.399 48.842 257.099 48.842C259.799 48.842 261.761 47.924 262.985 46.088C264.245 44.252 264.875 41.696 264.875 38.42C264.875 35.108 264.245 32.57 262.985 30.806C261.725 29.006 259.745 28.106 257.045 28.106C254.345 28.106 252.383 29.006 251.159 30.806C249.935 32.57 249.323 35.108 249.323 38.42ZM303.073 23.894V53H298.483L297.673 49.166H297.403C296.467 50.678 295.171 51.794 293.515 52.514C291.859 53.198 290.113 53.54 288.277 53.54C284.857 53.54 282.247 52.694 280.447 51.002C278.647 49.31 277.747 46.628 277.747 42.956V23.894H283.525V42.092C283.525 46.592 285.487 48.842 289.411 48.842C292.399 48.842 294.469 47.96 295.621 46.196C296.773 44.432 297.349 41.912 297.349 38.636V23.894H303.073ZM331.363 44.792C331.363 47.636 330.319 49.814 328.231 51.326C326.143 52.802 323.245 53.54 319.537 53.54C317.485 53.54 315.721 53.378 314.245 53.054C312.805 52.766 311.473 52.334 310.249 51.758V46.736C311.509 47.348 312.985 47.906 314.677 48.41C316.405 48.878 318.079 49.112 319.699 49.112C321.859 49.112 323.407 48.77 324.343 48.086C325.315 47.402 325.801 46.484 325.801 45.332C325.801 44.684 325.621 44.108 325.261 43.604C324.901 43.064 324.217 42.524 323.209 41.984C322.237 41.408 320.797 40.76 318.889 40.04C317.017 39.284 315.433 38.546 314.137 37.826C312.877 37.07 311.905 36.188 311.221 35.18C310.537 34.136 310.195 32.804 310.195 31.184C310.195 28.664 311.203 26.738 313.219 25.406C315.271 24.038 317.971 23.354 321.319 23.354C323.083 23.354 324.739 23.534 326.287 23.894C327.871 24.254 329.401 24.758 330.877 25.406L328.987 29.78C327.727 29.24 326.431 28.79 325.099 28.43C323.767 28.034 322.417 27.836 321.049 27.836C319.321 27.836 318.007 28.106 317.107 28.646C316.207 29.186 315.757 29.942 315.757 30.914C315.757 31.598 315.973 32.192 316.405 32.696C316.837 33.2 317.557 33.704 318.565 34.208C319.609 34.712 321.031 35.324 322.831 36.044C324.631 36.728 326.161 37.43 327.421 38.15C328.717 38.87 329.689 39.752 330.337 40.796C331.021 41.84 331.363 43.172 331.363 44.792ZM349.635 23.354C353.451 23.354 356.457 24.542 358.653 26.918C360.849 29.258 361.947 32.462 361.947 36.53V39.662H342.399C342.471 42.65 343.245 44.936 344.721 46.52C346.233 48.104 348.339 48.896 351.039 48.896C352.911 48.896 354.567 48.734 356.007 48.41C357.483 48.05 358.995 47.528 360.543 46.844V51.596C359.067 52.244 357.591 52.73 356.115 53.054C354.639 53.378 352.875 53.54 350.823 53.54C347.979 53.54 345.477 52.982 343.317 51.866C341.193 50.75 339.519 49.094 338.295 46.898C337.107 44.666 336.513 41.93 336.513 38.69C336.513 35.414 337.053 32.642 338.133 30.374C339.249 28.106 340.779 26.378 342.723 25.19C344.703 23.966 347.007 23.354 349.635 23.354ZM349.635 27.782C347.583 27.782 345.927 28.448 344.667 29.78C343.443 31.112 342.723 33.002 342.507 35.45H356.223C356.187 33.182 355.629 31.346 354.549 29.942C353.505 28.502 351.867 27.782 349.635 27.782Z" fill="white"/>
<rect x="5" y="5" width="5.9998" height="53.9982" rx="1.45943" fill="white"/>
<rect x="17.0002" y="5" width="5.9998" height="53.9982" rx="1.45943" fill="white"/>
<rect x="29.0005" y="5" width="5.9998" height="53.9982" rx="1.45943" fill="white"/>
<rect x="40.9978" y="5" width="5.9998" height="53.9982" rx="1.45943" fill="white"/>
<rect x="53.0012" y="26.0004" width="5.9998" height="11.9996" rx="1.45943" fill="white"/>
</svg>
