<?xml version="1.0" encoding="UTF-8"?>
<svg id="Layer_1" data-name="Layer 1" xmlns="http://www.w3.org/2000/svg" viewBox="0 0 2000 2000">
  <defs>
    <style>
      .cls-1 {
        fill: #f3e972;
      }
    </style>
  </defs>
  <path class="cls-1" d="M1875.53,1188.69c-39.49-5-104.77-3.09-140.23-19.25-13.48-6.14-15.29-19.29-20.78-22.69-3.44-2.12-21.21-4.85-21.96-5.71,7.54-55.81,8.18-112.16,2.25-167.71-11.92-111.89-50.48-220.48-112.72-314.6-.16-.97.35-2.1,1.27-3.32,3.57-4.7,13.35-10.81,15.6-15.22,2.61-5.11,1.42-12.26,3.8-19.18,5.96-17.29,50.3-44.77,66.9-55.23,30.42-19.15,84.76-41.09,97.26-76.59,13.77-39.1-14.92-75.16-56.02-70.4-51.18,5.95-103.65,103.05-154.35,127.27-15.35,7.34-20.66.3-32.18,3.73-4.1,1.23-10.41,7.9-15.62,10.93-1.84,1.07-3.53,1.69-4.96,1.47-99.71-105.74-235.11-178.6-378.51-205.12-21.41-3.96-43.08-6.23-64.59-9.41-.91-1.65-1.37-3.49-1.59-5.44-.68-6.01.99-12.93-.45-17.66-.44-1.43-11.54-10.63-13.9-14.84-7.96-14.23-4.38-50.31-3.07-67.31,2.97-38.6,20.79-97.91,7.87-132.9-20.68-56.04-96.84-43.58-103.75,14.04-6.52,54.37,22.1,120.63,12.41,176.2-2.44,13.99-13.84,17.27-17.09,26.02-1.86,5.03-1.6,10.77-1.46,16.3.05,2.03.09,4.02,0,5.94-170.17,13.69-330.05,91.66-447.78,213.86-.92.18-2.2-.32-3.68-1.21-4.88-2.91-11.94-9.97-15.49-10.94-4.2-1.14-16.15,1.75-23.37.52-17.98-3.06-70.86-58.18-85.87-73.61-17.66-18.14-32.83-41.09-57.46-51.74-48.63-21.03-94.67,22.64-71.64,71.63,14.27,30.34,65.05,51.78,93.09,69.26,16.43,10.24,58.43,36.42,67,52.24,4.64,8.56,2.14,17.53,5.79,24.39,2.21,4.14,10.41,7.83,13.68,12.38.94,1.3,1.47,2.67,1.34,4.15-.19,2.09-18.91,30.61-21.85,35.78-49.12,86.59-81.1,183.66-90.26,283.29-5,54.45-2.71,109.01,3.71,163.17-.08.11-.21.22-.37.33-2.99,2.06-19.16,4.55-22.5,6.65-.97.61-7.34,13.32-10.96,16.69-13.41,12.48-67.57,18.53-87.16,20.6-29.47,3.13-62.06,1.59-90.25,10.33-72.25,22.4-50.99,118.42,26.84,105.87,49.71-8.03,104.64-46.74,156.99-49.9,19.41-1.17,22.6,9.94,31.74,11.06,4.21.53,19.78-4.61,23.22-3.53.17.06.31.12.41.21,5.47,16.85,11.59,33.46,18.32,49.79,49.15,119.33,131.05,223.92,235.45,299.94,17.85,12.99,37.11,24.33,54.86,37.08-2.5,8.41-9.79,17.74-8.1,26.74,3.65,19.63,6.93,18.8-1.51,39.42-17.56,42.92-51.38,77.83-72.33,117.31-43.04,81.12,41.52,129.53,85.61,71.25,18.04-23.85,26.75-70.13,37.12-99.38,5.86-16.5,21.99-61.85,34.48-71.84,5.86-4.68,19.91-7.77,22.29-10.05,1.91-1.84,9.91-21.08,11.29-21.3,158.66,59.75,337.65,60.34,496.22.12,1.42,3.32,8.96,19.98,10.44,21.18,2.6,2.12,15.3,4.09,21.1,8.36,23.66,17.49,46.49,117.68,59.76,148.56,35.17,81.82,125.07,49.63,109.47-20.39-10.79-48.43-73.2-102.9-88.29-155.97-4.85-17.05,4.29-21.61,3.84-32.52-.28-6.57-7.75-14.05-7.2-21.41,145.07-86.34,256.76-225.96,307.76-387.27,4.18-2.66,17.1,2.97,22.01,2.61,8.22-.59,13.62-12.43,31.65-11.41,43.61,2.47,95.76,32.58,137.57,44.89,33.84,9.97,76.64,9.47,89.14-30.86,14.74-47.53-30.88-70.66-70.27-75.64ZM1016.38,762.16c0-3.64,2.93-6.63,6.62-6.63h49.72c3.66,0,6.65,2.99,6.65,6.63v553.75c0,3.63-2.99,6.63-6.65,6.63h-49.72c-2.66,0-4.92-1.57-5.97-3.79-.42-.86-.65-1.83-.65-2.84v-553.75ZM946.72,755.53c3.66,0,6.65,2.99,6.65,6.63v553.75c0,3.63-2.98,6.63-6.65,6.63h-49.76c-3.63,0-6.59-3-6.59-6.63v-553.75c0-3.64,2.96-6.63,6.59-6.63h49.76ZM420.4,1097.93c-12.55-126.34,13.4-260.69,78.2-368.94,1.14-1.91-.84-4.32,4.13-3.25l16.73,15.46,78.94,72.92c-37.45,66.46-58.81,143.19-58.81,224.91,0,7.72.19,15.4.57,23.03l-104.74,31.37-15.03,4.5ZM693.75,1519.12l-7.7,19.35c-3.2,2.9-16.69-8.12-20.43-10.6-16.06-10.71-33.92-25.86-48.46-38.77-74.25-65.94-130.42-152.43-164.79-246.85l16.1-2.8,108.46-18.85c33.88,78.57,89.07,145.76,158.3,194.3l-41.49,104.21ZM700.78,689.83l-86.94-62.78-21.24-15.34c-2.27-3.34,13.84-18.24,17.18-21.48,83.94-81.52,204.28-130.54,317.34-148.08l-2.22,37.95-6.23,106.99c-82.25,14.41-156.96,50.73-217.88,102.74ZM764.35,1315.91v-553.75c0-3.64,2.99-6.63,6.62-6.63h49.76c3.66,0,6.6,2.99,6.6,6.63v553.75c0,3.63-2.95,6.63-6.6,6.63h-49.76c-3.63,0-6.62-3-6.62-6.63ZM998.45,1635.92c-62.42-.04-124.71-10.12-184.49-30.4l12.7-23.62,53.46-99.43c37.75,10.06,77.41,15.41,118.33,15.41s80.58-5.35,118.33-15.41l53.92,100.27,12.25,22.78c-59.78,20.28-122.07,30.36-184.49,30.4ZM1205.36,1315.91c0,3.63-3,6.63-6.63,6.63h-49.76c-3.66,0-6.59-3-6.59-6.63v-553.75c0-3.64,2.93-6.63,6.59-6.63h49.76c1.61,0,3.09.59,4.24,1.55,1.46,1.22,2.39,3.05,2.39,5.08v553.75ZM1078.24,587.09l-6.27-107.39-2.19-37.55c113.06,17.54,233.4,66.56,317.35,148.08,3.34,3.24,19.44,18.15,17.18,21.48l-19.5,14.08-88.69,64.04c-60.93-52.01-135.65-88.32-217.88-102.74ZM1331.34,982.68v112.75c0,3.66-2.99,6.6-6.59,6.6h-49.74c-3.66,0-6.66-2.95-6.66-6.6v-112.75c0-3.66,3-6.65,6.66-6.65h49.74c3.66,0,6.59,2.99,6.59,6.65ZM1379.74,1489.11c-14.54,12.91-32.39,28.06-48.46,38.77-3.74,2.47-17.23,13.49-20.43,10.6l-7.07-17.77-42.11-105.79c69.23-48.55,124.42-115.74,158.29-194.3l111.39,19.35,13.18,2.29c-34.36,94.42-90.54,180.92-164.79,246.85ZM1576.49,1097.93l-12.01-3.59-107.76-32.28c.39-7.63.58-15.3.58-23.03,0-81.72-21.37-158.45-58.81-224.91l80.9-74.73,14.77-13.65c4.98-1.07,2.99,1.34,4.14,3.25,64.81,108.25,90.76,242.59,78.19,368.94Z"/>
</svg>