<?xml version="1.0" standalone="no"?>
<!DOCTYPE svg PUBLIC "-//W3C//DTD SVG 20010904//EN"
 "http://www.w3.org/TR/2001/REC-SVG-20010904/DTD/svg10.dtd">
<svg version="1.0" xmlns="http://www.w3.org/2000/svg"
 width="375.000000pt" height="254.000000pt" viewBox="0 0 375.000000 254.000000"
 preserveAspectRatio="xMidYMid meet">

<g transform="translate(0.000000,254.000000) scale(0.100000,-0.100000)"
fill="#000000" stroke="none">
<path d="M840 1291 c16 -32 12 -60 -15 -86 -43 -44 -116 -26 -138 35 -4 11 -6
10 -6 -4 -1 -17 -6 -15 -38 15 -29 27 -27 23 12 -23 72 -85 138 -98 190 -36
35 42 33 108 -3 116 -10 2 -10 -2 -2 -17z"/>
<path d="M874 1005 c-15 -23 -15 -27 0 -50 20 -30 41 -32 56 -6 14 27 13 47
-6 65 -21 22 -31 20 -50 -9z"/>
<path d="M3197 1012 c-10 -10 -17 -27 -17 -38 1 -21 39 -96 40 -76 0 16 31 15
66 -3 20 -10 30 -11 35 -3 4 6 10 -8 14 -31 4 -23 9 -40 12 -37 9 9 -27 141
-48 175 -15 25 -25 31 -52 31 -20 0 -41 -7 -50 -18z m89 -17 c15 -23 15 -27 1
-49 -14 -21 -84 -45 -71 -25 2 4 0 10 -6 14 -17 10 -12 63 8 74 28 17 51 12
68 -14z"/>
<path d="M829 879 c-15 -29 3 -69 31 -69 28 0 46 40 31 69 -7 11 -20 21 -31
21 -11 0 -24 -10 -31 -21z"/>
<path d="M2756 861 c-23 -25 -18 -65 10 -69 26 -4 56 30 52 60 -4 30 -38 35
-62 9z"/>
<path d="M2448 836 c-15 -33 -4 -56 27 -56 28 0 52 37 42 64 -10 26 -56 20
-69 -8z"/>
<path d="M2610 841 c-24 -46 0 -82 41 -61 20 11 35 52 24 69 -11 18 -54 12
-65 -8z"/>
<path d="M1556 772 c-45 -24 -47 -27 -27 -36 30 -13 26 -23 -8 -22 -16 1 -27
4 -25 8 12 19 -27 10 -85 -21 -36 -19 -68 -35 -69 -37 -11 -8 35 -125 73 -185
l45 -69 134 67 134 67 -20 50 c-11 28 -25 54 -31 58 -7 4 -8 8 -3 8 4 0 -1 8
-12 18 -11 9 -25 38 -32 65 -7 26 -16 49 -19 51 -3 2 -28 -8 -55 -22z"/>
<path d="M792 768 c-28 -28 -8 -82 29 -76 18 2 25 10 27 31 5 46 -28 73 -56
45z"/>
<path d="M2065 429 c-4 -6 -5 -13 -2 -16 7 -7 27 6 27 18 0 12 -17 12 -25 -2z"/>
<path d="M2037 373 c-12 -11 -8 -23 8 -23 8 0 15 7 15 15 0 16 -12 20 -23 8z"/>
<path d="M2351 336 c-8 -10 -9 -16 -1 -21 5 -3 13 1 16 10 9 22 -1 29 -15 11z"/>
<path d="M2007 304 c-8 -8 1 -24 14 -24 5 0 9 7 9 15 0 15 -12 20 -23 9z"/>
<path d="M1073 275 c0 -8 4 -12 7 -10 14 8 8 -50 -6 -72 -9 -15 -24 -23 -42
-23 -32 0 -44 8 -61 35 -11 19 -12 19 -5 -4 4 -17 3 -21 -6 -16 -9 6 -11 4 -5
-4 14 -24 72 -42 99 -31 36 13 59 53 51 89 -7 33 -32 61 -32 36z"/>
<path d="M2315 269 c-4 -6 -5 -13 -2 -16 7 -7 27 6 27 18 0 12 -17 12 -25 -2z"/>
<path d="M2085 221 c-6 -11 9 -23 19 -14 9 9 7 23 -3 23 -6 0 -12 -4 -16 -9z"/>
<path d="M1850 184 c0 -17 22 -14 28 4 2 7 -3 12 -12 12 -9 0 -16 -7 -16 -16z"/>
</g>
</svg>
