<svg width="4079" height="2508" viewBox="0 0 4079 2508" fill="none" xmlns="http://www.w3.org/2000/svg">
<g filter="url(#filter0_d_1_13)">
<mask id="path-1-inside-1_1_13" fill="white">
<path d="M4070.82 1251.9C4070.82 1940.52 3512.57 2498.78 2823.91 2498.78C2135.24 2498.78 1577 1940.52 1577 1251.9C1577 563.252 2135.26 5 2823.91 5C3512.58 5 4070.82 563.252 4070.82 1251.9Z"/>
<path d="M1976.05 1085.4C1884.07 1085.4 1809.55 1159.92 1809.55 1251.9C1809.55 1343.84 1884.07 1418.37 1976.05 1418.37C2068 1418.37 2142.52 1343.84 2142.52 1251.9C2142.52 1159.92 2068 1085.4 1976.05 1085.4ZM3164.68 1842.02C3085.06 1888.02 3057.74 1989.78 3103.74 2069.36C3149.69 2148.98 3251.44 2176.28 3331.07 2130.29C3410.69 2084.35 3438 1982.59 3392.01 1902.95C3346.06 1823.38 3244.25 1796.08 3164.68 1842.02ZM2337.66 1251.9C2337.66 1087.39 2419.38 942.041 2544.41 854.033L2422.7 650.186C2277.06 747.549 2168.68 896.318 2123.64 1070.57C2176.2 1113.44 2209.83 1178.72 2209.83 1251.89C2209.83 1325.03 2176.2 1390.31 2123.64 1433.19C2168.62 1607.48 2277 1756.27 2422.7 1853.63L2544.41 1649.73C2419.38 1561.77 2337.66 1416.43 2337.66 1251.9ZM2823.91 765.605C3077.95 765.605 3286.37 960.371 3308.24 1208.77L3545.45 1205.27C3533.79 1021.89 3453.67 857.266 3330.58 736.211C3267.28 760.127 3194.16 756.465 3130.97 720.039C3067.66 683.506 3027.97 621.875 3017.12 554.98C2954.19 537.566 2889.2 528.729 2823.9 528.711C2712.73 528.597 2603.04 554.21 2503.41 603.545L2619.08 810.84C2683.23 780.979 2753.15 765.539 2823.91 765.605ZM2823.91 1738.16C2753.15 1738.23 2683.24 1722.79 2619.09 1692.93L2503.42 1900.21C2603.03 1949.59 2712.74 1975.23 2823.92 1975.12C2889.22 1975.1 2954.21 1966.24 3017.13 1948.78C3027.98 1881.88 3067.68 1820.31 3130.97 1783.72C3194.22 1747.23 3267.29 1743.63 3330.58 1767.55C3453.68 1646.49 3533.79 1481.87 3545.47 1298.49L3308.19 1294.99C3286.37 1543.46 3077.96 1738.16 2823.91 1738.16ZM3164.62 661.689C3244.25 707.666 3346.01 680.439 3391.95 600.811C3437.95 521.182 3410.7 419.414 3331.07 373.418C3251.44 327.48 3149.69 354.766 3103.68 434.395C3057.75 513.984 3085.05 615.742 3164.62 661.689Z"/>
<path d="M980.484 17.8154C960.619 28.9195 940.934 37.5631 922.315 50.6309C997.858 32.6026 994.239 57.9967 1071.44 47.8232C1044.37 51.7585 1011.46 62.4917 1016.71 66.5928C1103.01 76.6007 1116.19 39.9137 1196.04 66.5146L1191 42.9336C1301.91 82.9809 1325.14 76.1829 1445.66 140.11C1488.02 142.161 1492.21 114.046 1556.16 140.063C1567.41 159.811 1553.6 163.455 1632.09 210.189C1640.85 206.711 1616.47 184.511 1597.16 166.846C1754.99 251.231 1926.56 431.072 1978.87 623.549C1929.9 533.249 1973.82 669.582 1957 662.508C1978.82 721.388 1996.71 782.248 2007.76 845.071C1993.27 793.541 1961.68 669.148 1906.28 588.88C1901.76 640.686 1834.88 553.139 1871.43 667.146C1899.29 707.516 1877.1 626.191 1911.44 697.949C1911.97 732.058 1924.99 765.954 1932.55 810.41C1920.79 808.478 1906.34 761.279 1897.71 774.408C1909.63 830.323 1929.21 859.471 1936.68 863.762C1932.85 873.115 1922.94 855.024 1922.27 893.052C1926.83 980.598 1946.81 943.66 1956.22 947.823C1946.76 990.521 1908.77 1040.7 1926.65 1113.76C1921.06 1091.96 1910.79 1070.04 1902.91 1049.38C1895.4 1112.67 1916.93 1124.99 1887.7 1201.69C1908.77 1132.56 1906.46 1070.17 1886.62 1100.22C1895.4 1198.49 1808.89 1273.93 1818.25 1336.06L1793.08 1301.4C1724.94 1400.19 1791.52 1355.81 1745.11 1430.66C1762.12 1401.25 1736.19 1418.53 1758.33 1385.24C1743.63 1386.09 1692.75 1447.8 1646.17 1484.07C1463.08 1630.84 1244.5 1650.02 1032.91 1570.98C1032.86 1571.01 1032.82 1571.05 1032.78 1571.09C1033.9 1566.15 1031.99 1560.66 1017.76 1551.06C838.411 1413.6 732.386 1296.74 769.184 1026.27C796.542 1005.62 803.821 892.799 866.597 853.272C904.854 768.754 1019.48 690.876 1142 688.943C1267.09 682.051 1372.63 755.678 1425.66 825.142C1329.13 735.173 1171.13 707.792 1036.37 774.511C898.584 836.474 816.888 988.249 828.805 1139.35C833.915 1131.81 838.457 1136.47 840.926 1117.82C836.707 1411.51 1157.39 1626.74 1388.26 1518.14L1391 1524.22C1484.61 1498.68 1472.51 1477.63 1533.72 1435.59C1528.95 1445.45 1492.49 1470.62 1514.22 1471.1C1543.99 1463.2 1637.02 1376.64 1682.74 1335.99C1703.72 1290.76 1671.59 1311.51 1700.88 1254.65L1736.67 1236.76C1756.56 1179.24 1778.61 1146.75 1776.15 1079.78L1755.22 1123.84C1785.96 1030.77 1768.21 929.44 1772.55 841.821L1764 839.519C1756.49 619.093 1565.96 384.827 1396.37 305.576C1250.22 238.053 1025.21 226.483 921.258 277.343C935.572 264.669 992.582 259.345 975.406 249.574C812.646 265.749 848.986 306.333 724.223 338.202C690.004 371.246 824.12 311.704 751.951 354.543C685.027 372.997 653.844 342.879 554.689 445.497C563.514 459.786 617.621 403.289 572.48 459.992C479.285 448.423 278.056 673.202 235.335 747.729L257.685 751.577C220.997 843.478 172.764 902.09 166.202 957.138C156.723 1092.52 109.444 1339.38 175.099 1415.28L168.733 1478.67C177.748 1496.63 184.546 1514.95 195.745 1531.82L181.131 1533C250.2 1750.84 255.311 1537.05 346.502 1763.31C333.276 1758.86 319.909 1754 300.643 1727.98C298.34 1747.82 328.687 1807.37 364.799 1853.83L349.522 1871.29C369.617 1907.8 388.143 1915.8 402.086 1928.54C327.054 1887.59 471.675 2063.51 484.743 2085.93L496.273 2065.4C494.609 2094.91 517.449 2133.04 560.312 2185.92L595.982 2184.52C610.682 2213.57 664.451 2266.07 697.062 2268.54L675.374 2296.86C757.22 2322.78 715.122 2331.25 815.737 2366.85L795.438 2330.97C846.731 2375.49 862.606 2414.43 935.043 2448.54C1035.44 2483.55 1048.77 2469.69 1151.84 2499.17C1064.48 2496.63 961.77 2497.58 892.709 2472.88C421.51 2345.25 -9.56301 1792.51 21.9668 1223.21C14.7034 1107.93 33.4418 963.912 14.2383 935.221C41.1784 847.516 72.3618 740.56 135.138 613.289C130.595 604.764 145.461 638.217 177.377 583.833C196.73 541.317 212.519 494.495 236.92 453.17L249.459 450.244C262.015 377.334 419.625 265.504 466.51 209.195L469.743 230.702C572.085 134.74 754.459 70.4256 857.141 24.6133C830.185 54.4555 917.527 21.6404 980.484 17.8154Z"/>
<path d="M800.066 1420.29C821.983 1425.06 897.039 1542.17 953.222 1561.21C920.012 1534.59 894.318 1500.72 870.517 1465.87C915.383 1517.44 969.948 1559.57 1029.55 1587.48C1027.98 1581.56 1030.44 1577.58 1031.97 1573.64C1033.28 1584.38 1073.92 1615.46 1104.58 1631.24C1185.19 1661.03 1276.33 1662.21 1348.06 1659.57C1193.02 1724.41 896.92 1593.7 800.066 1420.29Z"/>
<path d="M1032.78 1571.09C1032.59 1571.95 1032.3 1572.79 1031.97 1573.64C1031.85 1572.58 1032.1 1571.72 1032.78 1571.09Z"/>
<path d="M747.89 1377.24C782.069 1443.22 800.643 1463.38 825.643 1512.19C790.895 1483.29 769.294 1443.24 742.086 1406.28L747.89 1377.24Z"/>
<path d="M779.767 1320.5C789.301 1339.61 797.827 1358.78 812.235 1374.71L824.98 1412.27C807.574 1382.93 788.891 1354.08 779.767 1320.5Z"/>
<path d="M1950.73 1127.26C1939.67 1212.25 1913.28 1296.12 1872.49 1372.82C1909.41 1300.13 1933.5 1221.73 1944.65 1142.51L1950.73 1127.26Z"/>
<path d="M1302.35 1315.11C1289.4 1327.4 1275.86 1339.06 1261.79 1350.05C1207.72 1341.73 1158.48 1320.96 1199.89 1320.39C1234.41 1323.54 1268.68 1323.36 1302.35 1315.11Z"/>
<path d="M1471.13 1155.16C1464.89 1193.09 1447.38 1229.79 1423.31 1263.39L1422.16 1264.99C1425.17 1235.73 1353.37 1277.67 1436.6 1172.9C1429.37 1202.42 1359.25 1280.1 1436.65 1231.36C1450.68 1206.34 1465.59 1182.63 1471.13 1155.16Z"/>
<path d="M1927.13 1115.71C1926.97 1115.06 1926.8 1114.41 1926.65 1113.76C1926.81 1114.41 1926.97 1115.06 1927.13 1115.71Z"/>
<path d="M1482.9 1028.97C1489.52 1000.5 1509.2 976.932 1504.19 1051.5C1496.73 1081.52 1490.63 1032.97 1482.9 1028.97Z"/>
<path d="M22.1719 724.731C17.2113 747.776 14.8619 771.696 1.88871 811.515C5.6742 780.332 -13.6877 770.567 22.1719 724.731Z"/>
<path d="M68.3858 538.581C72.1594 554.657 107.95 514.426 79.459 578.604C24.2517 617.208 72.5316 595.698 68.3858 538.581Z"/>
<path d="M68.0713 535.071C68.1994 536.256 68.3019 537.426 68.3858 538.581C68.1608 537.623 68.0483 536.464 68.0713 535.071Z"/>
<path d="M1085.93 46.459L1071.4 47.752L1087.01 44.5186L1085.93 46.459Z"/>
<path d="M1042.87 32.2402C1116.68 34.338 1111.19 39.2189 1087.01 44.5186C1090.61 39.2427 1064.96 36.207 1042.87 32.2402Z"/>
<path d="M1149.59 0C1119.88 6.75077 1079.04 2.12171 1051.04 12.3818L1034.29 10.0947C1072.34 5.1815 1110.86 3.24921 1149.59 0Z"/>
</mask>
<path d="M4070.82 1251.9C4070.82 1940.52 3512.57 2498.78 2823.91 2498.78C2135.24 2498.78 1577 1940.52 1577 1251.9C1577 563.252 2135.26 5 2823.91 5C3512.58 5 4070.82 563.252 4070.82 1251.9Z" fill="#DD4814"/>
<path d="M1976.05 1085.4C1884.07 1085.4 1809.55 1159.92 1809.55 1251.9C1809.55 1343.84 1884.07 1418.37 1976.05 1418.37C2068 1418.37 2142.52 1343.84 2142.52 1251.9C2142.52 1159.92 2068 1085.4 1976.05 1085.4ZM3164.68 1842.02C3085.06 1888.02 3057.74 1989.78 3103.74 2069.36C3149.69 2148.98 3251.44 2176.28 3331.07 2130.29C3410.69 2084.35 3438 1982.59 3392.01 1902.95C3346.06 1823.38 3244.25 1796.08 3164.68 1842.02ZM2337.66 1251.9C2337.66 1087.39 2419.38 942.041 2544.41 854.033L2422.7 650.186C2277.06 747.549 2168.68 896.318 2123.64 1070.57C2176.2 1113.44 2209.83 1178.72 2209.83 1251.89C2209.83 1325.03 2176.2 1390.31 2123.64 1433.19C2168.62 1607.48 2277 1756.27 2422.7 1853.63L2544.41 1649.73C2419.38 1561.77 2337.66 1416.43 2337.66 1251.9ZM2823.91 765.605C3077.95 765.605 3286.37 960.371 3308.24 1208.77L3545.45 1205.27C3533.79 1021.89 3453.67 857.266 3330.58 736.211C3267.28 760.127 3194.16 756.465 3130.97 720.039C3067.66 683.506 3027.97 621.875 3017.12 554.98C2954.19 537.566 2889.2 528.729 2823.9 528.711C2712.73 528.597 2603.04 554.21 2503.41 603.545L2619.08 810.84C2683.23 780.979 2753.15 765.539 2823.91 765.605ZM2823.91 1738.16C2753.15 1738.23 2683.24 1722.79 2619.09 1692.93L2503.42 1900.21C2603.03 1949.59 2712.74 1975.23 2823.92 1975.12C2889.22 1975.1 2954.21 1966.24 3017.13 1948.78C3027.98 1881.88 3067.68 1820.31 3130.97 1783.72C3194.22 1747.23 3267.29 1743.63 3330.58 1767.55C3453.68 1646.49 3533.79 1481.87 3545.47 1298.49L3308.19 1294.99C3286.37 1543.46 3077.96 1738.16 2823.91 1738.16ZM3164.62 661.689C3244.25 707.666 3346.01 680.439 3391.95 600.811C3437.95 521.182 3410.7 419.414 3331.07 373.418C3251.44 327.48 3149.69 354.766 3103.68 434.395C3057.75 513.984 3085.05 615.742 3164.62 661.689Z" fill="white"/>
<path d="M980.484 17.8154C960.619 28.9195 940.934 37.5631 922.315 50.6309C997.858 32.6026 994.239 57.9967 1071.44 47.8232C1044.37 51.7585 1011.46 62.4917 1016.71 66.5928C1103.01 76.6007 1116.19 39.9137 1196.04 66.5146L1191 42.9336C1301.91 82.9809 1325.14 76.1829 1445.66 140.11C1488.02 142.161 1492.21 114.046 1556.16 140.063C1567.41 159.811 1553.6 163.455 1632.09 210.189C1640.85 206.711 1616.47 184.511 1597.16 166.846C1754.99 251.231 1926.56 431.072 1978.87 623.549C1929.9 533.249 1973.82 669.582 1957 662.508C1978.82 721.388 1996.71 782.248 2007.76 845.071C1993.27 793.541 1961.68 669.148 1906.28 588.88C1901.76 640.686 1834.88 553.139 1871.43 667.146C1899.29 707.516 1877.1 626.191 1911.44 697.949C1911.97 732.058 1924.99 765.954 1932.55 810.41C1920.79 808.478 1906.34 761.279 1897.71 774.408C1909.63 830.323 1929.21 859.471 1936.68 863.762C1932.85 873.115 1922.94 855.024 1922.27 893.052C1926.83 980.598 1946.81 943.66 1956.22 947.823C1946.76 990.521 1908.77 1040.7 1926.65 1113.76C1921.06 1091.96 1910.79 1070.04 1902.91 1049.38C1895.4 1112.67 1916.93 1124.99 1887.7 1201.69C1908.77 1132.56 1906.46 1070.17 1886.62 1100.22C1895.4 1198.49 1808.89 1273.93 1818.25 1336.06L1793.08 1301.4C1724.94 1400.19 1791.52 1355.81 1745.11 1430.66C1762.12 1401.25 1736.19 1418.53 1758.33 1385.24C1743.63 1386.09 1692.75 1447.8 1646.17 1484.07C1463.08 1630.84 1244.5 1650.02 1032.91 1570.98C1032.86 1571.01 1032.82 1571.05 1032.78 1571.09C1033.9 1566.15 1031.99 1560.66 1017.76 1551.06C838.411 1413.6 732.386 1296.74 769.184 1026.27C796.542 1005.62 803.821 892.799 866.597 853.272C904.854 768.754 1019.48 690.876 1142 688.943C1267.09 682.051 1372.63 755.678 1425.66 825.142C1329.13 735.173 1171.13 707.792 1036.37 774.511C898.584 836.474 816.888 988.249 828.805 1139.35C833.915 1131.81 838.457 1136.47 840.926 1117.82C836.707 1411.51 1157.39 1626.74 1388.26 1518.14L1391 1524.22C1484.61 1498.68 1472.51 1477.63 1533.72 1435.59C1528.95 1445.45 1492.49 1470.62 1514.22 1471.1C1543.99 1463.2 1637.02 1376.64 1682.74 1335.99C1703.72 1290.76 1671.59 1311.51 1700.88 1254.65L1736.67 1236.76C1756.56 1179.24 1778.61 1146.75 1776.15 1079.78L1755.22 1123.84C1785.96 1030.77 1768.21 929.44 1772.55 841.821L1764 839.519C1756.49 619.093 1565.96 384.827 1396.37 305.576C1250.22 238.053 1025.21 226.483 921.258 277.343C935.572 264.669 992.582 259.345 975.406 249.574C812.646 265.749 848.986 306.333 724.223 338.202C690.004 371.246 824.12 311.704 751.951 354.543C685.027 372.997 653.844 342.879 554.689 445.497C563.514 459.786 617.621 403.289 572.48 459.992C479.285 448.423 278.056 673.202 235.335 747.729L257.685 751.577C220.997 843.478 172.764 902.09 166.202 957.138C156.723 1092.52 109.444 1339.38 175.099 1415.28L168.733 1478.67C177.748 1496.63 184.546 1514.95 195.745 1531.82L181.131 1533C250.2 1750.84 255.311 1537.05 346.502 1763.31C333.276 1758.86 319.909 1754 300.643 1727.98C298.34 1747.82 328.687 1807.37 364.799 1853.83L349.522 1871.29C369.617 1907.8 388.143 1915.8 402.086 1928.54C327.054 1887.59 471.675 2063.51 484.743 2085.93L496.273 2065.4C494.609 2094.91 517.449 2133.04 560.312 2185.92L595.982 2184.52C610.682 2213.57 664.451 2266.07 697.062 2268.54L675.374 2296.86C757.22 2322.78 715.122 2331.25 815.737 2366.85L795.438 2330.97C846.731 2375.49 862.606 2414.43 935.043 2448.54C1035.44 2483.55 1048.77 2469.69 1151.84 2499.17C1064.48 2496.63 961.77 2497.58 892.709 2472.88C421.51 2345.25 -9.56301 1792.51 21.9668 1223.21C14.7034 1107.93 33.4418 963.912 14.2383 935.221C41.1784 847.516 72.3618 740.56 135.138 613.289C130.595 604.764 145.461 638.217 177.377 583.833C196.73 541.317 212.519 494.495 236.92 453.17L249.459 450.244C262.015 377.334 419.625 265.504 466.51 209.195L469.743 230.702C572.085 134.74 754.459 70.4256 857.141 24.6133C830.185 54.4555 917.527 21.6404 980.484 17.8154Z" fill="#A80030"/>
<path d="M800.066 1420.29C821.983 1425.06 897.039 1542.17 953.222 1561.21C920.012 1534.59 894.318 1500.72 870.517 1465.87C915.383 1517.44 969.948 1559.57 1029.55 1587.48C1027.98 1581.56 1030.44 1577.58 1031.97 1573.64C1033.28 1584.38 1073.92 1615.46 1104.58 1631.24C1185.19 1661.03 1276.33 1662.21 1348.06 1659.57C1193.02 1724.41 896.92 1593.7 800.066 1420.29Z" fill="#A80030"/>
<path d="M1032.78 1571.09C1032.59 1571.95 1032.3 1572.79 1031.97 1573.64C1031.85 1572.58 1032.1 1571.72 1032.78 1571.09Z" fill="#A80030"/>
<path d="M747.89 1377.24C782.069 1443.22 800.643 1463.38 825.643 1512.19C790.895 1483.29 769.294 1443.24 742.086 1406.28L747.89 1377.24Z" fill="#A80030"/>
<path d="M779.767 1320.5C789.301 1339.61 797.827 1358.78 812.235 1374.71L824.98 1412.27C807.574 1382.93 788.891 1354.08 779.767 1320.5Z" fill="#A80030"/>
<path d="M1950.73 1127.26C1939.67 1212.25 1913.28 1296.12 1872.49 1372.82C1909.41 1300.13 1933.5 1221.73 1944.65 1142.51L1950.73 1127.26Z" fill="#A80030"/>
<path d="M1302.35 1315.11C1289.4 1327.4 1275.86 1339.06 1261.79 1350.05C1207.72 1341.73 1158.48 1320.96 1199.89 1320.39C1234.41 1323.54 1268.68 1323.36 1302.35 1315.11Z" fill="#A80030"/>
<path d="M1471.13 1155.16C1464.89 1193.09 1447.38 1229.79 1423.31 1263.39L1422.16 1264.99C1425.17 1235.73 1353.37 1277.67 1436.6 1172.9C1429.37 1202.42 1359.25 1280.1 1436.65 1231.36C1450.68 1206.34 1465.59 1182.63 1471.13 1155.16Z" fill="#A80030"/>
<path d="M1927.13 1115.71C1926.97 1115.06 1926.8 1114.41 1926.65 1113.76C1926.81 1114.41 1926.97 1115.06 1927.13 1115.71Z" fill="#A80030"/>
<path d="M1482.9 1028.97C1489.52 1000.5 1509.2 976.932 1504.19 1051.5C1496.73 1081.52 1490.63 1032.97 1482.9 1028.97Z" fill="#A80030"/>
<path d="M22.1719 724.731C17.2113 747.776 14.8619 771.696 1.88871 811.515C5.6742 780.332 -13.6877 770.567 22.1719 724.731Z" fill="#A80030"/>
<path d="M68.3858 538.581C72.1594 554.657 107.95 514.426 79.459 578.604C24.2517 617.208 72.5316 595.698 68.3858 538.581Z" fill="#A80030"/>
<path d="M68.0713 535.071C68.1994 536.256 68.3019 537.426 68.3858 538.581C68.1608 537.623 68.0483 536.464 68.0713 535.071Z" fill="#A80030"/>
<path d="M1085.93 46.459L1071.4 47.752L1087.01 44.5186L1085.93 46.459Z" fill="#A80030"/>
<path d="M1042.87 32.2402C1116.68 34.338 1111.19 39.2189 1087.01 44.5186C1090.61 39.2427 1064.96 36.207 1042.87 32.2402Z" fill="#A80030"/>
<path d="M1149.59 0C1119.88 6.75077 1079.04 2.12171 1051.04 12.3818L1034.29 10.0947C1072.34 5.1815 1110.86 3.24921 1149.59 0Z" fill="#A80030"/>
<path d="M3164.68 1842.02L3159.68 1833.36L3159.67 1833.36L3164.68 1842.02ZM3103.74 2069.36L3112.4 2064.36L3112.4 2064.35L3103.74 2069.36ZM3331.07 2130.29L3326.07 2121.63L3326.07 2121.63L3331.07 2130.29ZM3392.01 1902.95L3400.67 1897.95L3400.67 1897.95L3392.01 1902.95ZM2544.41 854.033L2550.17 862.211L2557.75 856.871L2553 848.907L2544.41 854.033ZM2422.7 650.186L2431.29 645.059L2425.89 636.024L2417.15 641.872L2422.7 650.186ZM2123.64 1070.57L2113.96 1068.06L2112.36 1074.27L2117.32 1078.32L2123.64 1070.57ZM2123.64 1433.19L2117.32 1425.45L2112.36 1429.49L2113.96 1435.69L2123.64 1433.19ZM2422.7 1853.63L2417.15 1861.95L2425.9 1867.79L2431.29 1858.76L2422.7 1853.63ZM2544.41 1649.73L2553 1654.85L2557.75 1646.89L2550.17 1641.55L2544.41 1649.73ZM2823.91 765.605L2823.9 775.605H2823.91V765.605ZM3308.24 1208.77L3298.28 1209.65L3299.09 1218.91L3308.39 1218.77L3308.24 1208.77ZM3545.45 1205.27L3545.59 1215.27L3556.09 1215.12L3555.43 1204.64L3545.45 1205.27ZM3330.58 736.211L3337.6 729.081L3333.03 724.595L3327.05 726.856L3330.58 736.211ZM3130.97 720.039L3125.98 728.7L3125.98 728.702L3130.97 720.039ZM3017.12 554.98L3026.99 553.379L3025.96 547.052L3019.78 545.343L3017.12 554.98ZM2823.9 528.711L2823.89 538.711L2823.9 538.711L2823.9 528.711ZM2503.41 603.545L2498.97 594.583L2489.56 599.245L2494.67 608.418L2503.41 603.545ZM2619.08 810.84L2610.35 815.713L2614.88 823.827L2623.3 819.906L2619.08 810.84ZM2823.91 1738.16L2823.91 1728.16L2823.91 1728.16L2823.91 1738.16ZM2619.09 1692.93L2623.31 1683.86L2614.89 1679.94L2610.36 1688.06L2619.09 1692.93ZM2503.42 1900.21L2494.68 1895.33L2489.57 1904.5L2498.97 1909.16L2503.42 1900.21ZM2823.92 1975.12L2823.92 1965.12L2823.91 1965.12L2823.92 1975.12ZM3017.13 1948.78L3019.8 1958.42L3025.97 1956.7L3027 1950.38L3017.13 1948.78ZM3130.97 1783.72L3125.98 1775.06L3125.97 1775.06L3130.97 1783.72ZM3330.58 1767.55L3327.05 1776.9L3333.03 1779.16L3337.6 1774.68L3330.58 1767.55ZM3545.47 1298.49L3555.45 1299.12L3556.11 1288.64L3545.61 1288.49L3545.47 1298.49ZM3308.19 1294.99L3308.34 1284.99L3299.04 1284.85L3298.23 1294.12L3308.19 1294.99ZM3164.62 661.689L3159.62 670.349L3159.62 670.35L3164.62 661.689ZM3391.95 600.811L3383.29 595.809L3383.29 595.814L3391.95 600.811ZM3331.07 373.418L3336.07 364.759L3336.07 364.756L3331.07 373.418ZM3103.68 434.395L3095.02 429.392L3095.02 429.396L3103.68 434.395ZM980.484 17.8154L985.363 26.5444L979.878 7.83383L980.484 17.8154ZM922.315 50.6309L916.57 42.4455L924.636 60.3577L922.315 50.6309ZM1071.44 47.8232L1072.88 57.7192L1070.13 37.909L1071.44 47.8232ZM1016.71 66.5928L1010.55 74.4743L1012.77 76.2027L1015.56 76.5262L1016.71 66.5928ZM1196.04 66.5146L1192.88 76.002L1209.49 81.5328L1205.82 64.4214L1196.04 66.5146ZM1191 42.9336L1194.39 33.5279L1177.45 27.4094L1181.22 45.0268L1191 42.9336ZM1445.66 140.11L1440.97 148.945L1442.94 149.991L1445.17 150.099L1445.66 140.11ZM1556.16 140.063L1564.85 135.115L1563.14 132.106L1559.93 130.801L1556.16 140.063ZM1632.09 210.189L1626.98 218.782L1631.21 221.301L1635.79 219.483L1632.09 210.189ZM1597.16 166.846L1601.87 158.027L1590.41 174.225L1597.16 166.846ZM1978.87 623.549L1970.08 628.316L1988.52 620.926L1978.87 623.549ZM1957 662.508L1960.88 653.29L1939.6 644.344L1947.62 665.983L1957 662.508ZM2007.76 845.071L1998.14 847.779L2017.61 843.338L2007.76 845.071ZM1906.28 588.88L1914.51 583.2L1898.73 560.336L1896.32 588.011L1906.28 588.88ZM1871.43 667.146L1861.91 670.198L1862.36 671.608L1863.2 672.826L1871.43 667.146ZM1911.44 697.949L1921.44 697.794L1921.4 695.607L1920.46 693.633L1911.44 697.949ZM1932.55 810.41L1930.93 820.278L1944.76 822.551L1942.41 808.733L1932.55 810.41ZM1897.71 774.408L1889.35 768.913L1887.06 772.405L1887.93 776.493L1897.71 774.408ZM1936.68 863.762L1945.93 867.547L1949.24 859.449L1941.66 855.091L1936.68 863.762ZM1922.27 893.052L1912.27 892.875L1912.26 893.224L1912.28 893.573L1922.27 893.052ZM1956.22 947.823L1965.98 949.986L1967.75 941.992L1960.26 938.678L1956.22 947.823ZM1902.91 1049.38L1912.26 1045.82L1892.98 1048.21L1902.91 1049.38ZM1887.7 1201.69L1878.14 1198.77L1897.05 1205.25L1887.7 1201.69ZM1886.62 1100.22L1878.28 1094.71L1876.35 1097.63L1876.66 1101.11L1886.62 1100.22ZM1818.25 1336.06L1810.15 1341.93L1828.13 1334.57L1818.25 1336.06ZM1793.08 1301.4L1801.17 1295.53L1792.87 1284.1L1784.85 1295.73L1793.08 1301.4ZM1745.11 1430.66L1736.45 1425.66L1753.61 1435.93L1745.11 1430.66ZM1758.33 1385.24L1766.66 1390.77L1777.75 1374.09L1757.75 1375.25L1758.33 1385.24ZM1646.17 1484.07L1640.03 1476.18L1639.97 1476.22L1639.92 1476.27L1646.17 1484.07ZM1032.91 1570.98L1036.41 1561.61L1031.01 1559.59L1026.56 1563.25L1032.91 1570.98ZM1017.76 1551.06L1011.68 1559L1011.92 1559.19L1012.17 1559.36L1017.76 1551.06ZM769.184 1026.27L763.16 1018.29L759.836 1020.8L759.275 1024.92L769.184 1026.27ZM866.597 853.272L871.925 861.735L874.468 860.134L875.707 857.396L866.597 853.272ZM1142 688.943L1142.16 698.942L1142.35 698.939L1142.55 698.928L1142 688.943ZM1425.66 825.142L1418.84 832.457L1433.61 819.074L1425.66 825.142ZM1036.37 774.511L1040.47 783.631L1040.64 783.555L1040.81 783.473L1036.37 774.511ZM828.805 1139.35L818.836 1140.14L821.078 1168.58L837.082 1144.96L828.805 1139.35ZM840.926 1117.82L850.925 1117.97L831.012 1116.51L840.926 1117.82ZM1388.26 1518.14L1397.38 1514.03L1393.21 1504.76L1384 1509.09L1388.26 1518.14ZM1391 1524.22L1381.88 1528.32L1385.38 1536.12L1393.63 1533.87L1391 1524.22ZM1533.72 1435.59L1542.72 1439.95L1559.16 1405.99L1528.06 1427.35L1533.72 1435.59ZM1514.22 1471.1L1514 1481.1L1515.42 1481.13L1516.79 1480.77L1514.22 1471.1ZM1682.74 1335.99L1689.38 1343.47L1690.94 1342.09L1691.81 1340.2L1682.74 1335.99ZM1700.88 1254.65L1696.41 1245.7L1693.49 1247.16L1691.99 1250.07L1700.88 1254.65ZM1736.67 1236.76L1741.14 1245.7L1744.79 1243.88L1746.12 1240.03L1736.67 1236.76ZM1776.15 1079.78L1786.14 1079.41L1767.11 1075.49L1776.15 1079.78ZM1755.22 1123.84L1745.72 1120.7L1764.25 1128.13L1755.22 1123.84ZM1772.55 841.821L1782.54 842.316L1782.94 834.263L1775.15 832.165L1772.55 841.821ZM1764 839.519L1754.01 839.859L1754.26 847.251L1761.4 849.174L1764 839.519ZM1396.37 305.576L1400.6 296.517L1400.58 296.507L1400.56 296.498L1396.37 305.576ZM921.258 277.343L914.629 269.856L925.653 286.325L921.258 277.343ZM975.406 249.574L980.351 240.882L977.585 239.308L974.417 239.623L975.406 249.574ZM724.223 338.202L721.748 328.513L719.182 329.169L717.276 331.009L724.223 338.202ZM751.951 354.543L754.609 364.183L755.902 363.827L757.056 363.142L751.951 354.543ZM554.689 445.497L547.497 438.548L542.096 444.138L546.181 450.752L554.689 445.497ZM572.48 459.992L571.248 469.916L576.811 470.607L580.303 466.221L572.48 459.992ZM235.335 747.729L226.659 742.755L219.55 755.158L233.638 757.583L235.335 747.729ZM257.685 751.577L266.972 755.285L271.55 743.818L259.382 741.722L257.685 751.577ZM166.202 957.138L156.272 955.954L156.244 956.196L156.227 956.439L166.202 957.138ZM175.099 1415.28L185.049 1416.28L185.479 1412L182.662 1408.74L175.099 1415.28ZM168.733 1478.67L158.783 1477.67L158.493 1480.56L159.795 1483.15L168.733 1478.67ZM195.745 1531.82L196.546 1541.79L213.463 1540.43L204.076 1526.29L195.745 1531.82ZM181.131 1533L180.33 1523.03L167.799 1524.04L171.599 1536.02L181.131 1533ZM346.502 1763.31L343.309 1772.79L363.899 1779.73L355.777 1759.57L346.502 1763.31ZM300.643 1727.98L308.679 1722.03L293.625 1701.7L290.709 1726.83L300.643 1727.98ZM364.799 1853.83L372.326 1860.41L377.756 1854.2L372.694 1847.69L364.799 1853.83ZM349.522 1871.29L341.995 1864.71L337.385 1869.98L340.762 1876.12L349.522 1871.29ZM402.086 1928.54L397.295 1937.32L408.833 1921.16L402.086 1928.54ZM484.743 2085.93L476.104 2090.97L484.904 2106.06L493.462 2090.83L484.743 2085.93ZM496.273 2065.4L506.258 2065.97L487.555 2060.51L496.273 2065.4ZM560.312 2185.92L552.543 2192.22L555.698 2196.11L560.705 2195.92L560.312 2185.92ZM595.982 2184.52L604.904 2180L602.005 2174.27L595.588 2174.53L595.982 2184.52ZM697.062 2268.54L705.001 2274.62L716.226 2259.96L697.816 2258.57L697.062 2268.54ZM675.374 2296.86L667.435 2290.78L658.773 2302.09L672.355 2306.39L675.374 2296.86ZM815.737 2366.85L812.401 2376.28L837.606 2385.2L824.441 2361.93L815.737 2366.85ZM795.438 2330.97L801.992 2323.42L786.734 2335.89L795.438 2330.97ZM935.043 2448.54L930.783 2457.59L931.256 2457.81L931.75 2457.98L935.043 2448.54ZM1151.84 2499.17L1151.55 2509.17L1154.59 2489.56L1151.84 2499.17ZM892.709 2472.88L896.077 2463.46L895.705 2463.33L895.323 2463.23L892.709 2472.88ZM21.9668 1223.21L31.9515 1223.76L31.9843 1223.17L31.947 1222.58L21.9668 1223.21ZM14.2383 935.221L4.67912 932.284L3.28266 936.831L5.92802 940.783L14.2383 935.221ZM135.138 613.289L144.106 617.713L146.375 613.113L143.963 608.587L135.138 613.289ZM177.377 583.833L186.001 588.894L186.264 588.448L186.478 587.976L177.377 583.833ZM236.92 453.17L234.648 443.432L230.483 444.403L228.309 448.086L236.92 453.17ZM249.459 450.244L251.731 459.983L258.189 458.476L259.314 451.941L249.459 450.244ZM466.51 209.195L476.399 207.709L473.085 185.67L458.825 202.797L466.51 209.195ZM469.743 230.702L459.854 232.189L462.687 251.027L476.583 237.997L469.743 230.702ZM857.141 24.6133L864.562 31.3164L853.066 15.481L857.141 24.6133ZM800.066 1420.29L802.19 1410.52L780.524 1405.81L791.336 1425.17L800.066 1420.29ZM953.222 1561.21L950.012 1570.68L959.476 1553.4L953.222 1561.21ZM870.517 1465.87L878.062 1459.3L862.259 1471.51L870.517 1465.87ZM1029.55 1587.48L1025.3 1596.53L1044.67 1605.6L1039.21 1584.92L1029.55 1587.48ZM1104.58 1631.24L1100 1640.13L1100.54 1640.41L1101.11 1640.62L1104.58 1631.24ZM1348.06 1659.57L1351.92 1668.79L1347.7 1649.57L1348.06 1659.57ZM747.89 1377.24L756.769 1372.64L743.666 1347.35L738.084 1375.28L747.89 1377.24ZM825.643 1512.19L819.248 1519.88L834.543 1507.63L825.643 1512.19ZM742.086 1406.28L732.28 1404.32L731.414 1408.65L734.033 1412.21L742.086 1406.28ZM779.767 1320.5L788.715 1316.04L770.117 1323.13L779.767 1320.5ZM812.235 1374.71L821.705 1371.5L821.04 1369.54L819.652 1368L812.235 1374.71ZM824.98 1412.27L816.379 1417.37L834.449 1409.06L824.98 1412.27ZM1950.73 1127.26L1960.65 1128.55L1941.44 1123.55L1950.73 1127.26ZM1872.49 1372.82L1863.57 1368.29L1881.32 1377.51L1872.49 1372.82ZM1944.65 1142.51L1935.36 1138.8L1934.91 1139.92L1934.75 1141.11L1944.65 1142.51ZM1302.35 1315.11L1309.23 1322.36L1336.54 1296.44L1299.97 1305.4L1302.35 1315.11ZM1261.79 1350.05L1260.27 1359.93L1264.53 1360.59L1267.94 1357.93L1261.79 1350.05ZM1199.89 1320.39L1200.8 1310.43L1200.28 1310.38L1199.75 1310.39L1199.89 1320.39ZM1471.13 1155.16L1481 1156.78L1461.33 1153.18L1471.13 1155.16ZM1423.31 1263.39L1431.43 1269.21L1431.44 1269.21L1423.31 1263.39ZM1422.16 1264.99L1412.21 1263.97L1408.36 1301.39L1430.28 1270.82L1422.16 1264.99ZM1436.6 1172.9L1446.32 1175.28L1428.77 1166.68L1436.6 1172.9ZM1436.65 1231.36L1441.98 1239.83L1444.13 1238.47L1445.37 1236.25L1436.65 1231.36ZM1927.13 1115.71L1917.45 1118.2L1936.85 1113.35L1927.13 1115.71ZM1482.9 1028.97L1473.16 1026.7L1471.4 1034.27L1478.3 1037.84L1482.9 1028.97ZM1504.19 1051.5L1513.9 1053.91L1514.11 1053.05L1514.17 1052.17L1504.19 1051.5ZM22.1719 724.731L31.948 726.836L14.2959 718.57L22.1719 724.731ZM1.88871 811.515L-8.03841 810.31L11.3968 814.612L1.88871 811.515ZM79.459 578.604L85.1895 586.8L87.4699 585.205L88.5989 582.662L79.459 578.604ZM68.0713 535.071L78.0134 533.996L58.0727 534.906L68.0713 535.071ZM1085.93 46.459L1086.82 56.4196L1092.09 55.9505L1094.67 51.3259L1085.93 46.459ZM1071.4 47.752L1069.37 37.9597L1072.29 57.7126L1071.4 47.752ZM1042.87 32.2402L1043.15 22.2443L1041.1 42.0829L1042.87 32.2402ZM1149.59 0L1151.8 9.7514L1148.75 -9.96498L1149.59 0ZM1051.04 12.3818L1049.69 22.29L1052.15 22.6259L1054.49 21.7712L1051.04 12.3818ZM1034.29 10.0947L1033.01 0.177057L1032.93 20.0029L1034.29 10.0947ZM4070.82 1251.9H4060.82C4060.82 1934.99 3507.04 2488.78 2823.91 2488.78V2498.78V2508.78C3518.09 2508.78 4080.82 1946.04 4080.82 1251.9H4070.82ZM2823.91 2498.78V2488.78C2140.77 2488.78 1587 1934.99 1587 1251.9H1577H1567C1567 1946.04 2129.72 2508.78 2823.91 2508.78V2498.78ZM1577 1251.9H1587C1587 568.775 2140.78 15 2823.91 15V5V-5C2129.74 -5 1567 557.729 1567 1251.9H1577ZM2823.91 5V15C3507.05 15 4060.82 568.775 4060.82 1251.9H4070.82H4080.82C4080.82 557.729 3518.1 -5 2823.91 -5V5ZM1976.05 1085.4V1075.4C1878.55 1075.4 1799.55 1154.4 1799.55 1251.9H1809.55H1819.55C1819.55 1165.44 1889.59 1095.4 1976.05 1095.4V1085.4ZM1809.55 1251.9H1799.55C1799.55 1349.36 1878.55 1428.37 1976.05 1428.37V1418.37V1408.37C1889.59 1408.37 1819.55 1338.31 1819.55 1251.9H1809.55ZM1976.05 1418.37V1428.37C2073.52 1428.37 2152.52 1349.36 2152.52 1251.9H2142.52H2132.52C2132.52 1338.32 2062.47 1408.37 1976.05 1408.37V1418.37ZM2142.52 1251.9H2152.52C2152.52 1154.4 2073.52 1075.4 1976.05 1075.4V1085.4V1095.4C2062.47 1095.4 2132.52 1165.44 2132.52 1251.9H2142.52ZM3164.68 1842.02L3159.67 1833.36C3075.28 1882.12 3046.31 1989.99 3095.08 2074.36L3103.74 2069.36L3112.4 2064.35C3069.17 1989.56 3094.83 1893.92 3169.68 1850.68L3164.68 1842.02ZM3103.74 2069.36L3095.08 2074.35C3143.78 2158.77 3251.66 2187.7 3336.07 2138.95L3331.07 2130.29L3326.07 2121.63C3251.23 2164.86 3155.59 2139.2 3112.4 2064.36L3103.74 2069.36ZM3331.07 2130.29L3336.07 2138.95C3420.47 2090.25 3449.42 1982.37 3400.67 1897.95L3392.01 1902.95L3383.35 1907.95C3426.57 1982.8 3400.91 2078.44 3326.07 2121.63L3331.07 2130.29ZM3392.01 1902.95L3400.67 1897.95C3351.96 1813.6 3244.03 1784.66 3159.68 1833.36L3164.68 1842.02L3169.68 1850.68C3244.46 1807.51 3340.16 1833.16 3383.35 1907.95L3392.01 1902.95ZM2337.66 1251.9H2347.66C2347.66 1090.79 2427.68 948.428 2550.17 862.211L2544.41 854.033L2538.66 845.856C2411.08 935.654 2327.66 1084 2327.66 1251.9H2337.66ZM2544.41 854.033L2553 848.907L2431.29 645.059L2422.7 650.186L2414.12 655.312L2535.83 859.16L2544.41 854.033ZM2422.7 650.186L2417.15 641.872C2269.51 740.568 2159.63 891.382 2113.96 1068.06L2123.64 1070.57L2133.32 1073.07C2177.73 901.254 2284.61 754.53 2428.26 658.499L2422.7 650.186ZM2123.64 1070.57L2117.32 1078.32C2167.65 1119.37 2199.83 1181.86 2199.83 1251.89H2209.83H2219.83C2219.83 1175.58 2184.74 1107.5 2129.96 1062.82L2123.64 1070.57ZM2209.83 1251.89H2199.83C2199.83 1321.89 2167.66 1384.38 2117.32 1425.45L2123.64 1433.19L2129.96 1440.94C2184.74 1396.25 2219.83 1328.17 2219.83 1251.89H2209.83ZM2123.64 1433.19L2113.96 1435.69C2159.57 1612.42 2269.45 1763.25 2417.15 1861.95L2422.7 1853.63L2428.26 1845.32C2284.55 1749.29 2177.68 1602.55 2133.32 1430.69L2123.64 1433.19ZM2422.7 1853.63L2431.29 1858.76L2553 1654.85L2544.41 1649.73L2535.83 1644.6L2414.12 1848.51L2422.7 1853.63ZM2544.41 1649.73L2550.17 1641.55C2427.68 1555.38 2347.66 1413.03 2347.66 1251.9H2337.66H2327.66C2327.66 1419.82 2411.08 1568.16 2538.66 1657.91L2544.41 1649.73ZM2823.91 765.605V775.605C3072.71 775.605 3276.85 966.362 3298.28 1209.65L3308.24 1208.77L3318.2 1207.89C3295.88 954.381 3083.18 755.605 2823.91 755.605V765.605ZM3308.24 1208.77L3308.39 1218.77L3545.59 1215.27L3545.45 1205.27L3545.3 1195.27L3308.09 1198.77L3308.24 1208.77ZM3545.45 1205.27L3555.43 1204.64C3543.6 1018.7 3462.36 851.791 3337.6 729.081L3330.58 736.211L3323.57 743.341C3444.98 862.741 3523.97 1025.09 3535.47 1205.91L3545.45 1205.27ZM3330.58 736.211L3327.05 726.856C3266.44 749.757 3196.45 746.245 3135.97 711.376L3130.97 720.039L3125.98 728.702C3191.86 766.685 3268.13 770.497 3334.12 745.566L3330.58 736.211ZM3130.97 720.039L3135.97 711.378C3075.38 676.41 3037.38 617.436 3026.99 553.379L3017.12 554.98L3007.25 556.581C3018.56 626.314 3059.95 690.602 3125.98 728.7L3130.97 720.039ZM3017.12 554.98L3019.78 545.343C2955.99 527.688 2890.1 518.73 2823.91 518.711L2823.9 528.711L2823.9 538.711C2888.29 538.729 2952.39 547.444 3014.45 564.618L3017.12 554.98ZM2823.9 528.711L2823.91 518.711C2711.2 518.596 2599.98 544.564 2498.97 594.583L2503.41 603.545L2507.84 612.506C2606.09 563.856 2714.26 538.599 2823.89 538.711L2823.9 528.711ZM2503.41 603.545L2494.67 608.418L2610.35 815.713L2619.08 810.84L2627.81 805.967L2512.14 598.672L2503.41 603.545ZM2619.08 810.84L2623.3 819.906C2686.13 790.662 2754.6 775.541 2823.9 775.605L2823.91 765.605L2823.92 755.605C2751.7 755.538 2680.34 771.297 2614.86 801.774L2619.08 810.84ZM2823.91 1738.16L2823.91 1728.16C2754.61 1728.23 2686.14 1713.1 2623.31 1683.86L2619.09 1692.93L2614.87 1702C2680.35 1732.47 2751.7 1748.23 2823.92 1748.16L2823.91 1738.16ZM2619.09 1692.93L2610.36 1688.06L2494.68 1895.33L2503.42 1900.21L2512.15 1905.08L2627.82 1697.8L2619.09 1692.93ZM2503.42 1900.21L2498.97 1909.16C2599.97 1959.24 2711.2 1985.24 2823.93 1985.12L2823.92 1975.12L2823.91 1965.12C2714.27 1965.23 2606.09 1939.95 2507.86 1891.25L2503.42 1900.21ZM2823.92 1975.12L2823.93 1985.12C2890.12 1985.1 2956.01 1976.12 3019.8 1958.42L3017.13 1948.78L3014.45 1939.14C2952.41 1956.36 2888.31 1965.1 2823.92 1965.12L2823.92 1975.12ZM3017.13 1948.78L3027 1950.38C3037.39 1886.33 3075.39 1827.41 3135.98 1792.38L3130.97 1783.72L3125.97 1775.06C3059.98 1813.22 3018.57 1877.44 3007.26 1947.18L3017.13 1948.78ZM3130.97 1783.72L3135.97 1792.38C3196.51 1757.45 3266.44 1754 3327.05 1776.9L3330.58 1767.55L3334.12 1758.19C3268.14 1733.26 3191.93 1737 3125.98 1775.06L3130.97 1783.72ZM3330.58 1767.55L3337.6 1774.68C3462.37 1651.97 3543.6 1485.06 3555.45 1299.12L3545.47 1298.49L3535.49 1297.85C3523.97 1478.67 3444.98 1641.02 3323.57 1760.42L3330.58 1767.55ZM3545.47 1298.49L3545.61 1288.49L3308.34 1284.99L3308.19 1294.99L3308.04 1304.99L3545.32 1308.49L3545.47 1298.49ZM3308.19 1294.99L3298.23 1294.12C3276.85 1537.47 3072.73 1728.16 2823.91 1728.16V1738.16V1748.16C3083.19 1748.16 3295.88 1549.45 3318.15 1295.87L3308.19 1294.99ZM3164.62 661.689L3159.62 670.35C3244.02 719.085 3351.91 690.228 3400.61 605.808L3391.95 600.811L3383.29 595.814C3340.12 670.651 3244.47 696.247 3169.62 653.029L3164.62 661.689ZM3391.95 600.811L3400.61 605.812C3449.37 521.401 3420.49 413.517 3336.07 364.759L3331.07 373.418L3326.07 382.077C3400.92 425.311 3426.53 520.962 3383.29 595.809L3391.95 600.811ZM3331.07 373.418L3336.07 364.756C3251.66 316.058 3143.79 344.986 3095.02 429.392L3103.68 434.395L3112.34 439.397C3155.58 364.545 3251.23 338.903 3326.08 382.08L3331.07 373.418ZM3103.68 434.395L3095.02 429.396C3046.33 513.77 3075.27 621.642 3159.62 670.349L3164.62 661.689L3169.62 653.03C3094.83 609.843 3069.17 514.198 3112.34 439.393L3103.68 434.395ZM980.484 17.8154L975.605 9.08647C956.856 19.5664 935.704 29.017 916.57 42.4455L922.315 50.6309L928.059 58.8162C946.165 46.1093 964.381 38.2725 985.363 26.5444L980.484 17.8154ZM922.315 50.6309L924.636 60.3577C960.981 51.6842 977.638 53.5113 994.722 56.1632C1013.15 59.0233 1032.69 63.0161 1072.75 57.7375L1071.44 47.8232L1070.13 37.909C1032.99 42.8039 1015.74 39.1863 997.79 36.3998C978.497 33.405 959.192 31.5493 919.993 40.904L922.315 50.6309ZM1071.44 47.8232L1070 37.9272C1055.88 39.9805 1040.29 43.7866 1028.76 47.6684C1023.12 49.5677 1017.84 51.6848 1014.13 53.8846C1012.56 54.8174 1009.84 56.5657 1008.05 59.3264C1007.04 60.886 1005.78 63.6146 1006.25 67.0769C1006.73 70.6834 1008.81 73.1109 1010.55 74.4743L1016.71 66.5928L1022.86 58.7112C1023.95 59.562 1025.67 61.4251 1026.07 64.4219C1026.45 67.2745 1025.39 69.3482 1024.83 70.2141C1023.94 71.5875 1023.14 71.7936 1024.34 71.0821C1026.18 69.9929 1029.83 68.4119 1035.14 66.6233C1045.52 63.1294 1059.93 59.6013 1072.88 57.7192L1071.44 47.8232ZM1016.71 66.5928L1015.56 76.5262C1060.46 81.7339 1086.81 74.7096 1110.67 70.1538C1133.54 65.7874 1154.99 63.3779 1192.88 76.002L1196.04 66.5146L1199.21 57.0273C1157.25 43.0505 1132.19 45.684 1106.92 50.5088C1082.65 55.1443 1059.25 61.4596 1017.86 56.6593L1016.71 66.5928ZM1196.04 66.5146L1205.82 64.4214L1200.78 40.8404L1191 42.9336L1181.22 45.0268L1186.27 68.6079L1196.04 66.5146ZM1191 42.9336L1187.6 52.3393C1300.3 93.0297 1321.2 85.4133 1440.97 148.945L1445.66 140.11L1450.34 131.276C1329.08 66.9526 1303.53 72.9321 1194.39 33.5279L1191 42.9336ZM1445.66 140.11L1445.17 150.099C1468.28 151.217 1483.21 143.754 1495.2 140.811C1507.08 137.894 1521.94 136.936 1552.39 149.326L1556.16 140.063L1559.93 130.801C1526.44 117.174 1507.23 117.264 1490.43 121.388C1473.75 125.485 1465.4 131.054 1446.14 130.122L1445.66 140.11ZM1556.16 140.063L1547.47 145.012C1549.82 149.135 1550.69 152.031 1552.43 156.439C1554.2 160.936 1556.47 165.752 1561.26 171.448C1570.25 182.122 1587.83 195.474 1626.98 218.782L1632.09 210.189L1637.21 201.597C1597.86 178.17 1583.1 166.332 1576.56 158.565C1573.59 155.039 1572.3 152.321 1571.04 149.12C1569.75 145.83 1568.13 140.866 1564.85 135.115L1556.16 140.063ZM1632.09 210.189L1635.79 219.483C1639.8 217.887 1643.12 214.392 1643.81 209.41C1644.34 205.533 1643.03 202.15 1642.07 200.133C1640.04 195.866 1636.33 191.292 1632.56 187.128C1624.76 178.505 1613.43 168.178 1603.91 159.467L1597.16 166.846L1590.41 174.225C1600.2 183.179 1610.71 192.785 1617.74 200.548C1621.38 204.577 1623.34 207.309 1624.02 208.735C1624.41 209.564 1623.73 208.624 1623.99 206.696C1624.41 203.662 1626.57 201.622 1628.4 200.896L1632.09 210.189ZM1597.16 166.846L1592.44 175.664C1748.42 259.06 1917.78 436.923 1969.22 626.171L1978.87 623.549L1988.52 620.926C1935.33 425.222 1761.55 243.401 1601.87 158.027L1597.16 166.846ZM1978.87 623.549L1987.66 618.782C1981.48 607.393 1976.58 599.214 1972.7 593.777C1970.78 591.089 1968.87 588.723 1966.95 586.925C1965.52 585.58 1962.09 582.581 1957.25 582.536C1950.39 582.473 1947.19 587.74 1946.17 590.371C1945.17 592.942 1944.94 595.706 1944.87 597.731C1944.73 602.051 1945.27 607.572 1945.96 613.067C1947.45 624.971 1949.69 637.286 1950.67 647.653C1951.17 652.852 1951.16 656.028 1950.91 657.432C1950.74 658.396 1950.77 656.737 1952.56 655.019C1953.71 653.925 1955.33 653.051 1957.25 652.829C1959.01 652.625 1960.3 653.05 1960.88 653.29L1957 662.508L1953.12 671.726C1954.74 672.408 1956.97 672.995 1959.55 672.696C1962.29 672.378 1964.63 671.151 1966.39 669.469C1969.42 666.575 1970.27 662.801 1970.61 660.89C1971.37 656.545 1971.07 650.936 1970.58 645.76C1969.59 635.376 1967.06 620.578 1965.8 610.571C1965.11 605.109 1964.78 600.975 1964.86 598.386C1964.91 596.956 1965.07 596.952 1964.81 597.621C1964.52 598.351 1962.41 602.584 1957.07 602.535C1953.74 602.505 1952.26 600.567 1953.27 601.513C1953.79 602.004 1954.82 603.157 1956.42 605.398C1959.58 609.816 1964.01 617.13 1970.08 628.316L1978.87 623.549ZM1957 662.508L1947.62 665.983C1969.29 724.435 1986.99 784.703 1997.92 846.805L2007.76 845.071L2017.61 843.338C2006.43 779.793 1988.36 718.341 1966.38 659.033L1957 662.508ZM2007.76 845.071L2017.39 842.363C2003.09 791.52 1971.08 665.164 1914.51 583.2L1906.28 588.88L1898.05 594.56C1952.28 673.132 1983.45 795.563 1998.14 847.779L2007.76 845.071ZM1906.28 588.88L1896.32 588.011C1895.84 593.479 1894.64 595.601 1894.12 596.262C1893.86 596.593 1893.61 596.865 1892.45 597.023C1890.9 597.233 1888.69 597.068 1885.31 596.492C1882.54 596.019 1878.05 595.065 1874.37 594.729C1870.63 594.388 1865.05 594.327 1860.01 597.4C1854.39 600.818 1851.78 606.568 1850.92 612.727C1850.09 618.653 1850.69 626.05 1852.43 635.067C1854.2 644.226 1857.27 655.745 1861.91 670.198L1871.43 667.146L1880.95 664.093C1876.45 650.044 1873.63 639.36 1872.07 631.284C1870.49 623.064 1870.35 618.192 1870.73 615.483C1871.07 613.008 1871.59 613.759 1870.41 614.483C1869.79 614.859 1869.93 614.407 1872.55 614.646C1875.22 614.89 1877.73 615.488 1881.95 616.207C1885.57 616.824 1890.35 617.49 1895.13 616.842C1900.3 616.14 1905.73 613.863 1909.85 608.619C1913.71 603.707 1915.59 597.232 1916.24 589.749L1906.28 588.88ZM1871.43 667.146L1863.2 672.826C1866.84 678.096 1870.15 682.129 1873.32 684.785C1876.18 687.173 1881.52 690.56 1887.89 688.344C1893.46 686.406 1895.73 681.37 1896.46 679.687C1897.27 677.798 1898.24 674.669 1898.44 674.103C1898.66 673.47 1898.74 673.353 1898.67 673.477C1898.66 673.488 1898.04 674.71 1896.41 675.747C1894.27 677.112 1891.7 677.343 1889.6 676.692C1888.03 676.205 1887.36 675.431 1887.65 675.708C1888.19 676.239 1889.69 678.087 1892.35 682.689C1894.9 687.089 1898.18 693.404 1902.42 702.266L1911.44 697.949L1920.46 693.633C1916.11 684.555 1912.58 677.714 1909.66 672.669C1906.85 667.826 1904.23 663.939 1901.59 661.373C1900.29 660.101 1898.26 658.438 1895.51 657.586C1892.23 656.57 1888.67 656.962 1885.66 658.879C1883.17 660.468 1881.81 662.632 1881.14 663.842C1880.41 665.166 1879.91 666.506 1879.58 667.451C1878.66 670.043 1878.61 670.562 1878.1 671.738C1877.51 673.12 1878.12 670.566 1881.32 669.454C1885.32 668.063 1887.56 670.62 1886.16 669.448C1885.08 668.545 1882.99 666.287 1879.66 661.465L1871.43 667.146ZM1911.44 697.949L1901.44 698.104C1901.72 716.301 1905.33 734.189 1909.62 752.571C1913.96 771.185 1918.98 790.256 1922.69 812.087L1932.55 810.41L1942.41 808.733C1938.56 786.108 1933.29 766.004 1929.1 748.028C1924.85 729.821 1921.68 713.706 1921.44 697.794L1911.44 697.949ZM1932.55 810.41L1934.17 800.543C1935.6 800.777 1935.86 801.41 1934.89 800.495C1934.07 799.717 1932.95 798.392 1931.55 796.39C1928.7 792.31 1925.84 787.205 1922.56 781.664C1919.65 776.752 1915.98 770.714 1912.02 766.965C1910.14 765.182 1906.53 762.263 1901.51 762.111C1895.5 761.928 1891.5 765.643 1889.35 768.913L1897.71 774.408L1906.06 779.903C1906.06 779.907 1905.98 780.038 1905.78 780.239C1905.59 780.442 1905.27 780.737 1904.8 781.038C1903.77 781.706 1902.39 782.147 1900.9 782.102C1898.37 782.025 1897.39 780.655 1898.26 781.481C1899.81 782.949 1902.1 786.37 1905.36 791.858C1908.23 796.717 1911.74 802.954 1915.17 807.856C1916.91 810.346 1918.92 812.922 1921.17 815.045C1923.27 817.029 1926.57 819.561 1930.93 820.278L1932.55 810.41ZM1897.71 774.408L1887.93 776.493C1894.04 805.176 1902.17 827.24 1909.89 842.874C1913.75 850.68 1917.56 856.984 1921.03 861.748C1924.27 866.175 1927.91 870.26 1931.69 872.433L1936.68 863.762L1941.66 855.091C1941.71 855.118 1940.1 853.951 1937.19 849.958C1934.52 846.303 1931.29 841.022 1927.83 834.015C1920.91 820.022 1913.29 799.556 1907.49 772.324L1897.71 774.408ZM1936.68 863.762L1927.42 859.977C1927.45 859.907 1927.85 858.99 1929.02 858.121C1930.18 857.256 1931.26 857.07 1931.48 857.039C1931.54 857.03 1931.51 857.038 1931.19 857.057C1930.99 857.069 1930.33 857.101 1929.78 857.147C1928.54 857.251 1926.42 857.507 1924.11 858.57C1918.83 860.999 1916.12 865.833 1914.65 871.004C1913.2 876.074 1912.44 883.117 1912.27 892.875L1922.27 893.052L1932.27 893.228C1932.43 883.973 1933.16 879.017 1933.88 876.491C1934.57 874.066 1934.7 875.709 1932.47 876.737C1931.68 877.1 1931.12 877.105 1931.45 877.078C1931.67 877.059 1931.79 877.057 1932.36 877.023C1932.8 876.997 1933.53 876.95 1934.33 876.834C1936.02 876.59 1938.51 875.985 1940.95 874.171C1943.4 872.353 1944.95 869.955 1945.93 867.547L1936.68 863.762ZM1922.27 893.052L1912.28 893.573C1913.43 915.694 1915.59 930.75 1918.59 940.819C1921.45 950.385 1925.98 958.454 1934.29 961.201C1941.98 963.746 1949.17 960.104 1951.78 958.898C1953.77 957.98 1954.53 957.622 1955.14 957.436C1955.71 957.263 1954.23 957.88 1952.17 956.968L1956.22 947.823L1960.26 938.678C1955.85 936.726 1951.69 937.586 1949.35 938.294C1947.05 938.99 1944.67 940.151 1943.39 940.742C1939.47 942.556 1939.61 941.896 1940.57 942.212C1942.13 942.73 1940.22 943.358 1937.76 935.096C1935.44 927.34 1933.38 914.183 1932.25 892.531L1922.27 893.052ZM1956.22 947.823L1946.45 945.66C1944.28 955.491 1940.4 965.973 1935.77 977.863C1931.23 989.549 1925.99 1002.51 1921.64 1016.42C1912.85 1044.54 1907.43 1077.29 1916.93 1116.14L1926.65 1113.76L1936.36 1111.39C1927.99 1077.18 1932.63 1048.31 1940.73 1022.39C1944.82 1009.29 1949.74 997.133 1954.41 985.117C1959.01 973.306 1963.43 961.504 1965.98 949.986L1956.22 947.823ZM1926.65 1113.76L1936.33 1111.28C1930.56 1088.75 1919.76 1065.48 1912.26 1045.82L1902.91 1049.38L1893.57 1052.95C1901.83 1074.6 1911.56 1095.16 1916.96 1116.24L1926.65 1113.76ZM1902.91 1049.38L1892.98 1048.21C1889.1 1080.88 1892.71 1101.53 1893.46 1120.89C1894.19 1140.04 1892.52 1160.95 1878.36 1198.13L1887.7 1201.69L1897.05 1205.25C1912.11 1165.73 1914.29 1142.13 1913.44 1120.12C1912.61 1098.32 1909.21 1081.17 1912.84 1050.56L1902.91 1049.38ZM1887.7 1201.69L1897.27 1204.6C1908.01 1169.33 1912.95 1135.37 1912.5 1113.56C1912.39 1108.07 1911.93 1103.03 1911.01 1098.79C1910.18 1094.94 1908.66 1090.1 1905.23 1086.64C1903.29 1084.69 1900.57 1083 1897.11 1082.58C1893.73 1082.16 1890.76 1083.09 1888.48 1084.31C1884.32 1086.56 1880.99 1090.6 1878.28 1094.71L1886.62 1100.22L1894.96 1105.73C1897.21 1102.33 1898.3 1101.75 1897.97 1101.92C1897.62 1102.11 1896.42 1102.64 1894.68 1102.43C1892.85 1102.2 1891.61 1101.32 1891.02 1100.71C1890.27 1099.95 1890.82 1100.04 1891.46 1103C1892.01 1105.56 1892.4 1109.21 1892.5 1113.97C1892.9 1133.11 1888.45 1164.91 1878.14 1198.77L1887.7 1201.69ZM1886.62 1100.22L1876.66 1101.11C1880.77 1147.16 1862.63 1188.31 1843.26 1227.23C1833.76 1246.34 1823.76 1265.31 1816.88 1283.23C1809.98 1301.22 1805.64 1319.51 1808.36 1337.55L1818.25 1336.06L1828.13 1334.57C1826.17 1321.54 1829.14 1307.1 1835.55 1290.4C1841.99 1273.63 1851.32 1255.95 1861.17 1236.14C1880.52 1197.25 1901.24 1151.54 1896.58 1099.33L1886.62 1100.22ZM1818.25 1336.06L1826.34 1330.18L1801.17 1295.53L1793.08 1301.4L1784.99 1307.28L1810.15 1341.93L1818.25 1336.06ZM1793.08 1301.4L1784.85 1295.73C1767.69 1320.61 1758.5 1337.17 1753.99 1349.26C1749.25 1361.99 1749.61 1370 1751.18 1377.15C1752.58 1383.54 1753.68 1385.62 1752.74 1391.1C1751.73 1397.06 1748.02 1406.99 1736.61 1425.39L1745.11 1430.66L1753.61 1435.93C1765.4 1416.91 1770.78 1404.32 1772.46 1394.46C1774.22 1384.12 1771.64 1377.09 1770.71 1372.87C1769.95 1369.41 1769.35 1365.31 1772.73 1356.24C1776.36 1346.53 1784.4 1331.59 1801.31 1307.08L1793.08 1301.4ZM1745.11 1430.66L1753.76 1435.67C1758.19 1428.01 1760.66 1422.06 1761.18 1416.84C1761.8 1410.73 1759.54 1406.68 1758.91 1405.29C1758.66 1404.74 1758.78 1404.91 1758.83 1405.26C1758.87 1405.64 1758.77 1405.6 1758.97 1404.85C1759.48 1402.97 1761.24 1398.92 1766.66 1390.77L1758.33 1385.24L1750.01 1379.7C1744.35 1388.2 1741.05 1394.48 1739.66 1399.64C1738.91 1402.41 1738.65 1405.07 1738.98 1407.71C1739.3 1410.32 1740.14 1412.31 1740.68 1413.52C1741.06 1414.37 1741.02 1414.25 1741.24 1414.74C1741.34 1414.97 1741.35 1415.02 1741.34 1414.99C1741.28 1414.78 1741.31 1414.64 1741.29 1414.83C1741.2 1415.68 1740.53 1418.61 1736.45 1425.66L1745.11 1430.66ZM1758.33 1385.24L1757.75 1375.25C1753.19 1375.52 1748.93 1377.83 1745.83 1379.8C1742.37 1382.01 1738.59 1384.98 1734.65 1388.34C1726.78 1395.08 1717.34 1404.25 1707.19 1414.25C1686.62 1434.5 1662.75 1458.49 1640.03 1476.18L1646.17 1484.07L1652.31 1491.96C1676.17 1473.38 1701.03 1448.38 1721.22 1428.5C1731.45 1418.42 1740.4 1409.74 1747.66 1403.54C1751.29 1400.43 1754.26 1398.15 1756.57 1396.67C1759.25 1394.97 1759.8 1395.17 1758.91 1395.22L1758.33 1385.24ZM1646.17 1484.07L1639.92 1476.27C1459.95 1620.54 1245.18 1639.6 1036.41 1561.61L1032.91 1570.98L1029.41 1580.35C1243.82 1660.45 1466.21 1641.15 1652.43 1491.87L1646.17 1484.07ZM1032.91 1570.98L1026.56 1563.25C1026.28 1563.48 1026.06 1563.68 1026 1563.74L1032.78 1571.09L1039.56 1578.44C1039.56 1578.44 1039.56 1578.44 1039.56 1578.44C1039.56 1578.44 1039.56 1578.44 1039.56 1578.44C1039.56 1578.44 1039.55 1578.45 1039.54 1578.45C1039.53 1578.47 1039.51 1578.48 1039.49 1578.51C1039.44 1578.55 1039.36 1578.62 1039.25 1578.7L1032.91 1570.98ZM1032.78 1571.09L1042.54 1573.29C1043.68 1568.21 1043.01 1562.8 1039.36 1557.29C1036.15 1552.45 1030.81 1547.8 1023.35 1542.77L1017.76 1551.06L1012.17 1559.36C1018.94 1563.92 1021.67 1566.81 1022.69 1568.35C1023.12 1568.99 1023.1 1569.18 1023.06 1568.99C1023.03 1568.79 1023.07 1568.68 1023.03 1568.89L1032.78 1571.09ZM1017.76 1551.06L1023.85 1543.13C934.3 1474.5 864.421 1411.97 821.169 1333.71C778.127 1255.83 760.908 1161.28 779.092 1027.62L769.184 1026.27L759.275 1024.92C740.662 1161.73 758.055 1260.85 803.665 1343.38C849.064 1425.53 921.875 1490.17 1011.68 1559L1017.76 1551.06ZM769.184 1026.27L775.208 1034.25C780.174 1030.5 784.085 1025.16 787.329 1019.5C790.622 1013.74 793.602 1006.97 796.432 999.727C801.912 985.707 807.758 967.326 813.998 950.29C827.117 914.475 843.709 879.501 871.925 861.735L866.597 853.272L861.268 844.81C826.709 866.57 808.273 907.772 795.219 943.411C788.372 962.103 783.346 978.269 777.804 992.446C775.123 999.305 772.556 1005.04 769.97 1009.56C767.334 1014.17 765.033 1016.87 763.16 1018.29L769.184 1026.27ZM866.597 853.272L875.707 857.396C893.835 817.346 930.482 778.126 977.974 748.633C1025.38 719.192 1082.92 699.876 1142.16 698.942L1142 688.943L1141.84 678.945C1078.55 679.943 1017.52 700.532 967.422 731.643C917.408 762.702 877.615 804.68 857.487 849.149L866.597 853.272ZM1142 688.943L1142.55 698.928C1263.44 692.267 1366.08 763.584 1417.71 831.21L1425.66 825.142L1433.61 819.074C1379.18 747.772 1270.73 671.835 1141.45 678.959L1142 688.943ZM1425.66 825.142L1432.48 817.826C1332.86 724.981 1170.37 697.01 1031.93 765.549L1036.37 774.511L1040.81 783.473C1171.89 718.573 1325.4 745.366 1418.84 832.457L1425.66 825.142ZM1036.37 774.511L1032.27 765.391C890.276 829.246 806.619 985.228 818.836 1140.14L828.805 1139.35L838.774 1138.57C827.158 991.271 906.892 843.703 1040.47 783.631L1036.37 774.511ZM828.805 1139.35L837.082 1144.96C837.616 1144.18 838.038 1143.8 838.627 1143.34C838.876 1143.15 841.313 1141.46 842.972 1139.78C847.429 1135.26 849.533 1129 850.839 1119.14L840.926 1117.82L831.012 1116.51C830.444 1120.8 829.822 1123.19 829.331 1124.52C829.1 1125.14 828.925 1125.46 828.849 1125.58C828.785 1125.68 828.758 1125.71 828.74 1125.73C828.316 1126.16 828.505 1125.88 826.388 1127.52C824.611 1128.9 822.549 1130.76 820.527 1133.74L828.805 1139.35ZM840.926 1117.82L830.927 1117.68C828.763 1268.33 909.915 1398.47 1020.65 1477C1131.27 1555.44 1273 1583.41 1392.52 1527.19L1388.26 1518.14L1384 1509.09C1272.66 1561.47 1138.61 1536.13 1032.22 1460.68C925.951 1385.33 848.87 1261 850.925 1117.97L840.926 1117.82ZM1388.26 1518.14L1379.14 1522.24L1381.88 1528.32L1391 1524.22L1400.12 1520.11L1397.38 1514.03L1388.26 1518.14ZM1391 1524.22L1393.63 1533.87C1441.32 1520.86 1463.16 1508.68 1480.94 1493.75C1489.32 1486.71 1497.15 1478.71 1505.56 1470.92C1514.23 1462.88 1524.57 1454.01 1539.38 1443.84L1533.72 1435.59L1528.06 1427.35C1512.26 1438.19 1501.16 1447.72 1491.96 1456.25C1482.5 1465.02 1476.03 1471.76 1468.08 1478.43C1453.2 1490.93 1434.28 1502.05 1388.37 1514.57L1391 1524.22ZM1533.72 1435.59L1524.72 1431.23C1524.76 1431.15 1524.68 1431.31 1524.36 1431.76C1524.06 1432.18 1523.63 1432.72 1523.05 1433.39C1521.88 1434.74 1520.36 1436.33 1518.53 1438.16C1515.09 1441.6 1510.35 1446.1 1506.68 1450.08C1504.79 1452.13 1502.9 1454.34 1501.36 1456.56C1499.97 1458.57 1498.16 1461.56 1497.57 1465.07C1497.25 1466.98 1497.22 1469.41 1498.16 1471.95C1499.13 1474.58 1500.86 1476.61 1502.88 1478.03C1506.45 1480.53 1510.75 1481.03 1514 1481.1L1514.22 1471.1L1514.45 1461.11C1512.26 1461.06 1512.95 1460.66 1514.37 1461.66C1515.31 1462.32 1516.34 1463.44 1516.93 1465.03C1517.48 1466.53 1517.39 1467.78 1517.29 1468.4C1517.13 1469.33 1516.88 1469.28 1517.8 1467.95C1518.58 1466.83 1519.77 1465.39 1521.38 1463.64C1524.71 1460.03 1528.61 1456.37 1532.68 1452.3C1534.6 1450.38 1536.53 1448.38 1538.18 1446.47C1539.72 1444.69 1541.53 1442.41 1542.72 1439.95L1533.72 1435.59ZM1514.22 1471.1L1516.79 1480.77C1521.82 1479.43 1527.45 1476.68 1533.18 1473.33C1539.04 1469.91 1545.59 1465.52 1552.55 1460.48C1566.47 1450.39 1582.55 1437.37 1598.97 1423.46C1631.78 1395.65 1666.7 1363.64 1689.38 1343.47L1682.74 1335.99L1676.1 1328.52C1653.07 1349 1618.61 1380.59 1586.04 1408.2C1569.76 1421.99 1554.14 1434.63 1540.82 1444.28C1534.16 1449.1 1528.19 1453.08 1523.09 1456.06C1517.86 1459.12 1514.07 1460.8 1511.66 1461.44L1514.22 1471.1ZM1682.74 1335.99L1691.81 1340.2C1697.29 1328.39 1699.75 1319.95 1700.28 1312.94C1700.81 1305.76 1699.16 1300.57 1698.44 1297.43C1697.8 1294.69 1697.36 1292.06 1698.42 1287.06C1699.59 1281.57 1702.61 1273.12 1709.77 1259.22L1700.88 1254.65L1691.99 1250.07C1684.5 1264.61 1680.56 1274.88 1678.86 1282.91C1677.05 1291.43 1677.83 1297.1 1678.95 1301.93C1679.97 1306.36 1680.59 1308.03 1680.33 1311.45C1680.07 1315.05 1678.68 1320.98 1673.67 1331.79L1682.74 1335.99ZM1700.88 1254.65L1705.35 1263.59L1741.14 1245.7L1736.67 1236.76L1732.2 1227.81L1696.41 1245.7L1700.88 1254.65ZM1736.67 1236.76L1746.12 1240.03C1765.35 1184.4 1788.69 1148.86 1786.14 1079.41L1776.15 1079.78L1766.15 1080.15C1768.52 1144.64 1747.76 1174.08 1727.22 1233.49L1736.67 1236.76ZM1776.15 1079.78L1767.11 1075.49L1746.18 1119.55L1755.22 1123.84L1764.25 1128.13L1785.18 1084.07L1776.15 1079.78ZM1755.22 1123.84L1764.71 1126.98C1780.58 1078.92 1783.84 1029.06 1783.79 980.774C1783.73 931.744 1780.38 885.935 1782.54 842.316L1772.55 841.821L1762.56 841.327C1760.38 885.326 1763.74 933.988 1763.79 980.795C1763.84 1028.35 1760.59 1075.68 1745.72 1120.7L1755.22 1123.84ZM1772.55 841.821L1775.15 832.165L1766.6 829.863L1764 839.519L1761.4 849.174L1769.95 851.477L1772.55 841.821ZM1764 839.519L1774 839.178C1770.15 726.36 1719.58 610.792 1649.05 513.729C1578.53 416.666 1487.27 337.015 1400.6 296.517L1396.37 305.576L1392.13 314.636C1475.06 353.388 1563.86 430.495 1632.87 525.485C1701.89 620.474 1750.34 732.252 1754.01 839.859L1764 839.519ZM1396.37 305.576L1400.56 296.498C1326.09 262.089 1232 242.11 1143.56 237.082C1055.38 232.069 971.111 241.819 916.863 268.36L921.258 277.343L925.653 286.325C975.356 262.007 1055.56 252.112 1142.42 257.05C1229 261.972 1320.5 281.539 1392.17 314.654L1396.37 305.576ZM921.258 277.343L927.887 284.83C929.807 283.13 934.278 280.942 941.42 278.489C948.25 276.144 955.716 274.121 962.994 271.954C966.515 270.906 969.987 269.823 973.045 268.699C975.973 267.623 979.13 266.296 981.695 264.611C983.488 263.433 988.946 259.56 988.585 252.539C988.404 249.028 986.759 246.374 985.209 244.657C983.707 242.992 981.93 241.78 980.351 240.882L975.406 249.574L970.461 258.266C971.03 258.589 970.82 258.564 970.362 258.057C969.857 257.497 968.735 255.972 968.611 253.567C968.364 248.757 972.074 247.002 970.714 247.895C970.125 248.282 968.725 248.979 966.146 249.926C963.697 250.826 960.714 251.766 957.287 252.786C950.67 254.756 942.273 257.05 934.925 259.573C927.889 261.989 919.866 265.219 914.629 269.856L921.258 277.343ZM975.406 249.574L974.417 239.623C891.885 247.825 858.786 262.368 830.412 279.433C803.262 295.762 782.444 313.009 721.748 328.513L724.223 338.202L726.698 347.891C790.765 331.526 814.158 312.547 840.72 296.572C866.056 281.335 896.168 267.498 976.395 259.525L975.406 249.574ZM724.223 338.202L717.276 331.009C714.903 333.301 712.832 335.589 711.336 337.861C710.096 339.744 707.946 343.525 708.668 348.17C709.596 354.137 714.224 356.851 717.134 357.808C719.829 358.696 722.625 358.745 724.669 358.663C732.698 358.342 745.346 354.911 754.897 352.361C760.041 350.988 764.547 349.785 768.006 349.029C769.751 348.647 770.937 348.446 771.647 348.372C772.007 348.334 772.002 348.356 771.754 348.344C771.722 348.343 770.382 348.32 768.73 347.482C766.494 346.348 763.712 343.593 763.622 339.296C763.559 336.267 764.968 334.363 765.091 334.189C765.538 333.556 765.584 333.74 763.99 334.962C761.194 337.107 755.843 340.603 746.847 345.944L751.951 354.543L757.056 363.142C766.101 357.773 772.346 353.759 776.163 350.831C777.876 349.517 779.982 347.774 781.427 345.728C782.048 344.848 783.691 342.366 783.618 338.877C783.518 334.118 780.484 331.019 777.776 329.645C775.651 328.568 773.618 328.41 772.697 328.367C771.559 328.313 770.468 328.386 769.567 328.48C767.755 328.67 765.722 329.056 763.734 329.49C759.727 330.366 754.711 331.71 749.739 333.038C739.06 335.888 729.106 338.47 723.868 338.68C722.594 338.731 722.657 338.571 723.385 338.811C724.328 339.121 727.755 340.75 728.431 345.099C728.902 348.126 727.45 349.756 728.04 348.86C728.374 348.353 729.265 347.234 731.169 345.396L724.223 338.202ZM751.951 354.543L749.293 344.903C733.442 349.273 719.672 350.789 705.854 352.158C692.155 353.514 678.039 354.746 662.833 358.795C631.86 367.044 597.76 386.53 547.497 438.548L554.689 445.497L561.88 452.446C610.773 401.846 641.842 385.082 667.98 378.122C681.33 374.567 693.756 373.454 707.825 372.061C721.774 370.679 736.998 369.039 754.609 364.183L751.951 354.543ZM554.689 445.497L546.181 450.752C549.744 456.522 555.597 458.027 560.136 457.892C564.263 457.769 568.308 456.366 571.476 455.009C577.842 452.283 584.943 447.766 588.866 445.474C589.939 444.847 590.756 444.391 591.37 444.08C592.121 443.698 592.061 443.796 591.523 443.936C591.286 443.997 590.204 444.275 588.696 444.12C586.999 443.945 584.049 443.095 581.971 440.159C580.101 437.516 580.185 434.894 580.279 433.938C580.383 432.889 580.652 432.223 580.675 432.164C580.736 432.01 580.6 432.37 579.887 433.507C579.232 434.55 578.274 435.96 576.931 437.821C574.245 441.539 570.268 446.714 564.656 453.764L572.48 459.992L580.303 466.221C585.976 459.094 590.183 453.631 593.145 449.53C595.866 445.761 598.192 442.277 599.295 439.466C599.602 438.682 600.033 437.423 600.183 435.899C600.324 434.47 600.34 431.493 598.296 428.606C596.045 425.425 592.816 424.438 590.743 424.225C588.859 424.031 587.305 424.368 586.507 424.575C584.848 425.005 583.314 425.739 582.311 426.248C581.17 426.828 579.952 427.519 578.778 428.205C573.714 431.163 568.454 434.547 563.604 436.623C561.164 437.668 559.885 437.891 559.541 437.901C559.468 437.903 560.031 437.869 560.885 438.247C561.864 438.68 562.69 439.421 563.197 440.242L554.689 445.497ZM572.48 459.992L573.711 450.068C546.688 446.714 514.017 460.381 481.153 481.135C447.742 502.233 411.982 532.063 378.085 564.332C310.446 628.722 248.696 704.312 226.659 742.755L235.335 747.729L244.011 752.702C264.695 716.619 324.92 642.556 391.875 578.817C425.275 547.022 459.966 518.168 491.831 498.045C524.243 477.578 551.674 467.486 571.248 469.916L572.48 459.992ZM235.335 747.729L233.638 757.583L255.988 761.432L257.685 751.577L259.382 741.722L237.032 737.874L235.335 747.729ZM257.685 751.577L248.397 747.87C230.304 793.192 209.41 830.218 191.806 863.502C174.444 896.331 159.805 926.315 156.272 955.954L166.202 957.138L176.132 958.321C179.161 932.913 191.92 906.067 209.486 872.853C226.811 840.094 248.377 801.863 266.972 755.285L257.685 751.577ZM166.202 957.138L156.227 956.439C153.874 990.035 149.174 1030.57 144.42 1074.08C139.679 1117.45 134.905 1163.61 132.49 1207.97C130.078 1252.28 129.994 1295.18 134.76 1332C139.489 1368.52 149.169 1400.59 167.535 1421.83L175.099 1415.28L182.662 1408.74C168.201 1392.02 159.17 1364.77 154.595 1329.43C150.057 1294.38 150.075 1252.88 152.46 1209.06C154.843 1165.29 159.562 1119.61 164.301 1076.25C169.026 1033.02 173.79 991.934 176.178 957.836L166.202 957.138ZM175.099 1415.28L165.149 1414.28L158.783 1477.67L168.733 1478.67L178.683 1479.67L185.049 1416.28L175.099 1415.28ZM168.733 1478.67L159.795 1483.15C168.143 1499.79 175.801 1519.86 187.414 1537.35L195.745 1531.82L204.076 1526.29C193.291 1510.05 187.352 1493.48 177.671 1474.18L168.733 1478.67ZM195.745 1531.82L194.944 1521.85L180.33 1523.03L181.131 1533L181.932 1542.96L196.546 1541.79L195.745 1531.82ZM181.131 1533L171.599 1536.02C188.878 1590.52 202.609 1619.67 215.561 1635.42C222.27 1643.58 228.993 1648.44 236.084 1651.24C242.891 1653.94 249.481 1654.46 254.556 1654.95C259.878 1655.47 264.118 1655.97 268.65 1657.75C273.06 1659.49 278.305 1662.69 284.645 1669.38C297.665 1683.13 314.516 1710.7 337.227 1767.05L346.502 1763.31L355.777 1759.57C332.893 1702.79 314.908 1672.24 299.164 1655.63C291.121 1647.14 283.503 1642.11 275.98 1639.14C268.579 1636.23 261.819 1635.56 256.486 1635.05C250.906 1634.51 247.186 1634.13 243.443 1632.65C239.984 1631.28 235.917 1628.69 231.009 1622.72C220.727 1610.21 207.918 1584.4 190.663 1529.97L181.131 1533ZM346.502 1763.31L349.695 1753.84C343.196 1751.65 337.656 1749.67 331.453 1745.46C325.215 1741.23 317.833 1734.39 308.679 1722.03L300.643 1727.98L292.606 1733.93C302.718 1747.59 311.653 1756.19 320.223 1762.01C328.826 1767.84 336.582 1770.52 343.309 1772.79L346.502 1763.31ZM300.643 1727.98L290.709 1726.83C289.859 1734.15 292 1743.41 295.147 1752.69C298.435 1762.39 303.36 1773.61 309.406 1785.47C321.503 1809.2 338.456 1836.23 356.904 1859.96L364.799 1853.83L372.694 1847.69C355.03 1824.97 338.754 1799 327.225 1776.38C321.457 1765.07 316.971 1754.77 314.088 1746.27C311.064 1737.36 310.275 1731.73 310.576 1729.13L300.643 1727.98ZM364.799 1853.83L357.271 1847.24L341.995 1864.71L349.522 1871.29L357.05 1877.88L372.326 1860.41L364.799 1853.83ZM349.522 1871.29L340.762 1876.12C361.918 1914.55 382.98 1924.63 395.339 1935.92L402.086 1928.54L408.833 1921.16C393.306 1906.97 377.317 1901.05 358.283 1866.47L349.522 1871.29ZM402.086 1928.54L406.877 1919.76C401.897 1917.05 397.423 1915 393.488 1913.77C389.858 1912.63 385.236 1911.72 380.756 1913.03C378.28 1913.75 375.887 1915.15 374.013 1917.38C372.187 1919.54 371.291 1921.98 370.896 1924.14C370.162 1928.14 370.96 1932.23 371.905 1935.49C373.868 1942.26 378.059 1950.62 383.167 1959.44C388.379 1968.44 394.944 1978.59 402.115 1989.1C416.46 2010.14 433.542 2033.12 447.757 2052.11C462.313 2071.56 473.218 2086.02 476.104 2090.97L484.743 2085.93L493.383 2080.9C489.734 2074.63 477.661 2058.69 463.77 2040.13C449.539 2021.11 432.704 1998.46 418.639 1977.84C411.606 1967.52 405.342 1957.82 400.474 1949.42C395.502 1940.83 392.363 1934.23 391.115 1929.92C390.453 1927.64 390.676 1927.15 390.569 1927.74C390.486 1928.19 390.204 1929.2 389.313 1930.26C388.375 1931.37 387.239 1931.97 386.363 1932.22C385.083 1932.6 385.035 1932.08 387.524 1932.86C389.707 1933.54 392.896 1934.92 397.295 1937.32L402.086 1928.54ZM484.743 2085.93L493.462 2090.83L504.992 2070.3L496.273 2065.4L487.555 2060.51L476.024 2081.03L484.743 2085.93ZM496.273 2065.4L486.289 2064.84C485.304 2082.32 491.592 2101.19 502.824 2121.7C514.116 2142.32 530.986 2165.62 552.543 2192.22L560.312 2185.92L568.08 2179.63C546.774 2153.34 530.793 2131.13 520.366 2112.09C509.878 2092.94 505.579 2078 506.258 2065.97L496.273 2065.4ZM560.312 2185.92L560.705 2195.92L596.375 2194.51L595.982 2184.52L595.588 2174.53L559.918 2175.93L560.312 2185.92ZM595.982 2184.52L587.059 2189.03C595.209 2205.14 613.352 2226.51 633.192 2244C643.216 2252.84 653.986 2260.97 664.556 2267.1C674.956 2273.14 685.968 2277.73 696.307 2278.51L697.062 2268.54L697.816 2258.57C691.85 2258.12 683.912 2255.22 674.599 2249.81C665.456 2244.5 655.751 2237.23 646.418 2229C627.546 2212.36 611.454 2192.95 604.904 2180L595.982 2184.52ZM697.062 2268.54L689.122 2262.46L667.435 2290.78L675.374 2296.86L683.313 2302.94L705.001 2274.62L697.062 2268.54ZM675.374 2296.86L672.355 2306.39C692.47 2312.77 704.523 2317.93 712.888 2322.5C721.157 2327.02 726.081 2331.09 732.278 2336.04C745.549 2346.64 761.193 2358.16 812.401 2376.28L815.737 2366.85L819.074 2357.43C769.666 2339.94 756.052 2329.43 744.756 2320.41C738.669 2315.55 732.484 2310.42 722.483 2304.95C712.578 2299.54 699.201 2293.92 678.394 2287.33L675.374 2296.86ZM815.737 2366.85L824.441 2361.93L804.141 2326.05L795.438 2330.97L786.734 2335.89L807.034 2371.78L815.737 2366.85ZM795.438 2330.97L788.883 2338.52C814.255 2360.54 829.839 2380.19 850.217 2400.71C870.292 2420.92 893.301 2439.94 930.783 2457.59L935.043 2448.54L939.303 2439.49C904.348 2423.03 883.201 2405.53 864.406 2386.61C845.913 2368 827.913 2345.92 801.992 2323.42L795.438 2330.97ZM935.043 2448.54L931.75 2457.98C982.634 2475.73 1011.66 2481.14 1040.86 2485.8C1069.63 2490.4 1098.19 2494.23 1149.09 2508.79L1151.84 2499.17L1154.59 2489.56C1102.41 2474.63 1072.78 2470.65 1044.01 2466.05C1015.68 2461.53 987.846 2456.36 938.336 2439.1L935.043 2448.54ZM1151.84 2499.17L1152.13 2489.18C1108.16 2487.9 1061.07 2487.51 1016.11 2484.36C971.127 2481.21 929.29 2475.34 896.077 2463.46L892.709 2472.88L889.341 2482.29C925.19 2495.12 969.235 2501.13 1014.71 2504.31C1060.21 2507.5 1108.16 2507.91 1151.55 2509.17L1151.84 2499.17ZM892.709 2472.88L895.323 2463.23C662.362 2400.13 438.59 2231.65 276.921 2007.82C115.295 1784.04 16.3344 1505.74 31.9515 1223.76L21.9668 1223.21L11.9821 1222.66C-3.93056 1509.97 96.8805 1792.7 260.708 2019.53C424.493 2246.29 651.858 2418 890.095 2482.53L892.709 2472.88ZM21.9668 1223.21L31.947 1222.58C28.3513 1165.51 31.1926 1101.32 32.5769 1047C33.2646 1020.01 33.5928 995.352 32.511 975.566C31.97 965.671 31.0646 956.738 29.6031 949.201C28.1809 941.866 26.0644 934.911 22.5486 929.658L14.2383 935.221L5.92802 940.783C7.21312 942.703 8.71183 946.525 9.96883 953.008C11.1866 959.289 12.0246 967.215 12.5409 976.658C13.5736 995.549 13.2718 1019.48 12.5833 1046.49C11.2151 1100.18 8.31899 1165.63 11.9866 1223.84L21.9668 1223.21ZM14.2383 935.221L23.7975 938.157C50.7615 850.374 81.7361 744.161 144.106 617.713L135.138 613.289L126.169 608.865C62.9875 736.96 31.5952 844.657 4.67912 932.284L14.2383 935.221ZM135.138 613.289L143.963 608.587C143.623 607.948 143.368 607.496 143.232 607.254C143.128 607.069 143.187 607.17 143.261 607.314C143.289 607.369 143.345 607.479 143.412 607.623C143.468 607.743 143.601 608.031 143.74 608.414C143.798 608.575 144.235 609.719 144.321 611.256C144.362 611.994 144.4 613.908 143.386 616.064C142.11 618.777 139.609 620.898 136.452 621.581C133.941 622.123 131.949 621.549 131.188 621.296C130.278 620.993 129.612 620.624 129.284 620.432C128.62 620.042 128.155 619.661 128.019 619.549C127.822 619.388 127.676 619.255 127.609 619.193C127.533 619.123 127.477 619.068 127.451 619.043C127.433 619.025 127.34 618.934 127.542 619.136C127.796 619.389 128.219 619.805 128.779 620.291C130.977 622.198 135.391 625.279 141.887 625.734C155.307 626.673 169.843 616.428 186.001 588.894L177.377 583.833L168.752 578.772C152.994 605.623 144.14 605.843 143.284 605.783C142.642 605.738 142.196 605.453 141.887 605.185C141.82 605.127 141.764 605.073 141.685 604.995C141.656 604.965 141.641 604.95 141.593 604.902C141.564 604.872 141.481 604.789 141.391 604.701C141.347 604.659 141.074 604.391 140.714 604.095C140.564 603.972 140.088 603.583 139.415 603.187C139.082 602.992 138.412 602.621 137.499 602.318C136.735 602.064 134.74 601.489 132.227 602.032C129.068 602.715 126.565 604.837 125.288 607.552C124.273 609.71 124.311 611.627 124.352 612.369C124.438 613.913 124.878 615.068 124.942 615.243C125.183 615.907 125.454 616.419 125.479 616.469C125.611 616.725 125.765 616.996 125.794 617.048C125.924 617.279 126.085 617.564 126.312 617.992L135.138 613.289ZM177.377 583.833L186.478 587.976C206.444 544.114 221.448 499.041 245.531 458.254L236.92 453.17L228.309 448.086C203.591 489.949 187.016 538.52 168.276 579.69L177.377 583.833ZM236.92 453.17L239.192 462.908L251.731 459.983L249.459 450.244L247.187 440.506L234.648 443.432L236.92 453.17ZM249.459 450.244L259.314 451.941C262.005 436.313 272.85 417.305 289.889 395.982C306.721 374.919 328.66 352.726 351.967 330.774C375.294 308.803 399.577 287.453 421.297 267.772C442.786 248.299 461.953 230.297 474.195 215.594L466.51 209.195L458.825 202.797C447.625 216.248 429.508 233.341 407.867 252.951C386.456 272.354 361.761 294.076 338.255 316.215C314.729 338.373 291.981 361.327 274.265 383.497C256.755 405.408 243.191 427.72 239.604 448.547L249.459 450.244ZM466.51 209.195L456.621 210.682L459.854 232.189L469.743 230.702L479.632 229.215L476.399 207.709L466.51 209.195ZM469.743 230.702L476.583 237.997C526.59 191.107 596.622 151.572 667.602 117.886C738.901 84.0485 809.008 57.0384 861.215 33.7456L857.141 24.6133L853.066 15.481C802.592 38.0005 730.171 66.0537 659.027 99.8173C587.565 133.732 515.238 174.335 462.903 223.407L469.743 230.702ZM857.141 24.6133L849.72 17.9102C847.784 20.0537 846.072 22.227 844.782 24.4116C843.562 26.4758 842.243 29.3396 842.125 32.6951C841.987 36.6255 843.546 40.3295 846.566 42.9494C849.135 45.1772 852.118 46.0691 854.254 46.49C858.534 47.3334 863.76 47.0741 868.801 46.5268C874.098 45.9517 880.28 44.9201 886.943 43.6674C914.135 38.5547 950.446 29.6589 981.091 27.797L980.484 17.8154L979.878 7.83383C947.565 9.79699 908.727 19.2212 883.247 24.0118C876.742 25.2348 871.161 26.153 866.642 26.6436C861.867 27.1621 859.223 27.0844 858.121 26.8674C857.566 26.7581 858.482 26.8093 859.671 27.8411C861.313 29.2651 862.182 31.4179 862.113 33.397C862.064 34.8013 861.57 35.3138 862.003 34.582C862.364 33.9706 863.128 32.9032 864.562 31.3164L857.141 24.6133ZM800.066 1420.29L797.943 1430.06C797.682 1430.01 798.119 1430.06 799.414 1430.89C800.622 1431.66 802.171 1432.83 804.082 1434.49C807.913 1437.81 812.562 1442.52 817.985 1448.41C828.926 1460.3 841.763 1475.58 856.304 1492.02C870.627 1508.22 886.268 1525.14 901.987 1539.27C917.534 1553.24 933.991 1565.25 950.012 1570.68L953.222 1561.21L956.431 1551.74C944.361 1547.65 930.367 1537.88 915.355 1524.39C900.515 1511.05 885.487 1494.83 871.285 1478.77C857.299 1462.96 843.751 1446.88 832.7 1434.87C827.126 1428.81 821.876 1423.45 817.189 1419.38C812.934 1415.69 807.666 1411.71 802.19 1410.52L800.066 1420.29ZM953.222 1561.21L959.476 1553.4C927.469 1527.75 902.454 1494.9 878.775 1460.23L870.517 1465.87L862.259 1471.51C886.182 1506.54 912.555 1541.43 946.968 1569.01L953.222 1561.21ZM870.517 1465.87L862.972 1472.43C908.684 1524.98 964.352 1567.99 1025.3 1596.53L1029.55 1587.48L1033.79 1578.42C975.544 1551.14 922.081 1509.91 878.062 1459.3L870.517 1465.87ZM1029.55 1587.48L1039.21 1584.92C1038.7 1582.97 1039.12 1582.86 1041.29 1577.26L1031.97 1573.64L1022.65 1570.01C1021.77 1572.29 1017.27 1580.15 1019.88 1590.03L1029.55 1587.48ZM1031.97 1573.64L1022.05 1574.84C1022.5 1578.59 1024.38 1581.87 1025.94 1584.17C1027.66 1586.7 1029.88 1589.31 1032.33 1591.87C1037.26 1597.01 1043.82 1602.72 1051.1 1608.42C1065.68 1619.84 1084.03 1631.91 1100 1640.13L1104.58 1631.24L1109.15 1622.35C1094.47 1614.79 1077.17 1603.44 1063.43 1592.68C1056.56 1587.3 1050.8 1582.24 1046.78 1578.04C1044.76 1575.93 1043.35 1574.21 1042.48 1572.93C1041.45 1571.41 1041.77 1571.37 1041.9 1572.43L1031.97 1573.64ZM1104.58 1631.24L1101.11 1640.62C1183.68 1671.14 1276.52 1672.21 1348.43 1669.56L1348.06 1659.57L1347.7 1649.57C1276.14 1652.21 1186.69 1650.93 1108.05 1621.86L1104.58 1631.24ZM1348.06 1659.57L1344.21 1650.34C1270.44 1681.19 1160.84 1665.95 1056.26 1620.11C951.986 1574.41 855.818 1499.6 808.797 1415.42L800.066 1420.29L791.336 1425.17C841.169 1514.39 941.479 1591.64 1048.23 1638.43C1154.68 1685.09 1270.64 1702.78 1351.92 1668.79L1348.06 1659.57ZM1032.78 1571.09L1023.03 1568.89C1022.98 1569.08 1022.88 1569.42 1022.65 1570.01L1031.97 1573.64L1041.29 1577.26C1041.72 1576.16 1042.19 1574.81 1042.54 1573.29L1032.78 1571.09ZM1031.97 1573.64L1041.9 1572.43C1041.97 1572.99 1041.99 1573.98 1041.62 1575.17C1041.23 1576.44 1040.5 1577.57 1039.56 1578.44L1032.78 1571.09L1026 1563.74C1022.43 1567.04 1021.63 1571.38 1022.05 1574.84L1031.97 1573.64ZM747.89 1377.24L739.01 1381.84C756.273 1415.16 769.614 1436.94 781.713 1456.43C793.783 1475.86 804.459 1492.77 816.742 1516.75L825.643 1512.19L834.543 1507.63C821.826 1482.8 810.716 1465.22 798.704 1445.88C786.721 1426.58 773.687 1405.3 756.769 1372.64L747.89 1377.24ZM825.643 1512.19L832.038 1504.5C815.605 1490.84 802.09 1474.37 789.151 1456.41C782.676 1447.42 776.427 1438.18 770.003 1428.73C763.611 1419.33 757.065 1409.76 750.139 1400.35L742.086 1406.28L734.033 1412.21C740.711 1421.28 747.068 1430.57 753.464 1439.98C759.829 1449.34 766.253 1458.84 772.923 1468.1C786.273 1486.63 800.933 1504.65 819.248 1519.88L825.643 1512.19ZM742.086 1406.28L751.892 1408.24L757.696 1379.2L747.89 1377.24L738.084 1375.28L732.28 1404.32L742.086 1406.28ZM779.767 1320.5L770.819 1324.97C780.047 1343.46 789.257 1364.21 804.819 1381.42L812.235 1374.71L819.652 1368C806.397 1353.34 798.556 1335.76 788.715 1316.04L779.767 1320.5ZM812.235 1374.71L802.766 1377.92L815.51 1415.48L824.98 1412.27L834.449 1409.06L821.705 1371.5L812.235 1374.71ZM824.98 1412.27L833.58 1407.17C815.85 1377.28 798.097 1349.82 789.417 1317.88L779.767 1320.5L770.117 1323.13C779.686 1358.34 799.298 1388.58 816.379 1417.37L824.98 1412.27ZM1950.73 1127.26L1940.81 1125.97C1929.91 1209.79 1903.88 1292.5 1863.66 1368.12L1872.49 1372.82L1881.32 1377.51C1922.69 1299.74 1949.44 1214.71 1960.65 1128.55L1950.73 1127.26ZM1872.49 1372.82L1881.4 1377.34C1918.84 1303.65 1943.25 1224.18 1954.55 1143.9L1944.65 1142.51L1934.75 1141.11C1923.74 1219.29 1899.98 1296.62 1863.57 1368.29L1872.49 1372.82ZM1944.65 1142.51L1953.94 1146.21L1960.02 1130.96L1950.73 1127.26L1941.44 1123.55L1935.36 1138.8L1944.65 1142.51ZM1302.35 1315.11L1295.46 1307.86C1282.75 1319.93 1269.46 1331.38 1255.63 1342.16L1261.79 1350.05L1267.94 1357.93C1282.27 1346.75 1296.05 1334.88 1309.23 1322.36L1302.35 1315.11ZM1261.79 1350.05L1263.31 1340.16C1236.81 1336.08 1211.95 1329 1199.17 1323.21C1195.96 1321.75 1194.03 1320.6 1193.11 1319.9C1192.63 1319.53 1192.85 1319.6 1193.26 1320.19C1193.65 1320.76 1194.85 1322.8 1194.35 1325.75C1193.84 1328.82 1191.91 1330.43 1191.17 1330.93C1190.48 1331.39 1190.2 1331.36 1190.91 1331.18C1192.28 1330.83 1195.12 1330.45 1200.03 1330.39L1199.89 1320.39L1199.75 1310.39C1194.32 1310.46 1189.63 1310.86 1185.98 1311.79C1184.18 1312.25 1182.01 1312.99 1180.02 1314.32C1177.97 1315.7 1175.33 1318.29 1174.63 1322.44C1173.95 1326.47 1175.51 1329.68 1176.76 1331.5C1178.02 1333.34 1179.61 1334.74 1180.94 1335.77C1183.64 1337.84 1187.17 1339.72 1190.91 1341.42C1205.91 1348.23 1232.7 1355.69 1260.27 1359.93L1261.79 1350.05ZM1199.89 1320.39L1198.98 1330.35C1234.09 1333.55 1269.57 1333.44 1304.73 1324.82L1302.35 1315.11L1299.97 1305.4C1267.78 1313.28 1234.73 1313.53 1200.8 1310.43L1199.89 1320.39ZM1471.13 1155.16L1461.26 1153.53C1455.34 1189.56 1438.62 1224.84 1415.18 1257.56L1423.31 1263.39L1431.44 1269.21C1456.13 1234.74 1474.44 1196.62 1481 1156.78L1471.13 1155.16ZM1423.31 1263.39L1415.18 1257.56L1414.03 1259.16L1422.16 1264.99L1430.28 1270.82L1431.43 1269.21L1423.31 1263.39ZM1422.16 1264.99L1432.1 1266.02C1432.69 1260.31 1431.51 1254.95 1427.98 1250.62C1424.76 1246.66 1420.48 1244.71 1417.4 1243.59C1414.81 1242.65 1410.51 1241.52 1409.09 1241.07C1408.01 1240.73 1407.23 1240.44 1406.65 1240.17C1406.38 1240.04 1406.18 1239.93 1406.05 1239.85C1405.93 1239.77 1405.88 1239.73 1405.88 1239.73C1406.24 1240.04 1406.26 1240.54 1406.25 1240.08C1406.22 1239.06 1406.55 1236.47 1408.79 1231.45C1413.26 1221.42 1423.69 1205.23 1444.43 1179.12L1436.6 1172.9L1428.77 1166.68C1407.9 1192.95 1396.09 1210.81 1390.52 1223.3C1387.74 1229.53 1386.1 1235.32 1386.25 1240.64C1386.42 1246.53 1388.77 1251.34 1392.71 1254.79C1396.16 1257.8 1400.29 1259.27 1403.12 1260.16C1406.89 1261.34 1408.14 1261.51 1410.56 1262.39C1412.49 1263.09 1412.67 1263.48 1412.47 1263.24C1411.97 1262.62 1412.37 1262.36 1412.21 1263.97L1422.16 1264.99ZM1436.6 1172.9L1426.89 1170.52C1425.51 1176.17 1420.66 1185.24 1414.09 1196.21C1407.99 1206.42 1400.57 1218.02 1396 1226.9C1393.78 1231.22 1391.59 1236.05 1390.85 1240.4C1390.49 1242.53 1390.23 1245.91 1391.71 1249.33C1393.51 1253.48 1397.08 1255.91 1400.9 1256.72C1404.12 1257.41 1407.28 1256.91 1409.74 1256.29C1412.36 1255.63 1415.22 1254.54 1418.26 1253.16C1424.34 1250.41 1432.16 1246.01 1441.98 1239.83L1436.65 1231.36L1431.32 1222.9C1421.8 1228.9 1414.87 1232.74 1410 1234.95C1407.56 1236.05 1405.89 1236.63 1404.83 1236.9C1403.6 1237.21 1403.92 1236.92 1405.05 1237.16C1406.77 1237.52 1408.97 1238.87 1410.06 1241.36C1410.82 1243.13 1410.48 1244.3 1410.57 1243.74C1410.75 1242.7 1411.62 1240.25 1413.78 1236.06C1417.97 1227.92 1424.6 1217.61 1431.26 1206.48C1437.46 1196.11 1444.08 1184.39 1446.32 1175.28L1436.6 1172.9ZM1436.65 1231.36L1445.37 1236.25C1459 1211.95 1475.01 1186.54 1480.93 1157.13L1471.13 1155.16L1461.33 1153.18C1456.18 1178.71 1442.36 1200.73 1427.93 1226.47L1436.65 1231.36ZM1927.13 1115.71L1936.82 1113.22C1936.66 1112.62 1936.51 1112.01 1936.36 1111.39L1926.65 1113.76L1916.93 1116.14C1917.1 1116.81 1917.27 1117.5 1917.45 1118.2L1927.13 1115.71ZM1926.65 1113.76L1916.96 1116.24C1917.12 1116.86 1917.27 1117.47 1917.42 1118.07L1927.13 1115.71L1936.85 1113.35C1936.68 1112.65 1936.51 1111.96 1936.33 1111.28L1926.65 1113.76ZM1482.9 1028.97L1492.64 1031.23C1494.14 1024.78 1496.34 1018.83 1498.54 1014.71C1499.66 1012.61 1500.58 1011.38 1501.11 1010.82C1501.93 1009.96 1500.92 1011.52 1498.16 1011.59C1496.55 1011.63 1495.09 1011.12 1494.02 1010.37C1493.54 1010.04 1493.22 1009.71 1493.03 1009.49C1492.85 1009.28 1492.76 1009.13 1492.76 1009.13C1492.76 1009.12 1492.81 1009.21 1492.9 1009.43C1492.99 1009.65 1493.1 1009.96 1493.23 1010.39C1493.49 1011.25 1493.77 1012.46 1494.03 1014.09C1495.1 1020.79 1495.45 1032.41 1494.21 1050.83L1504.19 1051.5L1514.17 1052.17C1515.44 1033.3 1515.21 1019.9 1513.78 1010.95C1513.09 1006.56 1511.98 1002.4 1510.04 999.063C1508.03 995.61 1504.01 991.439 1497.65 991.6C1492.33 991.735 1488.58 994.977 1486.62 997.037C1484.38 999.392 1482.48 1002.33 1480.9 1005.28C1477.71 1011.25 1474.97 1018.92 1473.16 1026.7L1482.9 1028.97ZM1504.19 1051.5L1494.49 1049.09C1494.07 1050.75 1493.7 1052 1493.38 1052.91C1493.22 1053.36 1493.08 1053.69 1492.98 1053.93C1492.93 1054.05 1492.89 1054.14 1492.86 1054.2C1492.82 1054.26 1492.81 1054.28 1492.81 1054.28C1492.81 1054.28 1492.83 1054.24 1492.88 1054.17C1492.93 1054.1 1493.01 1054 1493.12 1053.86C1493.34 1053.6 1493.76 1053.15 1494.42 1052.69C1495.99 1051.61 1498.37 1050.86 1501 1051.45C1503.18 1051.94 1504.38 1053.11 1504.65 1053.39C1504.99 1053.74 1505.03 1053.88 1504.82 1053.53C1504.4 1052.82 1503.78 1051.49 1502.98 1049.4C1502.2 1047.37 1501.4 1045.06 1500.52 1042.51C1499.66 1040.04 1498.74 1037.34 1497.78 1034.83C1496.84 1032.37 1495.73 1029.73 1494.46 1027.45C1493.45 1025.64 1491.3 1022.06 1487.5 1020.09L1482.9 1028.97L1478.3 1037.84C1476.42 1036.88 1476.16 1035.69 1476.99 1037.19C1477.56 1038.21 1478.26 1039.79 1479.1 1041.97C1479.91 1044.11 1480.73 1046.48 1481.61 1049.03C1482.46 1051.51 1483.38 1054.17 1484.31 1056.59C1485.22 1058.94 1486.31 1061.52 1487.61 1063.71C1488.26 1064.81 1489.15 1066.15 1490.35 1067.37C1491.49 1068.54 1493.56 1070.28 1496.61 1070.96C1504.44 1072.72 1508.83 1066.52 1510.09 1064.35C1511.73 1061.54 1512.91 1057.88 1513.9 1053.91L1504.19 1051.5ZM22.1719 724.731L12.3958 722.627C7.22967 746.626 5.14536 769.238 -7.61937 808.417L1.88871 811.515L11.3968 814.612C24.5784 774.154 27.193 748.925 31.948 726.836L22.1719 724.731ZM1.88871 811.515L11.8158 812.72C12.901 803.781 12.3056 796.421 11.5409 790.053C10.7458 783.432 9.9526 778.896 10.0021 773.713C10.0889 764.614 12.9092 752.8 30.048 730.893L22.1719 724.731L14.2959 718.57C-4.42503 742.499 -9.85354 758.485 -9.99703 773.523C-10.0627 780.408 -8.96646 787.025 -8.31646 792.437C-7.63615 798.103 -7.23085 803.657 -8.03841 810.31L1.88871 811.515ZM68.3858 538.581L58.6504 540.866C59.6975 545.327 62.4004 549.38 67.0933 551.44C71.0116 553.161 74.9197 552.818 77.1754 552.485C79.5255 552.137 82.0663 551.443 83.4803 551.09C84.3223 550.88 84.9427 550.738 85.4495 550.645C85.9699 550.551 86.1357 550.554 86.0657 550.554C85.9842 550.555 83.3139 550.506 81.3908 547.869C79.9258 545.86 80.5518 544.464 80.3363 546.467C79.9319 550.226 77.4739 558.43 70.3192 574.547L79.459 578.604L88.5989 582.662C95.6894 566.69 99.4416 555.856 100.222 548.606C100.598 545.104 100.56 540.211 97.5504 536.084C94.0827 531.329 88.9876 530.541 85.9772 530.555C83.1377 530.567 80.3071 531.269 78.6395 531.685C76.4925 532.22 75.3442 532.538 74.2535 532.699C73.0684 532.874 73.7838 532.535 75.1339 533.128C77.2585 534.061 78.0175 535.854 78.1212 536.296L68.3858 538.581ZM79.459 578.604L73.7286 570.409C59.7081 580.213 52.1492 586.282 48.9551 588.719C48.0254 589.428 47.921 589.474 48.1467 589.339C48.2454 589.281 48.5567 589.098 49.0104 588.898C49.2989 588.772 50.5043 588.24 52.1911 588.124C54.0372 587.996 58.3428 588.373 61.11 592.51C63.2677 595.735 62.76 598.928 62.6633 599.536C62.501 600.556 62.2118 601.289 62.1249 601.506C62.0052 601.804 61.9039 602.005 61.8768 602.059C61.8256 602.16 61.8307 602.14 61.9757 601.895C62.2994 601.347 62.6411 600.804 63.3316 599.662C68.4064 591.269 80.6528 569.451 78.3595 537.857L68.3858 538.581L58.412 539.305C60.2646 564.827 50.444 582.323 46.217 589.314C45.7449 590.094 45.1233 591.101 44.7594 591.716C44.5605 592.053 44.2907 592.518 44.043 593.006C43.9726 593.144 43.2026 594.565 42.9116 596.394C42.7998 597.097 42.2991 600.36 44.4868 603.631C47.2841 607.812 51.6429 608.209 53.5667 608.076C55.3311 607.955 56.6384 607.392 57.0544 607.21C57.6356 606.954 58.0999 606.69 58.3784 606.524C59.3234 605.961 60.3661 605.169 61.0873 604.619C64.4974 602.017 71.6063 596.298 85.1895 586.8L79.459 578.604ZM68.0713 535.071L58.1293 536.146C58.243 537.198 58.3354 538.25 58.412 539.305L68.3858 538.581L78.3595 537.857C78.2684 536.601 78.1558 535.313 78.0134 533.996L68.0713 535.071ZM68.3858 538.581L78.1212 536.296C78.1301 536.334 78.0568 536.031 78.07 535.237L68.0713 535.071L58.0727 534.906C58.0397 536.898 58.1915 538.911 58.6504 540.866L68.3858 538.581ZM1085.93 46.459L1085.05 36.4983L1070.51 37.7913L1071.4 47.752L1072.29 57.7126L1086.82 56.4196L1085.93 46.459ZM1071.4 47.752L1073.43 57.5442L1089.04 54.3108L1087.01 44.5186L1084.99 34.7263L1069.37 37.9597L1071.4 47.752ZM1087.01 44.5186L1078.28 39.6517L1077.2 41.5921L1085.93 46.459L1094.67 51.3259L1095.75 49.3854L1087.01 44.5186ZM1042.87 32.2402L1042.58 42.2362C1060.96 42.7584 1074.23 43.45 1083.43 44.2599C1088.03 44.6654 1091.49 45.0896 1093.98 45.5106C1095.23 45.7205 1096.16 45.9161 1096.82 46.0846C1097.52 46.2629 1097.73 46.3619 1097.63 46.3191C1097.57 46.2926 1097.31 46.1764 1096.95 45.9377C1096.61 45.7106 1095.96 45.2413 1095.3 44.4486C1093.62 42.4668 1092.45 39.1092 1093.7 35.5428C1094.6 32.9819 1096.29 31.7904 1096.45 31.672C1096.83 31.3944 1096.98 31.3683 1096.61 31.5317C1094.92 32.2888 1091.01 33.4055 1084.87 34.7504L1087.01 44.5186L1089.16 54.2867C1095.11 52.9818 1100.95 51.501 1104.78 49.7868C1105.8 49.3325 1107.06 48.6964 1108.26 47.8179C1109.24 47.0987 1111.46 45.3153 1112.57 42.1728C1114.02 38.0247 1112.73 34.0957 1110.58 31.5538C1108.9 29.5581 1106.86 28.5332 1105.74 28.0383C1103.33 26.9682 1100.32 26.2969 1097.31 25.7887C1094.09 25.2466 1090.06 24.7669 1085.18 24.337C1075.4 23.4762 1061.68 22.7709 1043.15 22.2443L1042.87 32.2402ZM1087.01 44.5186L1095.28 50.1495C1096.35 48.5724 1097.32 46.3745 1097.35 43.6902C1097.39 40.9781 1096.47 38.7142 1095.36 37.0605C1093.42 34.1864 1090.62 32.6674 1089.1 31.9348C1085.7 30.281 1081.1 29.0828 1076.72 28.1209C1067.78 26.1588 1055.14 24.2843 1044.63 22.3976L1042.87 32.2402L1041.1 42.0829C1052.69 44.1629 1063.93 45.7897 1072.43 47.6562C1076.77 48.6085 1079.3 49.4064 1080.38 49.9296C1081.11 50.2855 1079.89 49.9002 1078.76 48.2174C1078.05 47.1593 1077.33 45.5055 1077.35 43.4194C1077.38 41.3611 1078.13 39.8052 1078.75 38.8876L1087.01 44.5186ZM1149.59 0L1147.37 -9.7514C1133.56 -6.61417 1117.06 -6.10767 1099.12 -5.10966C1081.85 -4.14912 1063.2 -2.72265 1047.6 2.99249L1051.04 12.3818L1054.49 21.7712C1066.89 17.2262 1082.65 15.8371 1100.23 14.8595C1117.13 13.9193 1135.9 13.3649 1151.8 9.7514L1149.59 0ZM1051.04 12.3818L1052.4 2.47368L1035.64 0.186569L1034.29 10.0947L1032.93 20.0029L1049.69 22.29L1051.04 12.3818ZM1034.29 10.0947L1035.57 20.0124C1073.33 15.1361 1111.24 13.2526 1150.42 9.96498L1149.59 0L1148.75 -9.96498C1110.49 -6.75418 1071.34 -4.7731 1033.01 0.177057L1034.29 10.0947Z" fill="white" mask="url(#path-1-inside-1_1_13)"/>
</g>
<defs>
<filter id="filter0_d_1_13" x="0" y="0" width="4078.82" height="2507.17" filterUnits="userSpaceOnUse" color-interpolation-filters="sRGB">
<feFlood flood-opacity="0" result="BackgroundImageFix"/>
<feColorMatrix in="SourceAlpha" type="matrix" values="0 0 0 0 0 0 0 0 0 0 0 0 0 0 0 0 0 0 127 0" result="hardAlpha"/>
<feOffset dx="4" dy="4"/>
<feGaussianBlur stdDeviation="2"/>
<feComposite in2="hardAlpha" operator="out"/>
<feColorMatrix type="matrix" values="0 0 0 0 0 0 0 0 0 0 0 0 0 0 0 0 0 0 0.25 0"/>
<feBlend mode="normal" in2="BackgroundImageFix" result="effect1_dropShadow_1_13"/>
<feBlend mode="normal" in="SourceGraphic" in2="effect1_dropShadow_1_13" result="shape"/>
</filter>
</defs>
</svg>
