<svg width="1440" height="673" viewBox="0 0 1440 673" fill="none" xmlns="http://www.w3.org/2000/svg">
<g opacity="0.4">
<path opacity="0.11" d="M596.42 374.045C605.033 363.185 615.812 357.229 626.772 357.229C637.733 357.229 648.502 363.185 657.025 373.911L678.255 401.431C617.24 487.602 564.882 561.146 553.358 577.326L389.577 634.486L596.42 374.045ZM359 672.997L362.466 668.623L574.027 594.79L576.364 591.511C579.202 587.534 860.937 192.101 921.386 100.577C943.444 67.164 959.989 62 968.076 62H968.44C984.067 62.3109 998.311 80.7948 1002.04 87.2105L1116.84 287.495C1116 288.442 1115.12 289.339 1114.31 290.349L863.271 606.485L1139 302.197C1156.23 280.499 1182.46 280.499 1199.69 302.197L1450.73 618.314L1507 673L359 672.997Z" fill="url(#paint0_radial_481_14981)"/>
</g>
<defs>
<radialGradient id="paint0_radial_481_14981" cx="0" cy="0" r="1" gradientUnits="userSpaceOnUse" gradientTransform="translate(933 367.5) rotate(90) scale(305.5 574)">
<stop stop-color="#443F51" stop-opacity="0"/>
<stop offset="1" stop-color="#443F51"/>
</radialGradient>
</defs>
</svg>
