<svg
        width="24"
        height="24"
        viewBox="0 0 24 24"
        fill="none"
        xmlns="http://www.w3.org/2000/svg"
        >
<g clipPath="url(#clip0_5185_4114)">
<path
        d="M9 17.25C9 17.25 8.25 20.25 3.75 20.25C3.75 15.75 6.75 15 6.75 15"
        stroke="currentColor"
        strokeWidth="1.5"
        strokeLinecap="round"
        strokeLinejoin="round"
/>
<path
        d="M17.9166 10.5834C20.1666 8.3334 20.3072 5.65683 20.2369 4.4634C20.2252 4.2815 20.1476 4.11009 20.0188 3.98121C19.8899 3.85232 19.7185 3.77478 19.5366 3.76308C18.3431 3.69277 15.6684 3.83152 13.4166 6.0834L7.5 12L12 16.5L17.9166 10.5834Z"
        stroke="currentColor"
        strokeWidth="1.5"
        strokeLinecap="round"
        strokeLinejoin="round"
/>
<path
        d="M12.7498 6.75H6.97007C6.77142 6.75009 6.58092 6.82899 6.44038 6.96937L3.22007 10.1897C3.12174 10.2882 3.05278 10.4122 3.02091 10.5477C2.98903 10.6832 2.99549 10.8249 3.03957 10.9569C3.08365 11.089 3.1636 11.2061 3.27048 11.2953C3.37736 11.3845 3.50696 11.4422 3.64475 11.4619L7.49975 12"
        stroke="currentColor"
        strokeWidth="1.5"
        strokeLinecap="round"
        strokeLinejoin="round"
/>
<path
        d="M17.25 11.25V17.0297C17.2499 17.2283 17.171 17.4188 17.0306 17.5594L13.8103 20.7797C13.7118 20.878 13.5878 20.947 13.4523 20.9788C13.3168 21.0107 13.1751 21.0043 13.0431 20.9602C12.911 20.9161 12.7939 20.8362 12.7047 20.7293C12.6155 20.6224 12.5578 20.4928 12.5381 20.355L12 16.5"
        stroke="currentColor"
        strokeWidth="1.5"
        strokeLinecap="round"
        strokeLinejoin="round"
/>
</g>
<defs>
<clipPath id="clip0_5185_4114">
    <rect
            width="24"
            height="24"
            fill="currentColor"
    />
</clipPath>
</defs>
</svg>