<svg width="45" height="45" viewBox="0 0 45 45" fill="none" xmlns="http://www.w3.org/2000/svg">
<g clip-path="url(#clip0_11_165)">
<path d="M40.5142 4.4501C41.4399 5.34013 42.0451 6.51497 42.1875 7.79661C42.1875 8.33063 42.0451 8.68666 41.7247 9.36308C41.4043 10.0395 37.4525 16.875 36.2777 18.7618C35.6013 19.8654 35.2453 21.1827 35.2453 22.4643C35.2453 23.7816 35.6013 25.0633 36.2777 26.1669C37.4525 28.0537 41.4043 34.9248 41.7247 35.6012C42.0451 36.2776 42.1875 36.598 42.1875 37.132C42.0451 38.4137 41.4755 39.5886 40.5498 40.443C39.6598 41.3686 38.485 41.9739 37.2389 42.0806C36.7049 42.0806 36.3489 41.9382 35.7081 41.6178C35.0672 41.2974 28.0894 37.4525 26.2025 36.2776C26.0601 36.2064 25.9177 36.0996 25.7397 36.0284L16.4122 30.5102C16.6258 32.2903 17.409 33.9991 18.6906 35.2452C18.9399 35.4944 19.1891 35.708 19.4739 35.9216C19.2603 36.0284 19.0111 36.1352 18.7975 36.2776C16.9106 37.4525 10.0396 41.4042 9.36314 41.7246C8.68673 42.045 8.3663 42.1874 7.79667 42.1874C6.51503 42.045 5.34019 41.4754 4.48576 40.5498C3.56013 39.6597 2.9549 38.4849 2.8125 37.2033C2.8481 36.6693 2.99051 36.1352 3.27532 35.6724C3.59573 34.996 7.54747 28.1249 8.72229 26.2381C9.39871 25.1344 9.75475 23.8528 9.75475 22.5356C9.75475 21.2183 9.39871 19.9366 8.72229 18.833C7.54747 16.875 3.56013 10.0039 3.27532 9.32747C2.99051 8.86464 2.8481 8.33063 2.8125 7.79661C2.9549 6.51497 3.52453 5.34013 4.45016 4.4501C5.34019 3.52447 6.51503 2.95484 7.79667 2.81244C8.33069 2.84804 8.8647 2.99045 9.36314 3.27526C9.93277 3.52447 14.9525 6.44377 17.6226 8.01025L18.2279 8.36624C18.4414 8.50865 18.6195 8.61544 18.7619 8.68666L19.0467 8.86464L28.5522 14.4897C28.3386 12.3536 27.235 10.3955 25.5261 9.07827C25.7397 8.97148 25.9889 8.86464 26.2025 8.72223C28.0894 7.54741 34.9604 3.56007 35.6369 3.27526C36.0997 2.99045 36.6337 2.84804 37.2033 2.81244C38.4494 2.95484 39.6242 3.52447 40.5142 4.4501ZM22.9984 25.0276L25.0277 22.9983C25.3125 22.7135 25.3125 22.2864 25.0277 22.0015L22.9984 19.9722C22.7136 19.6874 22.2864 19.6874 22.0016 19.9722L19.9723 22.0015C19.6875 22.2864 19.6875 22.7135 19.9723 22.9983L22.0016 25.0276C22.2508 25.2768 22.7136 25.2768 22.9984 25.0276Z" fill="#FF694A"/>
</g>
<defs>
<clipPath id="clip0_11_165">
<rect width="39.375" height="39.375" fill="white" transform="translate(2.8125 2.81244)"/>
</clipPath>
</defs>
</svg>
