<svg width="45" height="45" viewBox="0 0 45 45" fill="none" xmlns="http://www.w3.org/2000/svg">
<g clip-path="url(#clip0_11_171)">
<path d="M30.2824 24.9031C28.5315 24.9031 26.9618 25.6788 25.8869 26.9001L23.1324 24.9502C23.4248 24.1451 23.5927 23.2807 23.5927 22.376C23.5927 21.4869 23.4307 20.637 23.1479 19.8439L25.8962 17.9146C26.971 19.1297 28.5365 19.9012 30.2824 19.9012C33.514 19.9012 36.1436 17.272 36.1436 14.0399C36.1436 10.8078 33.514 8.17869 30.2824 8.17869C27.0507 8.17869 24.4211 10.8078 24.4211 14.0399C24.4211 14.6185 24.5085 15.1763 24.6654 15.7046L21.9153 17.6349C20.7665 16.2097 19.1124 15.2146 17.2278 14.9108V11.5964C19.8828 11.0388 21.8833 8.67986 21.8833 5.86119C21.8833 2.62909 19.2537 -6.10352e-05 16.022 -6.10352e-05C12.7903 -6.10352e-05 10.1608 2.62909 10.1608 5.86119C10.1608 8.6421 12.1094 10.9719 14.7113 11.5694V14.9269C11.1604 15.5501 8.45129 18.6491 8.45129 22.376C8.45129 26.121 11.1872 29.2313 14.7637 29.8334V33.3787C12.1352 33.9564 10.1608 36.3006 10.1608 39.1004C10.1608 42.3325 12.7903 44.9616 16.022 44.9616C19.2537 44.9616 21.8833 42.3325 21.8833 39.1004C21.8833 36.3006 19.9088 33.9564 17.2803 33.3787V29.8333C19.0905 29.5284 20.7283 28.5759 21.8884 27.1532L24.6612 29.1158C24.5073 29.6394 24.4211 30.1917 24.4211 30.7644C24.4211 33.9965 27.0507 36.6256 30.2824 36.6256C33.514 36.6256 36.1436 33.9965 36.1436 30.7644C36.1436 27.5323 33.514 24.9031 30.2824 24.9031V24.9031ZM30.2824 11.1981C31.8495 11.1981 33.1241 12.4733 33.1241 14.0399C33.1241 15.6066 31.8495 16.8816 30.2824 16.8816C28.7153 16.8816 27.4406 15.6066 27.4406 14.0399C27.4406 12.4733 28.7153 11.1981 30.2824 11.1981V11.1981ZM13.1802 5.86119C13.1802 4.29452 14.4549 3.01948 16.022 3.01948C17.5891 3.01948 18.8637 4.29452 18.8637 5.86119C18.8637 7.42786 17.5891 8.7029 16.022 8.7029C14.4549 8.7029 13.1802 7.42786 13.1802 5.86119ZM18.8637 39.1004C18.8637 40.6671 17.5891 41.9421 16.022 41.9421C14.4549 41.9421 13.1802 40.6671 13.1802 39.1004C13.1802 37.5337 14.4549 36.2587 16.022 36.2587C17.5891 36.2587 18.8637 37.5337 18.8637 39.1004ZM16.0218 26.3392C13.8362 26.3392 12.0581 24.5615 12.0581 22.376C12.0581 20.1903 13.8362 18.4123 16.0218 18.4123C18.2073 18.4123 19.9854 20.1903 19.9854 22.376C19.9854 24.5615 18.2073 26.3392 16.0218 26.3392ZM30.2824 33.6062C28.7153 33.6062 27.4406 32.331 27.4406 30.7644C27.4406 29.1977 28.7153 27.9227 30.2824 27.9227C31.8495 27.9227 33.1241 29.1977 33.1241 30.7644C33.1241 32.331 31.8495 33.6062 30.2824 33.6062Z" fill="#231F20"/>
</g>
<defs>
<clipPath id="clip0_11_171">
<rect width="27.72" height="45" fill="white" transform="translate(8.4375 -6.10352e-05)"/>
</clipPath>
</defs>
</svg>
