<svg width="45" height="45" viewBox="0 0 45 45" fill="none" xmlns="http://www.w3.org/2000/svg">
<path d="M31.438 13.0823C28.0935 13.0823 25.0126 14.9639 22.0351 18.2516C19.1093 14.9123 15.9768 13.0823 12.4772 13.0823C6.68243 13.0823 2.45398 17.2177 2.45398 22.785C2.45398 28.3523 6.68243 32.436 12.4772 32.436C16.0388 32.436 18.7992 30.7664 21.8801 27.4374C24.8576 30.7767 27.8867 32.4464 31.438 32.4464C37.2328 32.436 41.4612 28.3678 41.4612 22.785C41.4612 17.2022 37.2328 13.0823 31.438 13.0823ZM12.5185 26.5948C10.0631 26.5948 8.60023 24.9768 8.60023 22.8367C8.60023 20.6967 10.0631 19.0322 12.5185 19.0322C14.5862 19.0322 16.2766 20.6967 18.1065 22.9401C16.38 25.0285 14.5552 26.5948 12.5185 26.5948ZM31.2623 26.5948C29.2256 26.5948 27.5042 24.9768 25.6743 22.8367C27.5559 20.5933 29.1739 19.0322 31.2623 19.0322C33.7177 19.0322 35.1651 20.7173 35.1651 22.8367C35.1651 24.9561 33.7177 26.5948 31.2623 26.5948Z" fill="#484848"/>
<path d="M26.2537 31.0542L30.1513 26.4018C28.6006 25.9366 27.1687 24.5409 25.6851 22.8092L21.8909 27.4357C23.133 28.8769 24.6078 30.0999 26.2537 31.0542Z" fill="#20A7C9"/>
<path d="M22.0403 18.2439C20.8064 16.782 19.3409 15.5315 17.7033 14.5427L13.8005 19.2467C15.2841 19.7636 16.5971 21.0973 17.9928 22.798L18.1479 22.9065L22.0403 18.2439Z" fill="#20A7C9"/>
</svg>
