<svg width="45" height="45" viewBox="0 0 45 45" fill="none" xmlns="http://www.w3.org/2000/svg">
<path d="M3.39586 19.1528C3.30823 19.1528 3.28632 19.109 3.33014 19.0432L3.79021 18.4517C3.83403 18.386 3.94357 18.3422 4.03121 18.3422H11.8525C11.9402 18.3422 11.9621 18.4079 11.9183 18.4736L11.5458 19.0432C11.502 19.109 11.3925 19.1747 11.3267 19.1747L3.39586 19.1528Z" fill="#00ACD7"/>
<path d="M0.0876339 21.1683C0 21.1683 -0.0219085 21.1245 0.0219085 21.0588L0.481986 20.4673C0.525803 20.4015 0.635346 20.3577 0.72298 20.3577H10.7132C10.8009 20.3577 10.8447 20.4235 10.8228 20.4892L10.6475 21.015C10.6256 21.1026 10.538 21.1464 10.4503 21.1464L0.0876339 21.1683Z" fill="#00ACD7"/>
<path d="M5.38951 23.1839C5.30188 23.1839 5.27997 23.1182 5.32379 23.0525L5.63051 22.5047C5.67432 22.439 5.76196 22.3733 5.84959 22.3733H10.2313C10.3189 22.3733 10.3627 22.439 10.3627 22.5266L10.3189 23.0525C10.3189 23.1401 10.2313 23.2058 10.1656 23.2058L5.38951 23.1839Z" fill="#00ACD7"/>
<path d="M28.1304 18.7584C26.7502 19.109 25.8082 19.3719 24.4498 19.7224C24.1212 19.81 24.0993 19.8319 23.8145 19.5033C23.4859 19.1309 23.2449 18.8899 22.7848 18.6708C21.4045 17.9916 20.0681 18.1888 18.8193 18.9994C17.3296 19.9634 16.5628 21.3875 16.5847 23.162C16.6066 24.9147 17.8116 26.3607 19.5423 26.6017C21.0321 26.7988 22.2809 26.273 23.2668 25.1557C23.4639 24.9147 23.6392 24.6518 23.8583 24.3451C23.0696 24.3451 22.0837 24.3451 19.63 24.3451C19.1699 24.3451 19.0603 24.0603 19.2137 23.6878C19.4985 23.0087 20.0243 21.8694 20.331 21.2998C20.3968 21.1684 20.5501 20.9493 20.8787 20.9493C21.9961 20.9493 26.1149 20.9493 28.8534 20.9493C28.8096 21.5408 28.8096 22.1323 28.722 22.7239C28.481 24.3013 27.8895 25.7472 26.9255 27.0179C25.3481 29.0992 23.2887 30.3918 20.6816 30.7424C18.5345 31.0272 16.5409 30.6109 14.7882 29.2964C13.167 28.0695 12.2468 26.4483 12.0058 24.4327C11.721 22.0447 12.4221 19.8977 13.868 18.0135C15.4235 15.9761 17.4829 14.6835 20.0024 14.2234C22.0618 13.8509 24.0336 14.0919 25.8082 15.2969C26.9693 16.0637 27.8018 17.1153 28.3495 18.386C28.481 18.5832 28.3934 18.6927 28.1304 18.7584Z" fill="#00ACD7"/>
<path d="M35.3822 30.8739C33.3885 30.8301 31.5701 30.2605 30.0365 28.9459C28.7439 27.8286 27.9333 26.4046 27.6704 24.7176C27.276 22.242 27.9552 20.0511 29.445 18.1013C31.0443 15.998 32.9722 14.9026 35.5793 14.4425C37.814 14.0482 39.9172 14.2673 41.8233 15.5599C43.554 16.7429 44.6275 18.3422 44.9124 20.4455C45.2848 23.4031 44.4304 25.813 42.3929 27.8724C40.9469 29.3403 39.1723 30.2605 37.1349 30.6767C36.5433 30.7863 35.9518 30.8082 35.3822 30.8739ZM40.5964 22.0229C40.5745 21.7381 40.5745 21.519 40.5307 21.2999C40.1363 19.1309 38.1426 17.9041 36.0613 18.3861C34.0239 18.8461 32.7093 20.1387 32.2274 22.1981C31.833 23.907 32.6655 25.6378 34.2429 26.3388C35.4479 26.8646 36.6529 26.7989 37.814 26.2074C39.5448 25.3091 40.4868 23.907 40.5964 22.0229Z" fill="#00ACD7"/>
</svg>
