<svg width="45" height="45" viewBox="0 0 45 45" fill="none" xmlns="http://www.w3.org/2000/svg">
<g clip-path="url(#clip0_11_177)">
<path d="M40.7812 1.40619H4.21875C2.27712 1.40619 0.703125 2.98019 0.703125 4.92181V40.0781C0.703125 42.0197 2.27712 43.5937 4.21875 43.5937H40.7812C42.7229 43.5937 44.2969 42.0197 44.2969 40.0781V4.92181C44.2969 2.98019 42.7229 1.40619 40.7812 1.40619Z" fill="#202328" stroke="#121416" stroke-width="2"/>
<path fill-rule="evenodd" clip-rule="evenodd" d="M12.6562 33.4864H22.068L27.3621 31.5012L25.3769 23.707L19.2739 24.3688L12.6562 33.4864Z" fill="#0076D4"/>
<path fill-rule="evenodd" clip-rule="evenodd" d="M22.068 33.4865C22.068 33.4865 25.0433 31.9167 25.594 29.1354C26.1446 26.3541 23.427 24.3689 19.2739 24.3689C19.2739 24.2954 22.9199 19.2219 22.9199 19.2219L31.7739 19.4791L29.8103 29.8483L26.1446 32.7119L22.068 33.4865Z" fill="#002868"/>
<path fill-rule="evenodd" clip-rule="evenodd" d="M12.6562 21.4277C15.5278 17.1779 17.1377 14.7951 20.0092 10.5453C20.0092 10.5453 20.1895 10.547 20.5975 10.5453C23.4797 10.5331 35.1562 11.1043 35.1562 21.3651C35.1562 33.0779 22.068 33.4864 22.068 33.4864C22.068 33.4864 27.5335 32.4399 27.5335 27.2463C27.5335 22.0528 22.5973 21.4277 19.421 21.4277C16.2446 21.4277 12.6562 21.4277 12.6562 21.4277Z" fill="#00A9FF"/>
</g>
<defs>
<clipPath id="clip0_11_177">
<rect width="45" height="43.5938" fill="white" transform="translate(0 0.703064)"/>
</clipPath>
</defs>
</svg>
