<svg width="161" height="34" viewBox="0 0 161 34" fill="none" xmlns="http://www.w3.org/2000/svg"><rect width="3.77758" height="33.9982" rx="0.918881" fill="#FFB200"></rect><rect x="7.55554" width="3.77758" height="33.9982" rx="0.918881" fill="#FFB200"></rect><rect x="15.1112" width="3.77758" height="33.9982" rx="0.918881" fill="#FFB200"></rect><rect x="22.6649" width="3.77758" height="33.9982" rx="0.918881" fill="#FFB200"></rect><rect x="30.2223" y="13.2227" width="3.77758" height="7.55515" rx="0.918881" fill="#FFB200"></rect><path d="M59.464 25.208C58.472 25.864 57.096 26.192 55.336 26.192C52.92 26.192 50.944 25.44 49.408 23.936C47.872 22.432 47.104 20.416 47.104 17.888C47.104 15.44 47.872 13.448 49.408 11.912C50.96 10.376 52.92 9.608 55.288 9.608C57.016 9.608 58.4 9.904 59.44 10.496V12.92C58.736 12.536 58.096 12.272 57.52 12.128C56.96 11.968 56.24 11.888 55.36 11.888C53.744 11.888 52.392 12.44 51.304 13.544C50.232 14.632 49.696 16.08 49.696 17.888C49.696 19.728 50.232 21.192 51.304 22.28C52.376 23.368 53.792 23.912 55.552 23.912C57.104 23.912 58.408 23.512 59.464 22.712V25.208ZM64.6593 26H62.2833V9.032H64.6593V26ZM70.5421 26H68.1661V13.832H70.5421V26ZM70.8301 10.112C70.8301 10.512 70.6861 10.856 70.3981 11.144C70.1101 11.432 69.7581 11.576 69.3421 11.576C68.9261 11.576 68.5741 11.44 68.2861 11.168C68.0141 10.88 67.8781 10.528 67.8781 10.112C67.8781 9.696 68.0141 9.344 68.2861 9.056C68.5741 8.768 68.9261 8.624 69.3421 8.624C69.7581 8.624 70.1101 8.768 70.3981 9.056C70.6861 9.344 70.8301 9.696 70.8301 10.112ZM82.5449 25.52C81.7609 26 80.7609 26.24 79.5449 26.24C77.6409 26.24 76.1209 25.64 74.9849 24.44C73.8489 23.24 73.2809 21.744 73.2809 19.952C73.2809 18.208 73.8489 16.72 74.9849 15.488C76.1369 14.24 77.6889 13.616 79.6409 13.616C80.6969 13.616 81.6649 13.84 82.5449 14.288V16.448C81.7609 15.952 80.8729 15.704 79.8809 15.704C78.6169 15.704 77.6009 16.104 76.8329 16.904C76.0809 17.704 75.7049 18.728 75.7049 19.976C75.7369 21.208 76.1129 22.224 76.8329 23.024C77.5529 23.808 78.5609 24.2 79.8569 24.2C80.8169 24.2 81.7129 23.936 82.5449 23.408V25.52ZM87.6018 26H85.2498V9.2H87.6018V26ZM90.4098 19.64L95.1858 26H92.3778L87.6978 19.64L92.2818 13.832H95.0418L90.4098 19.64ZM109.562 26H107.09V18.92H99.8178V26H97.3458V9.824H99.8178V16.784H107.09V9.824H109.562V26ZM122.384 15.44C123.392 16.608 123.896 18.104 123.896 19.928C123.896 21.752 123.376 23.256 122.336 24.44C121.312 25.624 119.896 26.216 118.088 26.216C116.296 26.216 114.888 25.632 113.864 24.464C112.84 23.296 112.328 21.816 112.328 20.024C112.328 18.2 112.856 16.688 113.912 15.488C114.968 14.272 116.36 13.664 118.088 13.664C119.944 13.664 121.376 14.256 122.384 15.44ZM114.776 19.952C114.776 21.152 115.072 22.168 115.664 23C116.256 23.816 117.064 24.224 118.088 24.224C119.176 24.224 120 23.824 120.56 23.024C121.136 22.224 121.424 21.208 121.424 19.976C121.424 18.712 121.152 17.68 120.608 16.88C120.064 16.064 119.216 15.656 118.064 15.656C117.024 15.656 116.216 16.072 115.64 16.904C115.064 17.72 114.776 18.736 114.776 19.952ZM136.459 26H134.107V23.912C133.467 25.4 132.203 26.144 130.315 26.144C129.115 26.144 128.163 25.792 127.459 25.088C126.755 24.368 126.403 23.384 126.403 22.136V13.832H128.779V21.56C128.779 22.392 128.979 23.032 129.379 23.48C129.795 23.912 130.363 24.128 131.083 24.128C131.995 24.128 132.723 23.808 133.267 23.168C133.827 22.528 134.107 21.624 134.107 20.456V13.832H136.459V26ZM147.373 22.64C147.373 23.728 146.989 24.584 146.221 25.208C145.453 25.816 144.413 26.12 143.101 26.12C141.661 26.12 140.461 25.88 139.501 25.4V23.168C140.621 23.856 141.781 24.2 142.981 24.2C143.605 24.2 144.085 24.072 144.421 23.816C144.773 23.56 144.949 23.224 144.949 22.808C144.949 22.456 144.813 22.144 144.541 21.872C144.269 21.584 143.989 21.376 143.701 21.248C143.429 21.104 142.957 20.888 142.285 20.6C140.381 19.816 139.429 18.664 139.429 17.144C139.429 16.072 139.829 15.232 140.629 14.624C141.429 14.016 142.429 13.712 143.629 13.712C144.941 13.712 145.965 13.888 146.701 14.24V16.376C145.917 15.912 144.909 15.68 143.677 15.68C143.117 15.68 142.669 15.808 142.333 16.064C142.013 16.32 141.853 16.656 141.853 17.072C141.853 17.184 141.861 17.296 141.877 17.408C141.909 17.504 141.957 17.608 142.021 17.72C142.085 17.816 142.141 17.904 142.189 17.984C142.253 18.048 142.349 18.12 142.477 18.2C142.605 18.28 142.701 18.352 142.765 18.416C142.845 18.464 142.965 18.528 143.125 18.608C143.301 18.688 143.429 18.752 143.509 18.8C143.589 18.832 143.725 18.896 143.917 18.992C144.125 19.072 144.269 19.128 144.349 19.16C145.293 19.576 146.029 20.048 146.557 20.576C147.101 21.088 147.373 21.776 147.373 22.64ZM158.892 25.352C157.996 25.864 156.812 26.12 155.34 26.12C153.452 26.12 151.948 25.552 150.828 24.416C149.708 23.28 149.148 21.792 149.148 19.952C149.148 18 149.66 16.472 150.684 15.368C151.708 14.248 153.012 13.688 154.596 13.688C156.148 13.688 157.38 14.176 158.292 15.152C159.204 16.112 159.66 17.504 159.66 19.328C159.66 19.824 159.612 20.344 159.516 20.888H151.524C151.684 21.944 152.132 22.752 152.868 23.312C153.604 23.872 154.532 24.152 155.652 24.152C156.948 24.152 158.028 23.848 158.892 23.24V25.352ZM154.644 15.632C153.844 15.632 153.156 15.928 152.58 16.52C152.004 17.096 151.644 17.936 151.5 19.04H157.38V18.608C157.348 17.696 157.1 16.976 156.636 16.448C156.172 15.904 155.508 15.632 154.644 15.632Z" fill="#2F2C3A"></path></svg>
