<svg width="41" height="41" viewBox="0 0 41 41" fill="none" xmlns="http://www.w3.org/2000/svg">
<path d="M20.3127 40.387C19.7615 40.387 19.247 40.24 18.7693 39.9827L13.8818 37.0797C13.1468 36.6754 13.5143 36.5284 13.7348 36.4549C14.727 36.1242 14.9107 36.0507 15.9397 35.4628C16.0499 35.3893 16.1969 35.426 16.3072 35.4995L20.0554 37.7411C20.2024 37.8146 20.3862 37.8146 20.4964 37.7411L35.1588 29.2524C35.3058 29.1789 35.3793 29.0319 35.3793 28.8481V11.9074C35.3793 11.7237 35.3058 11.5767 35.1588 11.5032L20.4964 3.05118C20.3494 2.97768 20.1657 2.97768 20.0554 3.05118L5.39306 11.5032C5.24607 11.5767 5.17257 11.7604 5.17257 11.9074V28.8481C5.17257 28.9951 5.24607 29.1789 5.39306 29.2524L9.39857 31.5675C11.5667 32.6699 12.9264 31.3837 12.9264 30.0976V13.3773C12.9264 13.1568 13.1101 12.9363 13.3673 12.9363H15.2415C15.462 12.9363 15.6824 13.1201 15.6824 13.3773V30.0976C15.6824 33.0006 14.1023 34.691 11.3462 34.691C10.501 34.691 9.83954 34.691 7.96541 33.7724L4.10688 31.5675C3.15144 31.0163 2.56348 29.9873 2.56348 28.8849V11.9442C2.56348 10.8417 3.15144 9.81278 4.10688 9.26156L18.7693 0.772815C19.688 0.258346 20.9374 0.258346 21.8561 0.772815L36.5185 9.26156C37.4739 9.81278 38.0619 10.8417 38.0619 11.9442V28.8849C38.0619 29.9873 37.4739 31.0163 36.5185 31.5675L21.8561 40.0562C21.3784 40.2767 20.8271 40.387 20.3127 40.387ZM24.8327 28.7379C18.4018 28.7379 17.0789 25.7981 17.0789 23.2992C17.0789 23.0787 17.2626 22.8583 17.5198 22.8583H19.4307C19.6512 22.8583 19.8349 23.0052 19.8349 23.2257C20.1289 25.1734 20.9741 26.1288 24.8694 26.1288C27.9562 26.1288 29.2791 25.4306 29.2791 23.7769C29.2791 22.8215 28.9117 22.1233 24.0977 21.6456C20.0922 21.2413 17.5933 20.3594 17.5933 17.1623C17.5933 14.1858 20.0922 12.4219 24.2814 12.4219C28.9852 12.4219 31.3003 14.0388 31.5943 17.5666C31.5943 17.6768 31.5575 17.7871 31.484 17.8973C31.4105 17.9708 31.3003 18.0443 31.19 18.0443H29.2791C29.0954 18.0443 28.9117 17.8973 28.8749 17.7136C28.4339 15.6924 27.2948 15.031 24.2814 15.031C20.9006 15.031 20.4964 16.2069 20.4964 17.0888C20.4964 18.1545 20.9741 18.4853 25.5309 19.0732C30.0508 19.6612 32.1822 20.5064 32.1822 23.6667C32.1455 26.9005 29.4996 28.7379 24.8327 28.7379Z" fill="#539E43"/>
</svg>
