<svg width="48" height="48" viewBox="0 0 48 48" fill="none" xmlns="http://www.w3.org/2000/svg">
<g clip-path="url(#clip0_856_43744)">
<path d="M33.991 33.2511C34.2575 31.0308 34.1776 30.7051 35.8315 31.0648L36.2514 31.1017C37.5231 31.1595 39.1866 30.8971 40.1639 30.4431C42.2678 29.4669 43.5153 27.837 41.4408 28.2653C36.7088 29.2415 36.3835 27.6392 36.3835 27.6392C41.3802 20.2252 43.469 10.814 41.666 8.51029C36.7484 2.22667 28.2361 5.19815 28.0936 5.2753L28.0483 5.28376C27.1133 5.08967 26.0669 4.97376 24.8915 4.95476C22.7501 4.91957 21.1252 5.51614 19.8926 6.45103C19.8926 6.45103 4.7071 0.194791 5.41355 14.3189C5.5638 17.3235 9.72033 37.0542 14.6778 31.0946C16.4897 28.9154 18.2407 27.0728 18.2407 27.0728C19.1102 27.6505 20.1513 27.9451 21.2431 27.8393L21.3275 27.7673C21.301 28.0379 21.3127 28.3026 21.3612 28.6159C20.0844 30.0428 20.4596 30.2934 17.9063 30.8188C15.3231 31.3513 16.8407 32.2991 17.8313 32.5468C19.0325 32.8472 21.8114 33.2728 23.6896 30.6441L23.6148 30.9441C24.1158 31.3449 24.0819 33.8249 24.1529 35.5966C24.2241 37.3685 24.3427 39.0221 24.7039 39.9969C25.0651 40.9716 25.4912 43.4826 28.8469 42.7635C31.6513 42.1625 33.7955 41.2975 33.991 33.2511Z" fill="black"/>
<path d="M33.991 33.2511C34.2575 31.0308 34.1776 30.7051 35.8315 31.0648L36.2514 31.1017C37.5231 31.1595 39.1866 30.8971 40.1639 30.4431C42.2678 29.4669 43.5153 27.837 41.4408 28.2653C36.7088 29.2415 36.3835 27.6392 36.3835 27.6392C41.3802 20.2252 43.469 10.814 41.666 8.51029C36.7484 2.22667 28.2361 5.19815 28.0936 5.2753L28.0483 5.28376C27.1133 5.08967 26.0669 4.97376 24.8915 4.95476C22.7501 4.91957 21.1252 5.51614 19.8926 6.45103C19.8926 6.45103 4.7071 0.194791 5.41355 14.3189C5.5638 17.3235 9.72033 37.0542 14.6778 31.0946C16.4897 28.9154 18.2407 27.0728 18.2407 27.0728C19.1102 27.6505 20.1513 27.9451 21.2431 27.8393L21.3275 27.7673C21.301 28.0379 21.3127 28.3026 21.3612 28.6159C20.0844 30.0428 20.4596 30.2934 17.9063 30.8188C15.3231 31.3513 16.8407 32.2991 17.8313 32.5468C19.0325 32.8472 21.8114 33.2728 23.6896 30.6441L23.6148 30.9441C24.1158 31.3449 24.0819 33.8249 24.1529 35.5966C24.2241 37.3685 24.3427 39.0221 24.7039 39.9969C25.0651 40.9716 25.4912 43.4826 28.8469 42.7635C31.6513 42.1625 33.7955 41.2975 33.991 33.2511" stroke="black" strokeWidth="4.69091"/>
<path d="M41.4412 28.2651C36.7088 29.2413 36.3834 27.639 36.3834 27.639C41.3802 20.2246 43.469 10.8131 41.6664 8.50973C36.7487 2.22649 28.236 5.19806 28.094 5.2752L28.0483 5.28339C27.1133 5.0893 26.0669 4.97367 24.8909 4.95448C22.7495 4.91939 21.1252 5.51586 19.8926 6.45056C19.8926 6.45056 4.70678 0.194604 5.41305 14.3186C5.5633 17.3234 9.71974 37.0541 14.6774 31.0945C16.4894 28.9153 18.2401 27.0727 18.2401 27.0727C19.1097 27.6504 20.1508 27.945 21.2421 27.8392L21.3269 27.7672C21.3005 28.0378 21.3126 28.3025 21.3608 28.6158C20.0837 30.0427 20.459 30.2933 17.9059 30.8188C15.3225 31.3513 16.8401 32.299 17.831 32.5467C19.0322 32.8472 21.8113 33.2727 23.6891 30.644L23.6142 30.944C24.1146 31.3448 24.466 33.5511 24.4071 35.5512C24.3482 37.5511 24.3089 38.9243 24.7032 39.9968C25.0975 41.0693 25.4905 43.4825 28.8467 42.7634C31.6512 42.1624 33.1045 40.6049 33.3067 38.0071C33.4501 36.1602 33.7748 36.4332 33.7953 34.7819L34.0557 34.0002C34.3561 31.4967 34.1034 30.6889 35.8313 31.0646L36.2511 31.1015C37.5228 31.1593 39.1872 30.8969 40.1641 30.4429C42.2676 29.4667 43.5151 27.8368 41.4411 28.2651H41.4412Z" fill="#336791"/>
<path d="M23.8922 29.7002C23.7619 34.3587 23.9249 39.0497 24.3808 40.1898C24.8369 41.3299 25.813 43.5474 29.1695 42.8283C31.9737 42.2272 32.994 41.0637 33.4368 38.4959C33.7629 36.6064 34.3915 31.3593 34.4721 30.2842M19.8691 6.34647C19.8691 6.34647 4.6729 0.135577 5.37936 14.2597C5.52961 17.2644 9.68632 36.9957 14.6439 31.0359C16.4555 28.8564 18.0939 27.147 18.0939 27.147M28.0772 5.21288C27.5512 5.37781 36.5303 1.93047 41.6332 8.45089C43.4357 10.7544 41.3469 20.1659 36.3502 27.5805" stroke="white" strokeWidth="1.56364" strokeLinecap="round" strokeLinejoin="round"/>
<path d="M36.3502 27.5805C36.3502 27.5805 36.6759 29.1833 41.4084 28.2064C43.482 27.7781 42.2341 29.4082 40.1311 30.3849C38.4052 31.1859 34.5357 31.3912 34.4725 30.2843C34.3098 27.4284 36.5091 28.2961 36.3503 27.5805C36.2069 26.936 35.2233 26.3035 34.5728 24.7262C34.0048 23.3495 26.7832 12.7921 36.5755 14.36C36.9342 14.2858 34.0215 5.04576 24.8573 4.89551C15.6952 4.74526 15.9958 16.1629 15.9958 16.1629" stroke="white" strokeWidth="1.56364" strokeLinecap="round" strokeLinejoin="bevel"/>
<path d="M21.3271 28.5571C20.0498 29.984 20.4255 30.2346 17.8722 30.7602C15.2888 31.2927 16.8066 32.2404 17.7972 32.4881C18.9984 32.7886 21.7775 33.2142 23.6553 30.5849C24.2271 29.7843 23.6519 28.507 22.8664 28.1814C22.4869 28.0243 21.9794 27.8272 21.3271 28.5571V28.5571Z" stroke="white" strokeWidth="1.56364" strokeLinecap="round" strokeLinejoin="round"/>
<path d="M21.2438 28.5323C21.1151 27.6932 21.5195 26.6949 21.9528 25.527C22.6041 23.7747 24.1066 22.022 22.9047 16.4633C22.0087 12.321 15.9994 15.6012 15.9957 16.1629C15.992 16.7244 16.2675 19.0098 15.8953 21.6712C15.4096 25.144 18.1051 28.0811 21.2089 27.7806" stroke="white" strokeWidth="1.56364" strokeLinecap="round" strokeLinejoin="round"/>
<path d="M19.8139 16.0787C19.7868 16.2706 20.1651 16.7824 20.6583 16.8508C21.1508 16.9195 21.5723 16.5195 21.599 16.3278C21.6257 16.136 21.2479 15.9247 20.7544 15.856C20.2617 15.7873 19.84 15.8874 19.814 16.0787H19.8139Z" fill="white" stroke="white" strokeWidth="0.521212"/>
<path d="M34.8129 15.6876C34.8396 15.8795 34.4618 16.3913 33.9684 16.4597C33.4756 16.5284 33.0542 16.1284 33.0271 15.9367C33.0011 15.7449 33.379 15.5336 33.8719 15.4649C34.3648 15.3962 34.7862 15.4962 34.8129 15.6877V15.6876Z" fill="white" stroke="white" strokeWidth="0.260669"/>
<path d="M36.5752 14.36C36.6564 15.8647 36.2511 16.8897 36.2 18.4915C36.1243 20.8198 37.31 23.4848 35.5234 26.153" stroke="white" strokeWidth="1.56364" strokeLinecap="round" strokeLinejoin="round"/>
</g>
<defs>
<clipPath id="clip0_856_43744">
<rect width="43.5" height="43.5" fill="white" transform="translate(2.25 2.25)"/>
</clipPath>
</defs>
</svg>
