<svg width="41" height="41" viewBox="0 0 41 41" fill="none" xmlns="http://www.w3.org/2000/svg">
<g clip-path="url(#clip0_1233_2681)">
<path d="M3.08193 17.4117C3.00403 17.4117 2.98455 17.3728 3.0235 17.3143L3.43246 16.7885C3.47141 16.7301 3.56878 16.6912 3.64668 16.6912H10.599C10.6769 16.6912 10.6963 16.7496 10.6574 16.808L10.3263 17.3143C10.2874 17.3728 10.19 17.4312 10.1316 17.4312L3.08193 17.4117Z" fill="#00ACD7"/>
<path d="M0.141373 19.2032C0.0634766 19.2032 0.0440024 19.1643 0.0829508 19.1058L0.491909 18.58C0.530857 18.5216 0.628228 18.4827 0.706125 18.4827H9.58636C9.66426 18.4827 9.70321 18.5411 9.68373 18.5995L9.52794 19.0669C9.50846 19.1448 9.43057 19.1837 9.35267 19.1837L0.141373 19.2032Z" fill="#00ACD7"/>
<path d="M4.85414 20.995C4.77625 20.995 4.75677 20.9365 4.79572 20.8781L5.06836 20.3913C5.10731 20.3328 5.1852 20.2744 5.2631 20.2744H9.15794C9.23584 20.2744 9.27479 20.3328 9.27479 20.4107L9.23584 20.8781C9.23584 20.956 9.15794 21.0144 9.09952 21.0144L4.85414 20.995Z" fill="#00ACD7"/>
<path d="M25.0683 17.0611C23.8415 17.3727 23.0041 17.6064 21.7967 17.918C21.5046 17.9959 21.4851 18.0154 21.2319 17.7232C20.9398 17.3922 20.7256 17.178 20.3166 16.9832C19.0898 16.3795 17.9018 16.5548 16.7918 17.2753C15.4676 18.1322 14.786 19.398 14.8054 20.9754C14.8249 22.5334 15.896 23.8187 17.4344 24.0329C18.7587 24.2082 19.8687 23.7408 20.7451 22.7476C20.9203 22.5334 21.0761 22.2997 21.2709 22.027C20.5698 22.027 19.6935 22.027 17.5123 22.027C17.1034 22.027 17.006 21.7739 17.1423 21.4428C17.3955 20.8391 17.8629 19.8265 18.1355 19.3201C18.1939 19.2033 18.3303 19.0085 18.6224 19.0085C19.6156 19.0085 23.2767 19.0085 25.711 19.0085C25.672 19.5343 25.672 20.0602 25.5941 20.586C25.3799 21.9881 24.8541 23.2734 23.9973 24.4029C22.5951 26.2529 20.7645 27.4019 18.4471 27.7135C16.5386 27.9667 14.7665 27.5967 13.2085 26.4282C11.7675 25.3377 10.9495 23.8966 10.7353 22.1049C10.4822 19.9823 11.1053 18.0738 12.3906 16.399C13.7733 14.5879 15.6039 13.4389 17.8434 13.03C19.674 12.6989 21.4267 12.9131 23.0041 13.9842C24.0362 14.6658 24.7762 15.6006 25.2631 16.7301C25.3799 16.9053 25.302 17.0027 25.0683 17.0611Z" fill="#00ACD7"/>
<path d="M31.5143 27.8304C29.7421 27.7915 28.1258 27.2852 26.7626 26.1167C25.6136 25.1235 24.893 23.8577 24.6594 22.3582C24.3088 20.1576 24.9125 18.2102 26.2368 16.477C27.6584 14.6075 29.3721 13.6338 31.6895 13.2248C33.6759 12.8743 35.5454 13.069 37.2397 14.218C38.7781 15.2696 39.7324 16.6912 39.9855 18.5607C40.3166 21.1897 39.5571 23.3319 37.746 25.1625C36.4607 26.4673 34.8833 27.2852 33.0722 27.6552C32.5464 27.7526 32.0206 27.772 31.5143 27.8304ZM36.1491 19.9629C36.1297 19.7097 36.1297 19.515 36.0907 19.3202C35.7402 17.3923 33.968 16.3017 32.118 16.7302C30.3069 17.1391 29.1384 18.2881 28.71 20.1187C28.3595 21.6377 29.0995 23.1761 30.5016 23.7993C31.5727 24.2667 32.6438 24.2082 33.6759 23.6824C35.2144 22.884 36.0518 21.6377 36.1491 19.9629Z" fill="#00ACD7"/>
</g>
<defs>
<clipPath id="clip0_1233_2681">
<rect width="40" height="40" fill="white" transform="translate(0.0634766 0.386963)"/>
</clipPath>
</defs>
</svg>
