<svg width="41" height="41" viewBox="0 0 41 41" fill="none" xmlns="http://www.w3.org/2000/svg">
<g clip-path="url(#clip0_1233_2667)">
<path d="M19.8778 8.58543C18.1451 9.80411 16.1812 11.1854 15.1289 13.4706C13.3012 17.4576 18.8688 21.8065 19.1068 21.9897C19.1621 22.0322 19.2283 22.0535 19.2943 22.0535C19.3644 22.0535 19.4346 22.0295 19.4916 21.9818C19.6021 21.8893 19.6334 21.7323 19.5671 21.6044C19.5469 21.5656 17.5484 17.6838 17.6227 14.8989C17.649 13.929 19.0064 12.8287 20.4434 11.6637C21.7596 10.5967 23.2515 9.38743 24.1244 7.97276C26.0408 4.85878 23.9109 1.7968 23.8891 1.76619C23.8045 1.64739 23.6484 1.6044 23.5148 1.66292C23.3815 1.7218 23.3076 1.86602 23.338 2.00862C23.3424 2.02891 23.7565 4.05377 22.604 6.13994C22.1292 7.002 21.086 7.73574 19.8778 8.58543Z" fill="#DB380E"/>
<path d="M27.1781 9.95869C27.3003 9.86662 27.3362 9.69868 27.2623 9.56465C27.1883 9.43061 27.0271 9.3715 26.884 9.42585C26.5897 9.53777 19.6758 12.2028 19.6758 15.4229C19.6758 17.6427 20.624 18.8153 21.3163 19.6717C21.5879 20.0076 21.8224 20.2976 21.8996 20.5452C22.1172 21.2588 21.6018 22.5486 21.3851 22.9855C21.3226 23.111 21.3533 23.2632 21.4595 23.3549C21.517 23.4045 21.5887 23.4297 21.6604 23.4297C21.7215 23.4297 21.7829 23.4115 21.8359 23.3746C21.9548 23.292 24.7412 21.3219 24.2415 18.9483C24.0553 18.0461 23.612 17.3869 23.2208 16.8053C22.6148 15.904 22.1771 15.253 22.8411 14.0507C23.6191 12.6482 27.1424 9.98535 27.1781 9.95869Z" fill="#DB380E"/>
<path d="M9.18098 23.4804C9.06247 23.8352 9.11843 24.1872 9.34263 24.4987C10.0921 25.5392 12.7469 26.1121 16.8183 26.1121C16.8186 26.1121 16.8187 26.1121 16.8189 26.1121C17.3705 26.1121 17.9529 26.1013 18.5495 26.0799C25.0589 25.8469 27.4733 23.819 27.5729 23.7328C27.6814 23.6388 27.7104 23.4824 27.643 23.3558C27.5755 23.2293 27.4299 23.1657 27.2908 23.204C24.9983 23.83 20.7175 24.0522 17.7482 24.0522C14.4257 24.0522 12.7337 23.8128 12.3194 23.6361C12.532 23.3442 13.843 22.823 15.4676 22.5035C15.6229 22.473 15.7296 22.3296 15.7142 22.1721C15.6988 22.0146 15.5666 21.8945 15.4083 21.8945C14.456 21.8945 9.6802 21.971 9.18098 23.4804Z" fill="#73A1FB"/>
<path d="M30.9629 21.3918C29.6203 21.3918 28.3471 22.0648 28.2935 22.0933C28.1693 22.1598 28.1064 22.3022 28.1404 22.439C28.1746 22.5756 28.2974 22.6716 28.4383 22.6718C28.4668 22.6718 31.3022 22.695 31.559 24.315C31.7865 25.7126 28.8762 27.9772 27.7356 28.7318C27.6124 28.8134 27.5646 28.9708 27.6218 29.1071C27.6705 29.223 27.7834 29.2955 27.9051 29.2955C27.9263 29.2955 27.9479 29.2933 27.9692 29.2888C28.2399 29.2308 34.5908 27.8313 33.9193 24.1337C33.5097 21.8676 32.0854 21.3918 30.9629 21.3918Z" fill="#73A1FB"/>
<path d="M26.6075 28.2793C26.6297 28.1608 26.5804 28.0403 26.4818 27.9711L24.959 26.9045C24.8847 26.8525 24.7909 26.8362 24.7037 26.8592C24.6879 26.8633 23.0954 27.2819 20.7834 27.5386C19.8659 27.6415 18.8381 27.6959 17.8111 27.6959C15.4997 27.6959 13.9884 27.4243 13.7684 27.2251C13.7392 27.1691 13.7484 27.1437 13.7536 27.1296C13.7936 27.0184 14.0079 26.8863 14.1461 26.834C14.2986 26.7775 14.3809 26.6118 14.3334 26.4563C14.2861 26.3005 14.1256 26.2088 13.9673 26.2469C12.4397 26.6155 11.6928 27.131 11.7472 27.7789C11.8437 28.9278 14.5047 29.5175 16.7544 29.6734C17.0779 29.6955 17.4278 29.7067 17.7941 29.7067C17.7943 29.7067 17.7944 29.7067 17.7946 29.7067C21.5354 29.7067 26.331 28.533 26.3789 28.521C26.4961 28.4925 26.5853 28.3979 26.6075 28.2793Z" fill="#73A1FB"/>
<path d="M15.1271 30.7449C15.2424 30.6699 15.2935 30.5273 15.2526 30.396C15.2118 30.2647 15.089 30.1784 14.951 30.1802C14.7463 30.1856 12.9479 30.2668 12.822 31.4118C12.7839 31.754 12.8819 32.0666 13.1134 32.3409C13.7591 33.1062 15.5021 33.561 18.4411 33.7314C18.7888 33.7522 19.142 33.7627 19.491 33.7627C23.2275 33.7627 25.7439 32.5928 25.8493 32.543C25.9515 32.4947 26.0189 32.3943 26.0249 32.2815C26.0309 32.1687 25.9746 32.0617 25.8782 32.0027L23.9537 30.8279C23.8869 30.7872 23.807 30.7737 23.7308 30.7893C23.7187 30.7919 22.4968 31.0453 20.6528 31.2956C20.3038 31.3431 19.8669 31.3672 19.3542 31.3672C17.5121 31.3672 15.4632 31.0662 15.0703 30.8691C15.0646 30.8324 15.0718 30.7856 15.1271 30.7449Z" fill="#73A1FB"/>
<path d="M17.7496 37.2952C26.3083 37.2879 30.9018 35.7659 31.7868 34.8081C32.1 34.4693 32.1339 34.1485 32.1073 33.9389C32.0415 33.4233 31.5718 33.1076 31.5185 33.0734C31.3901 32.9907 31.2177 33.0123 31.1175 33.1279C31.0175 33.2435 31.0151 33.4124 31.1155 33.5279C31.1695 33.5973 31.2007 33.7136 31.0428 33.8716C30.6891 34.2019 27.1211 35.2049 21.1803 35.5062C20.3665 35.5484 19.5129 35.57 18.6435 35.5701C13.3244 35.5701 9.43161 34.8415 8.9206 34.417C9.11755 34.134 10.4945 33.6819 11.9588 33.4261C12.1239 33.3973 12.2353 33.2418 12.2098 33.0763C12.1842 32.9108 12.0316 32.7969 11.8649 32.8185C11.8236 32.8242 11.6834 32.8325 11.5211 32.8425C9.10495 32.99 6.31288 33.3188 6.1672 34.5637C6.12296 34.943 6.23568 35.2874 6.50235 35.5871C7.15487 36.3203 9.03039 37.2951 17.7493 37.2951C17.7495 37.2952 17.7495 37.2952 17.7496 37.2952Z" fill="#73A1FB"/>
<path d="M33.4678 35.078C33.3468 35.0221 33.2039 35.0503 33.1136 35.1477C33.1011 35.1613 31.8143 36.5068 27.9453 37.297C26.4642 37.5938 23.6839 37.7443 19.6817 37.7443C15.672 37.7443 11.8566 37.5865 11.8186 37.5849C11.6592 37.5771 11.5229 37.693 11.5012 37.8499C11.4795 38.0066 11.5806 38.1544 11.7344 38.191C11.7741 38.2004 15.7727 39.1372 21.2398 39.1372C23.8619 39.1372 26.4135 38.9243 28.8239 38.504C33.3181 37.7161 33.6328 35.4877 33.644 35.3932C33.6596 35.2611 33.5886 35.134 33.4678 35.078Z" fill="#73A1FB"/>
</g>
<defs>
<clipPath id="clip0_1233_2667">
<rect width="37.5" height="37.5" fill="white" transform="translate(1.31348 1.63696)"/>
</clipPath>
</defs>
</svg>
