<svg width="41" height="41" viewBox="0 0 41 41" fill="none" xmlns="http://www.w3.org/2000/svg">
<g clip-path="url(#clip0_1233_2660)">
<path d="M11.0394 5.9065C11.0394 3.21444 11.7778 1.74994 15.8545 1.05257C18.6222 0.578307 22.1709 0.519024 25.4811 1.05257C28.0956 1.47447 30.2961 3.37846 30.2961 5.9065V14.7881C30.2961 17.393 28.1596 19.5268 25.4811 19.5268H15.8545C12.5873 19.5268 9.83376 22.2503 9.83376 25.3293V29.5906H6.52377C3.72393 29.5906 2.09379 27.6169 1.40899 24.855C0.485282 21.1447 0.524495 18.934 1.40899 15.3806C2.17586 12.2806 4.62622 10.645 7.42626 10.645H20.6695V9.45935H11.0392V5.9063L11.0394 5.9065Z" fill="url(#paint0_linear_1233_2660)"/>
<path d="M30.2963 34.3296C30.2963 37.0217 27.9066 38.3852 25.4813 39.0652C21.8325 40.0904 18.9042 39.9335 15.8547 39.0652C13.3079 38.3399 11.0397 36.8578 11.0397 34.3296V25.448C11.0397 22.8919 13.219 20.7093 15.8547 20.7093H25.4813C28.6878 20.7093 31.502 18 31.502 14.7882V10.6455H35.1115C37.915 10.6455 39.2349 12.6819 39.9266 15.3811C40.8895 19.1297 40.9323 21.9333 39.9266 24.8555C38.9529 27.694 37.9114 29.5911 35.1115 29.5911H20.6697V30.7768H30.2963V34.3298V34.3296Z" fill="url(#paint1_linear_1233_2660)"/>
<path d="M13.4469 5.31732C13.4469 4.33401 14.253 3.53882 15.2519 3.53882C16.2469 3.53882 17.0568 4.33381 17.0568 5.31732C17.0568 6.29747 16.2471 7.09226 15.2519 7.09226C14.2534 7.09226 13.4469 6.29727 13.4469 5.31732ZM24.2788 34.9191C24.2788 33.9389 25.0885 33.1441 26.0837 33.1441C27.0822 33.1441 27.8887 33.9391 27.8887 34.9191C27.8887 35.9024 27.0826 36.6976 26.0837 36.6976C25.0887 36.6976 24.2788 35.9026 24.2788 34.9191Z" fill="white"/>
</g>
<defs>
<linearGradient id="paint0_linear_1233_2660" x1="30.2963" y1="11.9155" x2="0.731152" y2="11.675" gradientUnits="userSpaceOnUse">
<stop stop-color="#366A96"/>
<stop offset="1" stop-color="#3679B0"/>
</linearGradient>
<linearGradient id="paint1_linear_1233_2660" x1="40.6647" y1="25.211" x2="-17.8602" y2="25.211" gradientUnits="userSpaceOnUse">
<stop stop-color="#FFC836"/>
<stop offset="1" stop-color="#FFE873"/>
</linearGradient>
<clipPath id="clip0_1233_2660">
<rect width="40" height="40" fill="white" transform="translate(0.688477 0.386963)"/>
</clipPath>
</defs>
</svg>
