<svg xmlns="http://www.w3.org/2000/svg" width="24" height="24" fill="none" viewBox="0 0 24 24">
    <g clip-path="url(#a)">
        <path stroke="#FCFF74" stroke-linecap="round" stroke-linejoin="round" stroke-width="1.5" d="M18.3684 13.5H5.45056c-.35671 0-.64589.3358-.64589.75v4.5c0 .4142.28918.75.64589.75H18.3684c.3567 0 .6458-.3358.6458-.75v-4.5c0-.4142-.2891-.75-.6458-.75Zm0-9H5.45056c-.35671 0-.64589.33579-.64589.75v4.5c0 .4142.28918.75.64589.75H18.3684c.3567 0 .6458-.3358.6458-.75v-4.5c0-.41421-.2891-.75-.6458-.75Z"/>
        <mask id="b" fill="#fff">
            <path d="M15.9388 17.25c.3567 0 .6459-.3358.6459-.75s-.2892-.75-.6459-.75-.6459.3358-.6459.75.2892.75.6459.75Z"/>
        </mask>
        <path fill="#000" d="M15.9388 17.25c.3567 0 .6459-.3358.6459-.75s-.2892-.75-.6459-.75-.6459.3358-.6459.75.2892.75.6459.75Z"/>
        <path fill="#FCFF74" d="M15.0847 16.5c0-.1389.0481-.3021.1742-.4485.1287-.1495.3647-.3015.6799-.3015v3c1.3877 0 2.1459-1.2256 2.1459-2.25h-3Zm.8541-.75c.3151 0 .5511.152.6799.3015.126.1464.1742.3096.1742.4485h-3c0 1.0244.7582 2.25 2.1459 2.25v-3Zm.8541.75c0 .1389-.0482.3021-.1742.4485-.1288.1495-.3648.3015-.6799.3015v-3c-1.3877 0-2.1459 1.2256-2.1459 2.25h3Zm-.8541.75c-.3152 0-.5512-.152-.6799-.3015-.1261-.1464-.1742-.3096-.1742-.4485h3c0-1.0244-.7582-2.25-2.1459-2.25v3Z" mask="url(#b)"/>
        <mask id="c" fill="#fff">
            <path d="M15.9388 8.25c.3567 0 .6459-.33579.6459-.75s-.2892-.75-.6459-.75-.6459.33579-.6459.75.2892.75.6459.75Z"/>
        </mask>
        <path fill="#000" d="M15.9388 8.25c.3567 0 .6459-.33579.6459-.75s-.2892-.75-.6459-.75-.6459.33579-.6459.75.2892.75.6459.75Z"/>
        <path fill="#FCFF74" d="M15.0847 7.5c0-.1389.0481-.30212.1742-.4485.1287-.14951.3647-.3015.6799-.3015v3c1.3877 0 2.1459-1.22556 2.1459-2.25h-3Zm.8541-.75c.3151 0 .5511.15199.6799.3015.126.14638.1742.3096.1742.4485h-3c0 1.02444.7582 2.25 2.1459 2.25v-3Zm.8541.75c0 .1389-.0482.30212-.1742.4485-.1288.14951-.3648.3015-.6799.3015v-3c-1.3877 0-2.1459 1.22556-2.1459 2.25h3Zm-.8541.75c-.3152 0-.5512-.15199-.6799-.3015-.1261-.14638-.1742-.3096-.1742-.4485h3c0-1.02444-.7582-2.25-2.1459-2.25v3Z" mask="url(#c)"/>
    </g>
    <defs>
        <clipPath id="a">
            <path fill="#fff" d="M0 0h24v24H0z"/>
        </clipPath>
    </defs>
</svg>
