<svg xmlns="http://www.w3.org/2000/svg" width="16" height="17" viewBox="0 0 16 17">
    <path fill="currentColor" d="M14.564 9.25c.75 0 1.324.615 1.39 1.36l.006.14v4.5c0 .758-.53 1.418-1.258 1.493l-.138.007H1.646c-.751 0-1.325-.615-1.39-1.36l-.006-.14v-4.5c0-.758.53-1.418 1.257-1.493l.139-.007h12.918Zm-.104 1.5H1.75v4.5h12.71v-4.5Zm.104-10.5c.75 0 1.324.615 1.39 1.36l.006.14v4.5c0 .758-.53 1.418-1.258 1.493l-.138.007H1.646C.895 7.75.32 7.135.256 6.39L.25 6.25v-4.5C.25.992.78.332 1.507.257L1.646.25h12.918Zm-.104 1.5H1.75v4.5h12.71v-4.5Z"/>
</svg>
