<svg xmlns="http://www.w3.org/2000/svg" width="21" height="21" viewBox="0 0 21 21">
    <path fill="currentColor" d="m20.754 14.577.006.1v3.221a2.862 2.862 0 0 1-2.655 2.855l-.207.007-3.208.002c-.35.002-.704-.222-.756-.642l-.007-.109a.76.76 0 0 1 .007-.102l.008-.047c.056-.28.05-.568-.018-.845l-.048-.164a1.862 1.862 0 0 0-1.311-1.203 1.895 1.895 0 0 0-2.327 2.213.75.75 0 0 1-.636.892l-.1.006h-3.22a2.862 2.862 0 0 1-2.856-2.693l-.005-.169-.001-2.426-.194-.018a3.396 3.396 0 0 1-2.13-1.127l-.133-.161a3.393 3.393 0 0 1-.608-2.918A3.36 3.36 0 0 1 3.19 8.73l.229-.022V6.283c0-.69.25-1.355.698-1.873l.14-.151a2.862 2.862 0 0 1 1.818-.83l.207-.008 2.425-.001.019-.194a3.395 3.395 0 0 1 1.127-2.13l.161-.133a3.394 3.394 0 0 1 2.919-.608 3.365 3.365 0 0 1 2.518 2.835l.021.23h2.426c.69 0 1.355.25 1.873.698l.151.14c.488.489.782 1.135.83 1.818l.008.207V9.49c.003.35-.22.704-.64.756l-.11.007a.76.76 0 0 1-.102-.007l-.047-.009a1.952 1.952 0 0 0-.845.019l-.164.048a1.862 1.862 0 0 0-1.203 1.311 1.895 1.895 0 0 0 2.087 2.348l.192-.031.099-.005.046.003.108.016.068.02.112.048.064.038.073.056.047.043a.74.74 0 0 1 .188.327l.02.1Zm-9.82-12.43a1.894 1.894 0 0 0-.696 1.876.75.75 0 0 1-.635.891l-.1.007H6.282a1.362 1.362 0 0 0-1.354 1.208l-.008.154-.001 3.178.002.03c.003.35-.221.704-.641.756l-.11.007a.76.76 0 0 1-.102-.007l-.046-.009a1.955 1.955 0 0 0-.845.019l-.164.048a1.862 1.862 0 0 0-1.204 1.311 1.895 1.895 0 0 0 2.214 2.327.75.75 0 0 1 .891.635l.007.1v3.221c0 .708.54 1.29 1.23 1.355l.132.006 2.424.001.019-.194a3.395 3.395 0 0 1 1.127-2.13l.161-.134a3.393 3.393 0 0 1 2.918-.607 3.36 3.36 0 0 1 2.519 2.835l.021.229h2.426c.31 0 .609-.105.849-.296l.114-.102c.22-.22.356-.505.39-.81l.009-.154-.001-2.426-.193-.018a3.395 3.395 0 0 1-2.13-1.127l-.134-.161a3.393 3.393 0 0 1-.607-2.918 3.36 3.36 0 0 1 2.835-2.519l.229-.022.001-2.433-.008-.145a1.362 1.362 0 0 0-.288-.695l-.102-.114a1.362 1.362 0 0 0-.81-.39l-.154-.01h-3.221a.75.75 0 0 1-.735-.898 1.938 1.938 0 0 0-.065-1.009 1.866 1.866 0 0 0-1.312-1.204 1.895 1.895 0 0 0-1.631.339Z"/>
</svg>
