<svg xmlns="http://www.w3.org/2000/svg" width="24" height="24" fill="none" viewBox="0 0 24 24">
    <path stroke="#FAFF69" stroke-linecap="round" stroke-linejoin="round" stroke-width="1.5" d="M21.0036 15.6707v3.2213M21.003 7.27524v3.22136h.001a2.68877 2.68877 0 0 0-1.4006.091c-.8374.2863-1.4727.9774-1.6877 1.8358-.2022.7911-.0278 1.6312.4727 2.2764.5004.6452 1.2708 1.0231 2.0873 1.024.1774-.0003.3544-.0181.5283-.0531v3.2214c0 .5601-.2225 1.0973-.6185 1.4934-.3961.396-.9333.6185-1.4934.6185h-3.2214v.001a2.68877 2.68877 0 0 0-.091-1.4006c-.2863-.8374-.9773-1.4727-1.8358-1.6877-.7911-.2022-1.6312-.0278-2.2764.4727-.6452.5004-1.0231 1.2708-1.0239 2.0873.0003.1774.018.3544.053.5283l-3.22036-.001c-1.16605.0002-2.11153-.9449-2.11188-2.1109v-3.2214a2.7003 2.7003 0 0 1-.52822.0531c-.81653-.0009-1.5869-.3788-2.08736-1.024-.50046-.6452-.67492-1.4853-.4727-2.2764.21503-.8584.85033-1.5495 1.6877-1.8358a2.68875 2.68875 0 0 1 1.40058-.091h-.001V7.27624a2.11177 2.11177 0 0 1 .61851-1.49337 2.11177 2.11177 0 0 1 1.49337-.61851h3.22136a2.7002 2.7002 0 0 1-.053-.52822c.0008-.81653.3787-1.5869 1.0239-2.08736.6452-.50046 1.4853-.67492 2.2764-.4727.8581.21564 1.5489.85071 1.8358 1.6877.1538.45057.1852.9339.091 1.40058h3.2214a2.1119 2.1119 0 0 1 1.4934.61851c.396.39607.6185.93326.6185 1.49337"/>
</svg>
