<svg width="64" height="64" viewBox="0 0 2500 2500" fill="none" xmlns="http://www.w3.org/2000/svg" class=" h-[64px] w-[64px] object-contain">
    <g clip-path="url(#svg-id-2878-clip0_2_26)">
        <path d="M2500 0H0V2500H2500V0Z" fill="url(#svg-id-2878-paint0_linear_2_26)"></path>
        <path d="M1125.25 1155.53V874.577H1187.63V999.447L1271.8 874.577H1340.85L1243.29 1005.94L1348.89 1155.53H1274.92L1187.63 1019.74V1155.53H1125.25ZM2062.5 1534.92L2041.61 1552.99C1999.5 1589.86 1942.87 1608.31 1886.17 1608.31C1829.48 1608.31 1772.75 1589.86 1730.58 1552.9L1688.92 1516.81C1627.79 1463.24 1520.79 1463.24 1459.79 1516.69L1417.88 1552.99C1333.7 1626.76 1191.15 1626.82 1106.85 1552.9L1065.19 1516.81C1004.06 1463.24 897.063 1463.24 836.063 1516.69L794.148 1552.99C709.976 1626.76 567.423 1626.82 483.126 1552.9L462.356 1534.92L503.179 1487.69L524.074 1505.79C585.23 1559.36 692.231 1559.36 753.2 1505.92L795.115 1469.58C879.287 1395.85 1021.84 1395.85 1106.14 1469.71L1147.8 1505.79C1208.96 1559.36 1315.96 1559.36 1376.93 1505.92L1418.84 1469.58C1503.02 1395.85 1645.57 1395.85 1729.87 1469.71L1771.53 1505.79C1832.66 1559.36 1939.66 1559.36 2000.66 1505.92L2021.68 1487.69L2062.5 1534.92ZM1996.82 1910.62L2037.64 1957.82L2016.75 1975.93C1974.68 2012.8 1918.04 2031.21 1861.38 2031.21C1804.65 2031.21 1747.92 2012.77 1705.73 1975.8L1664.06 1939.72C1602.94 1886.21 1495.94 1886.21 1434.94 1939.59L1393.02 1975.93C1308.91 2049.7 1166.36 2049.73 1082 1975.8L1040.33 1939.72C979.239 1886.21 872.239 1886.21 811.207 1939.59L769.292 1975.93C685.151 2049.7 542.598 2049.73 458.27 1975.8L437.5 1957.82L478.323 1910.62L499.218 1928.73C560.375 1982.23 667.375 1982.27 728.345 1928.82L770.259 1892.52C854.463 1818.78 996.953 1818.75 1081.28 1892.61L1122.95 1928.73C1184.1 1982.23 1291.1 1982.27 1352.07 1928.82L1393.99 1892.52C1478.19 1818.78 1620.68 1818.75 1705.01 1892.61L1746.68 1928.73C1807.83 1982.23 1914.83 1982.27 1975.8 1928.82L1996.82 1910.62ZM1996.82 1712.7L2037.64 1759.87L2016.75 1777.98C1932.61 1851.78 1790.06 1851.81 1705.73 1777.89L1664.06 1741.8C1602.94 1688.23 1495.94 1688.26 1434.94 1741.67L1393.02 1778.01C1350.95 1814.88 1294.28 1833.3 1237.65 1833.3C1180.92 1833.3 1124.19 1814.85 1082 1777.89L1040.33 1741.8C979.239 1688.23 872.239 1688.26 811.207 1741.67L769.292 1778.01C685.183 1851.78 542.629 1851.78 458.27 1777.89L437.5 1759.87L478.323 1712.7L499.218 1730.81C560.375 1784.38 667.375 1784.35 728.345 1730.9L770.259 1694.6C854.463 1620.86 997.016 1620.8 1081.28 1694.69L1122.95 1730.78C1184.1 1784.38 1291.1 1784.35 1352.07 1730.9L1393.99 1694.6C1478.19 1620.86 1620.74 1620.8 1705.01 1694.69L1746.68 1730.78C1807.83 1784.38 1914.83 1784.35 1975.8 1730.9L1996.82 1712.7ZM751.017 1186.75C785.416 1186.75 813.39 1214.75 813.39 1249.19C813.39 1283.62 785.416 1311.62 751.017 1311.62C716.619 1311.62 688.644 1283.62 688.644 1249.19C688.644 1214.75 716.619 1186.75 751.017 1186.75ZM1218.81 531.185C1253.21 531.185 1281.19 559.187 1281.19 593.62C1281.19 628.053 1253.21 656.055 1218.81 656.055C1184.41 656.055 1156.44 628.053 1156.44 593.62C1156.44 559.187 1184.41 531.185 1218.81 531.185ZM1748.98 1249.19C1748.98 1283.62 1721.01 1311.62 1686.61 1311.62C1652.21 1311.62 1624.24 1283.62 1624.24 1249.19C1624.24 1214.75 1652.21 1186.75 1686.61 1186.75C1721.01 1186.75 1748.98 1214.75 1748.98 1249.19ZM1218.81 718.49C1239.58 718.49 1258.92 712.902 1276.17 703.849L1593.89 1166.46C1580.89 1181.01 1571.34 1198.52 1566.32 1217.97H871.303C866.282 1198.52 856.739 1181.01 843.734 1166.46L1161.46 703.849C1178.71 712.902 1198.04 718.49 1218.81 718.49ZM751.017 1374.06C808.962 1374.06 857.394 1334.1 871.303 1280.4H1566.32C1580.23 1334.1 1628.67 1374.06 1686.61 1374.06C1755.41 1374.06 1811.36 1318.05 1811.36 1249.19C1811.36 1180.32 1755.41 1124.32 1686.61 1124.32C1672.23 1124.32 1658.64 1127.25 1645.72 1131.75L1323.04 661.892C1335.95 642.257 1343.56 618.844 1343.56 593.62C1343.56 524.754 1287.61 468.75 1218.81 468.75C1150.02 468.75 1094.07 524.754 1094.07 593.62C1094.07 618.844 1101.68 642.257 1114.59 661.892L791.903 1131.75C778.991 1127.25 765.394 1124.32 751.017 1124.32C682.22 1124.32 626.271 1180.32 626.271 1249.19C626.271 1318.05 682.22 1374.06 751.017 1374.06Z" fill="white"></path>
    </g>
    <defs>
        <linearGradient id="svg-id-2878-paint0_linear_2_26" x1="0" y1="250000" x2="250000" y2="0" gradientUnits="userSpaceOnUse">
            <stop stop-color="#4D27A8"></stop>
            <stop offset="1" stop-color="#A166FF"></stop>
        </linearGradient>
        <clipPath id="svg-id-2878-clip0_2_26">
            <rect width="2500" height="2500" fill="white"></rect>
        </clipPath>
    </defs>
</svg>