<svg width="509" height="100" viewBox="0 0 509 100" fill="none" xmlns="http://www.w3.org/2000/svg">
<path d="M23.1169 67.0137H15.8442V48.8319H23.1169C24.6753 48.8319 25.974 48.8319 27.013 49.0916V37.1436C25.4545 37.4033 23.3766 37.4033 21.039 37.4033H15.8442V20.2605H21.039C24.6753 20.2605 27.5325 20.5202 29.6104 20.78C31.4286 21.0397 32.987 21.8189 33.7662 22.8579V8.05269C30.9091 7.53321 27.7922 7.5332 24.1558 7.5332H0V79.4812H26.7532C29.6104 79.4812 31.9481 79.2215 34.2857 78.9618V65.1955C33.7662 65.4553 32.987 65.715 32.2078 65.9748C29.8701 66.754 27.013 67.0137 23.1169 67.0137Z" fill="#0087C7"/>
<path d="M68.0518 65.7134V0.77832H83.1167V62.077C83.1167 64.4147 83.3764 66.2329 84.1556 67.0121C84.9349 67.7913 85.9738 68.3108 87.792 68.3108C89.0907 68.3108 89.8699 68.3108 90.9089 68.051V79.7394C89.0907 80.2588 86.753 80.2588 84.4154 80.2588C78.4414 80.2588 74.0258 79.2199 71.6881 76.8822C69.0907 74.5445 68.0518 70.6485 68.0518 65.7134Z" fill="#0087C7"/>
<path d="M149.091 40.7795V79.4808H135.844L134.286 72.9873C132.987 75.3249 130.909 77.1431 127.792 78.4418C124.675 79.7405 121.039 80.5197 116.623 80.5197C110.39 80.5197 105.714 79.221 102.338 76.3639C99.2208 73.5067 97.4026 69.3509 97.4026 63.6366C97.4026 57.4028 99.2208 52.9873 103.117 50.1301C107.013 47.273 112.727 45.9743 120.26 45.9743H134.026V44.4158C134.026 42.0782 133.766 40.26 132.987 38.9613C132.208 37.6626 131.169 36.6236 129.351 36.1041C127.532 35.5847 125.195 35.0652 121.818 35.0652C117.662 35.0652 113.506 35.3249 109.87 36.1041V23.3769C114.545 22.8574 118.961 22.5977 123.636 22.5977C132.727 22.5977 139.221 24.1561 142.857 27.0132C147.273 30.1301 149.091 34.5457 149.091 40.7795ZM134.286 62.5976V56.1041H122.597C118.701 56.1041 116.104 56.6236 114.545 57.6626C112.987 58.7016 112.208 60.5197 112.208 63.1171C112.208 65.1951 112.987 66.7535 114.286 67.7924C115.584 68.8314 117.662 69.3509 120.519 69.3509C123.896 69.3509 126.753 68.8314 129.091 67.5327C131.429 65.9743 133.247 64.4158 134.286 62.5976Z" fill="#0087C7"/>
<path d="M203.376 79.4796L202.337 71.6874C199.74 77.6614 194.286 80.5186 185.195 80.5186C179.221 80.5186 174.805 79.4796 171.428 77.142C168.311 74.8043 165.974 71.4277 164.675 67.2718C163.376 63.116 162.857 57.6614 162.857 51.4277C162.857 42.3368 164.415 35.3238 167.792 30.129C170.909 24.9342 176.883 22.3368 185.195 22.3368C190.13 22.3368 193.766 23.116 196.363 24.4147C198.961 25.7134 200.779 27.7913 202.078 30.6484V0.77832H216.883V79.4796H203.376ZM202.857 51.4277C202.857 45.7134 201.818 41.2978 200 38.1809C198.182 35.064 194.805 33.5056 190.13 33.5056C186.753 33.5056 184.415 34.2848 182.597 35.8433C181.039 37.4017 179.74 39.4796 179.221 42.077C178.701 44.6744 178.441 47.7913 178.441 51.4277C178.441 55.3238 178.701 58.4407 179.221 61.0381C179.74 63.6355 180.779 65.4536 182.597 67.0121C184.415 68.5705 186.753 69.09 190.13 69.09C195.065 69.09 198.441 67.7913 200.26 64.9342C201.818 62.077 202.857 57.6614 202.857 51.4277Z" fill="#0087C7"/>
<path d="M281.299 54.8054L245.455 57.1431C245.714 61.0392 247.013 64.1561 249.61 65.9743C251.948 67.7925 255.584 68.8314 260.779 68.8314C264.156 68.8314 267.533 68.5717 270.909 67.7924C274.546 67.0132 277.143 65.9743 279.221 64.9353V76.6236C277.403 77.6626 274.546 78.7015 270.649 79.4808C266.753 80.26 262.338 80.5197 257.922 80.5197C251.948 80.5197 247.013 79.7405 242.857 77.9223C238.961 76.1041 235.844 73.247 233.766 69.0911C231.688 64.9353 230.649 58.9613 230.649 51.6886C230.649 44.4158 231.688 38.4418 233.766 34.286C235.844 30.1301 238.961 27.0132 242.857 25.1951C246.753 23.3769 251.948 22.5977 257.922 22.5977C264.156 22.5977 269.091 23.6366 272.468 25.7145C275.844 27.7925 278.442 30.3898 279.74 34.0262C281.039 37.6626 281.818 41.8184 281.818 47.273C281.818 49.6106 281.818 52.208 281.299 54.8054ZM257.922 33.7665C253.247 33.7665 250.13 34.8054 248.312 36.8834C246.494 38.7016 245.455 42.0782 245.195 46.7535L268.052 44.9353C268.052 41.299 267.273 38.7015 265.974 36.6236C264.935 34.8054 262.078 33.7665 257.922 33.7665Z" fill="#0087C7"/>
<path d="M360.779 7.79221C360.779 5.45455 361.039 3.63636 361.299 2.5974C361.818 1.55844 362.597 0.779223 363.636 0.519482C364.935 0.259742 366.493 0 369.091 0C371.688 0 373.247 0.259742 374.545 0.519482C375.584 0.779223 376.363 1.55844 376.883 2.5974C377.402 3.63636 377.662 5.45455 377.662 7.79221C377.662 10.1299 377.402 11.9481 376.883 12.987C376.363 14.026 375.584 14.8052 374.545 15.0649C373.506 15.3247 371.688 15.5844 369.35 15.5844C367.013 15.5844 365.195 15.3247 363.896 15.0649C362.857 14.8052 362.078 14.026 361.558 12.987C361.039 11.9481 360.779 10.1299 360.779 7.79221ZM376.623 79.4805H361.558V23.6364H376.623V79.4805Z" fill="#0087C7"/>
<path d="M446.753 51.4288C446.753 60.5197 445.195 67.7924 441.818 72.7275C438.702 77.9223 432.987 80.5197 424.416 80.5197C419.481 80.5197 415.844 79.7405 413.247 78.4418C410.65 76.8834 408.831 75.0652 407.533 72.208V100H392.468V23.6366H407.533V30.3899C408.831 28.0522 410.65 26.234 413.507 24.6756C416.364 23.1171 420 22.5977 424.416 22.5977C430.39 22.5977 434.805 23.8963 438.182 26.234C441.299 28.5717 443.637 31.6886 444.935 36.1041C446.234 40.0002 446.753 45.1951 446.753 51.4288ZM431.429 51.4288C431.429 45.4548 430.65 41.0392 429.091 38.1821C427.533 35.0652 424.416 33.5067 419.741 33.5067C414.805 33.5067 411.429 35.0652 409.611 37.9223C407.792 40.7795 406.753 45.1951 406.753 51.1691C406.753 56.8834 407.792 61.299 409.611 64.4158C411.429 67.273 414.805 68.8314 419.741 68.8314C424.416 68.8314 427.533 67.273 429.091 64.4158C430.65 61.5587 431.429 57.4028 431.429 51.4288Z" fill="#0087C7"/>
<path d="M508.311 54.8054L472.467 57.1431C472.727 61.0392 474.026 64.1561 476.623 65.9743C478.961 67.7925 482.597 68.8314 487.792 68.8314C491.169 68.8314 494.545 68.5717 497.922 67.7924C501.558 67.0132 504.156 65.9743 506.234 64.9353V76.6236C504.415 77.6626 501.558 78.7015 497.662 79.4808C493.766 80.26 489.35 80.5197 484.935 80.5197C478.961 80.5197 474.026 79.7405 469.87 77.9223C465.974 76.1041 462.857 73.247 460.779 69.0911C458.701 64.9353 457.662 58.9613 457.662 51.6886C457.662 44.4158 458.701 38.4418 460.779 34.286C462.857 30.1301 465.974 27.0132 469.87 25.1951C473.766 23.3769 478.961 22.5977 484.935 22.5977C491.169 22.5977 496.104 23.6366 499.48 25.7145C502.857 27.7925 505.454 30.3898 506.753 34.0262C508.052 37.6626 508.831 41.8184 508.831 47.273C508.831 49.6106 508.571 52.208 508.311 54.8054ZM484.935 33.7665C480.26 33.7665 477.143 34.8054 475.324 36.8834C473.506 38.7016 472.467 42.0782 472.208 46.7535L495.065 44.9353C495.065 41.299 494.286 38.7015 492.987 36.6236C491.688 34.8054 489.091 33.7665 484.935 33.7665Z" fill="#0087C7"/>
<path d="M27.7923 8.83198L25.9741 8.3125L25.4546 10.1307L27.2728 10.6502L27.7923 8.83198Z" fill="#0087C7"/>
<path d="M31.6886 39.9999L28.5717 38.9609L27.5327 42.0778L30.6496 43.1168L31.6886 39.9999Z" fill="#0087C7"/>
<path d="M31.6887 43.6367L29.6108 42.8574L28.8315 44.9354L30.9095 45.7146L31.6887 43.6367Z" fill="#0087C7"/>
<path d="M30.9091 46.2333L28.8312 45.4541L28.052 47.532L30.1299 48.3112L30.9091 46.2333Z" fill="#0087C7"/>
<path d="M29.0913 43.8954L27.0133 43.1162L26.2341 45.1941L28.3121 45.9734L29.0913 43.8954Z" fill="#0087C7"/>
<path d="M25.1949 40.5204L23.8962 40.001L23.3767 41.2997L24.6754 41.8192L25.1949 40.5204Z" fill="#0087C7"/>
<path d="M21.8179 40.0009L20.5192 39.4814L19.9998 40.7801L21.2985 41.2996L21.8179 40.0009Z" fill="#0087C7"/>
<path d="M29.3507 14.2871L28.3117 14.0273L28.052 15.0663L29.091 15.326L29.3507 14.2871Z" fill="#0087C7"/>
<path d="M28.5715 18.9609L26.7533 18.1816L25.9741 19.9998L27.7923 20.779L28.5715 18.9609Z" fill="#0087C7"/>
<path d="M32.4673 10.9101L30.3893 10.1309L29.6101 12.2088L31.688 12.988L32.4673 10.9101Z" fill="#0087C7"/>
<path d="M35.3247 9.61125L33.2467 8.83203L32.4675 11.1697L34.8052 11.9489L35.3247 9.61125Z" fill="#0087C7"/>
<path d="M38.4416 14.8046L34.026 13.2461L32.4675 17.6617L36.8831 19.2201L38.4416 14.8046Z" fill="#0087C7"/>
<path d="M40.2596 9.871L37.1427 8.83203L36.1038 11.6892L38.9609 12.7281L40.2596 9.871Z" fill="#0087C7"/>
<path d="M42.0777 19.7411L39.2206 18.7021L38.1816 21.819L41.0388 22.858L42.0777 19.7411Z" fill="#0087C7"/>
<path d="M40.7794 31.1679L37.6625 30.1289L36.6235 33.2458L39.7404 34.2848L40.7794 31.1679Z" fill="#0087C7"/>
<path d="M39.7401 16.1035L38.7011 15.584L38.1816 16.6229L39.2206 17.1424L39.7401 16.1035Z" fill="#0087C7"/>
<path d="M39.7405 13.7665L37.9223 12.9873L37.1431 15.0652L38.9612 15.8444L39.7405 13.7665Z" fill="#0087C7"/>
<path d="M48.8311 26.2343L47.7922 25.7148L47.2727 27.0135L48.3117 27.533L48.8311 26.2343Z" fill="#0087C7"/>
<path d="M51.4287 20.5185L49.6105 19.7393L48.8313 21.5575L50.6495 22.3367L51.4287 20.5185Z" fill="#0087C7"/>
<path d="M50.6493 28.5702L47.7921 27.5312L46.7532 30.3884L49.6103 31.4274L50.6493 28.5702Z" fill="#0087C7"/>
<path d="M46.4937 23.8964L45.4548 23.377L44.9353 24.6757L45.9743 25.1951L46.4937 23.8964Z" fill="#0087C7"/>
<path d="M38.9609 36.3642L37.1427 35.585L36.3635 37.4031L38.1817 38.1824L38.9609 36.3642Z" fill="#0087C7"/>
<path d="M35.8443 32.9873L34.5456 32.4678L34.0261 33.7665L35.3248 34.286L35.8443 32.9873Z" fill="#0087C7"/>
<path d="M36.1038 23.8964L34.8051 23.377L34.2856 24.6757L35.5843 25.1951L36.1038 23.8964Z" fill="#0087C7"/>
<path d="M34.0257 20L32.727 19.4805L32.2075 20.7792L33.5062 21.2987L34.0257 20Z" fill="#0087C7"/>
<path d="M43.8961 34.2861L42.5974 33.7666L42.0779 35.0653L43.3766 35.5848L43.8961 34.2861Z" fill="#0087C7"/>
<path d="M48.3119 18.7001L43.8963 17.1416L42.3379 21.2975L46.7535 22.8559L48.3119 18.7001Z" fill="#0087C7"/>
<path d="M44.4154 10.9091L43.1167 10.3896L42.5972 11.6883L43.8959 12.2078L44.4154 10.9091Z" fill="#0087C7"/>
<path d="M37.9222 49.3495L35.0651 48.3105L34.0261 51.1677L36.8833 52.2067L37.9222 49.3495Z" fill="#0087C7"/>
<path d="M41.2989 68.0517L39.7404 67.5322L39.2209 68.8309L40.5196 69.3504L41.2989 68.0517Z" fill="#0087C7"/>
<path d="M35.8444 64.416L35.0651 64.1562L34.5457 65.1952L35.3249 65.455L35.8444 64.416Z" fill="#0087C7"/>
<path d="M40.0002 66.7518L36.1041 65.1934L34.5457 69.0895L38.4418 70.6479L40.0002 66.7518Z" fill="#0087C7"/>
<path d="M36.3638 72.4677L35.0651 71.9482L34.5457 73.5067L35.8444 74.0262L36.3638 72.4677Z" fill="#0087C7"/>
<path d="M42.8571 72.7284L38.4415 71.1699L36.8831 75.5855L41.2986 77.144L42.8571 72.7284Z" fill="#0087C7"/>
<path d="M48.0522 70.6503L45.7145 69.8711L44.9353 72.2088L47.273 72.988L48.0522 70.6503Z" fill="#0087C7"/>
<path d="M52.7273 61.8173L51.1689 61.2979L50.6494 62.8563L52.2079 63.3758L52.7273 61.8173Z" fill="#0087C7"/>
<path d="M51.169 58.96L50.1301 58.7002L49.6106 59.7392L50.6495 60.2587L51.169 58.96Z" fill="#0087C7"/>
<path d="M48.0519 63.8955H47.5324L47.2727 64.415L47.7922 64.6747L48.0519 63.8955Z" fill="#0087C7"/>
<path d="M39.7402 78.1816L39.2207 77.9219L38.9609 78.4414L39.4804 78.7011L39.7402 78.1816Z" fill="#0087C7"/>
<path d="M51.4284 67.2724L48.831 66.2334L47.792 68.8308L50.3894 69.8698L51.4284 67.2724Z" fill="#0087C7"/>
<path d="M45.4544 28.0516L42.0778 26.7529L40.7791 30.1295L44.1557 31.4282L45.4544 28.0516Z" fill="#0087C7"/>
<path d="M49.8703 47.0125L45.9742 45.4541L44.4158 49.3502L48.3119 50.9086L49.8703 47.0125Z" fill="#0087C7"/>
<path d="M46.2337 64.9354L42.8571 63.6367L41.5583 67.0134L44.935 68.3121L46.2337 64.9354Z" fill="#0087C7"/>
<path d="M53.2468 54.2851L50.9091 53.5059L50.1299 55.8435L52.4675 56.6228L53.2468 54.2851Z" fill="#0087C7"/>
<path d="M44.935 57.661L40.5194 56.1025L38.9609 60.5181L43.3765 62.0766L44.935 57.661Z" fill="#0087C7"/>
<path d="M44.1559 52.9863L41.8183 52.207L41.0391 54.5447L43.3767 55.3239L44.1559 52.9863Z" fill="#0087C7"/>
<path d="M39.7401 63.3769L38.7011 62.8574L38.1816 63.8964L39.2206 64.4159L39.7401 63.3769Z" fill="#0087C7"/>
<path d="M33.7665 64.9365L32.9873 64.6768L32.7275 65.456L33.5068 65.7157L33.7665 64.9365Z" fill="#0087C7"/>
<path d="M38.1821 77.6611L36.1042 76.8818L35.325 78.9598L37.4029 79.739L38.1821 77.6611Z" fill="#0087C7"/>
<path d="M34.805 77.9218L33.5063 77.4023L32.9868 78.701L34.2855 79.2205L34.805 77.9218Z" fill="#0087C7"/>
<path d="M32.2076 77.9218L30.9089 77.4023L30.3894 78.701L31.6881 79.2205L32.2076 77.9218Z" fill="#0087C7"/>
<path d="M34.5456 44.1562L32.7275 43.377L31.9482 45.1951L33.7664 45.9744L34.5456 44.1562Z" fill="#0087C7"/>
<path d="M28.3119 38.1816L27.0132 37.6621L26.7534 39.2205L28.0521 39.74L28.3119 38.1816Z" fill="#0087C7"/>
<path d="M29.0913 37.9209L29.6108 38.1807L29.351 38.7001L28.8315 38.4404L29.0913 37.9209Z" fill="#0087C7"/>
<path d="M34.286 37.1435L31.1691 36.1045L30.1301 39.2214L33.247 40.2603L34.286 37.1435Z" fill="#0087C7"/>
<path d="M37.4024 42.078L32.4674 40.2598L30.9089 45.1948L35.844 47.013L37.4024 42.078Z" fill="#0087C7"/>
<path d="M35.3246 45.9726L34.5454 45.7129L34.2856 46.4921L35.0649 46.7519L35.3246 45.9726Z" fill="#0087C7"/>
<path d="M37.922 38.1807L37.1428 37.9209L36.8831 38.7001L37.6623 38.9599L37.922 38.1807Z" fill="#0087C7"/>
<path d="M40.7791 38.1816L39.4804 37.6621L38.9609 38.9608L40.2596 39.4803L40.7791 38.1816Z" fill="#0087C7"/>
<path d="M32.7271 41.038L31.4284 40.5186L30.9089 41.8173L32.2076 42.3367L32.7271 41.038Z" fill="#0087C7"/>
<path d="M41.8181 43.6367L39.7402 42.8574L38.9609 44.9354L41.0389 45.7146L41.8181 43.6367Z" fill="#0087C7"/>
<path d="M44.6753 48.3124L42.8571 47.793L42.0779 49.8709L44.1558 50.6501L44.6753 48.3124Z" fill="#0087C7"/>
<path d="M39.2207 56.623L37.1427 55.8438L36.3635 57.9217L38.4414 58.7009L39.2207 56.623Z" fill="#0087C7"/>
<path d="M38.4418 61.5576L37.4028 61.2979L37.1431 62.0771L38.182 62.3368L38.4418 61.5576Z" fill="#0087C7"/>
<path d="M37.9223 59.4804L37.4028 59.2207L37.1431 59.7402L37.6625 59.9999L37.9223 59.4804Z" fill="#0087C7"/>
<path d="M37.4028 53.5068L36.8833 53.2471L36.6235 53.7666L37.143 54.0263L37.4028 53.5068Z" fill="#0087C7"/>
<path d="M37.4028 63.8965L36.8833 63.6367L36.6235 64.1562L37.143 64.4159L37.4028 63.8965Z" fill="#0087C7"/>
<path d="M49.3505 47.0127L48.831 46.7529L48.5713 47.2724L49.0908 47.5322L49.3505 47.0127Z" fill="#0087C7"/>
<path d="M47.0131 57.6611L46.4936 57.4014L46.2339 57.9209L46.7534 58.1806L47.0131 57.6611Z" fill="#0087C7"/>
<path d="M52.7272 66.4931L52.2078 66.2334L51.948 66.7529L52.4675 67.0126L52.7272 66.4931Z" fill="#0087C7"/>
<path d="M40.0002 53.7656L39.4807 53.5059L39.2209 54.0254L39.7404 54.2851L40.0002 53.7656Z" fill="#0087C7"/>
<path d="M46.4938 44.416L45.9743 44.1562L45.7146 44.6757L46.2341 44.9355L46.4938 44.416Z" fill="#0087C7"/>
<path d="M39.7402 35.3242L39.2207 35.0645L38.9609 35.5839L39.4804 35.8437L39.7402 35.3242Z" fill="#0087C7"/>
<path d="M28.8312 43.1172L28.3117 42.8574L28.052 43.3769L28.5715 43.6367L28.8312 43.1172Z" fill="#0087C7"/>
<path d="M36.1042 30.1299L35.5847 29.8701L35.325 30.3896L35.8444 30.6493L36.1042 30.1299Z" fill="#0087C7"/>
<path d="M34.5453 22.5967L34.0258 22.3369L33.7661 22.8564L34.2856 23.1161L34.5453 22.5967Z" fill="#0087C7"/>
<path d="M40.7794 48.5703L39.7404 48.3105L39.2209 49.6092L40.5196 50.1287L40.7794 48.5703Z" fill="#0087C7"/>
<path d="M32.9872 45.9726L31.9482 45.7129L31.4287 47.0116L32.7274 47.5311L32.9872 45.9726Z" fill="#0087C7"/>
<path d="M35.5846 38.1807L34.5456 37.9209L34.0261 39.2196L35.3248 39.7391L35.5846 38.1807Z" fill="#0087C7"/>
<path d="M50.9088 49.3505L49.6101 48.8311L49.0906 50.1298L50.3893 50.6492L50.9088 49.3505Z" fill="#0087C7"/>
<path d="M48.3114 52.7265L47.0127 52.207L46.4932 53.5057L47.7919 54.0252L48.3114 52.7265Z" fill="#0087C7"/>
<path d="M48.5716 58.96L47.5327 58.7002L47.0132 59.9989L48.3119 60.5184L48.5716 58.96Z" fill="#0087C7"/>
<path d="M44.9354 62.3369L43.6367 61.8174L43.1172 63.1161L44.4159 63.6356L44.9354 62.3369Z" fill="#0087C7"/>
<path d="M45.9742 74.5449L44.9352 74.2852L44.4158 75.5839L45.7145 76.1033L45.9742 74.5449Z" fill="#0087C7"/>
<path d="M43.3768 69.3496L42.3378 69.0898L41.8184 70.3885L43.1171 70.908L43.3768 69.3496Z" fill="#0087C7"/>
<path d="M45.9742 66.7519L44.9352 66.4922L44.4158 67.7909L45.7145 68.3104L45.9742 66.7519Z" fill="#0087C7"/>
<path d="M47.7924 36.1035L47.2729 35.8438L47.0132 36.3632L47.5327 36.623L47.7924 36.1035Z" fill="#0087C7"/>
<path d="M45.974 38.1816L44.6753 37.6621L44.1558 38.9608L45.4545 39.4803L45.974 38.1816Z" fill="#0087C7"/>
<path d="M50.3895 32.2079L49.0908 31.6885L48.5713 32.9872L49.87 33.5067L50.3895 32.2079Z" fill="#0087C7"/>
<path d="M49.0911 33.2461L47.5327 32.7266L47.0132 34.285L48.5716 34.8045L49.0911 33.2461Z" fill="#0087C7"/>
<path d="M46.4938 14.5459L45.9743 14.2861L45.7146 14.8056L46.2341 15.0654L46.4938 14.5459Z" fill="#0087C7"/>
<path d="M38.4416 18.4414L37.9221 18.1816L37.6624 18.7011L38.1818 18.9609L38.4416 18.4414Z" fill="#0087C7"/>
<path d="M42.5976 24.9355L42.0781 24.6758L41.8184 25.1953L42.3378 25.455L42.5976 24.9355Z" fill="#0087C7"/>
<path d="M34.2856 22.3379L33.7661 22.0781L33.5063 22.5976L34.0258 22.8574L34.2856 22.3379Z" fill="#0087C7"/>
<path d="M32.2079 20.7802L31.6885 20.5205L31.4287 21.04L31.9482 21.2997L32.2079 20.7802Z" fill="#0087C7"/>
<path d="M35.3248 21.2978L34.2859 21.0381L34.0261 21.8173L35.0651 22.0771L35.3248 21.2978Z" fill="#0087C7"/>
<path d="M34.8053 35.3242L34.2859 35.0645L34.0261 35.5839L34.5456 35.8437L34.8053 35.3242Z" fill="#0087C7"/>
<path d="M50.3898 17.1425L49.8703 16.8828L49.6106 17.4023L50.1301 17.662L50.3898 17.1425Z" fill="#0087C7"/>
<path d="M50.3898 24.1562L49.8703 23.8965L49.6106 24.416L50.1301 24.6757L50.3898 24.1562Z" fill="#0087C7"/>
<path d="M41.8183 11.9482L41.2988 11.6885L41.0391 12.208L41.5585 12.4677L41.8183 11.9482Z" fill="#0087C7"/>
<path d="M42.3375 17.6611L41.2985 17.1416L40.7791 18.1806L41.818 18.7001L42.3375 17.6611Z" fill="#0087C7"/>
<path d="M36.3634 8.57225L35.844 8.3125L35.5842 8.83198L36.1037 9.09172L36.3634 8.57225Z" fill="#0087C7"/>
<path d="M48.5714 16.3623L47.2727 15.8428L46.7532 17.1415L48.0519 17.661L48.5714 16.3623Z" fill="#0087C7"/>
<path d="M43.8961 42.8584L42.5974 42.5986L42.0779 43.8973L43.3766 44.4168L43.8961 42.8584Z" fill="#0087C7"/>
<path d="M41.2987 46.4931L40.5195 46.2334L40.2598 47.0126L41.039 47.2724L41.2987 46.4931Z" fill="#0087C7"/>
<path d="M33.5065 48.5703L32.7273 48.3105L32.4675 49.0898L33.2467 49.3495L33.5065 48.5703Z" fill="#0087C7"/>
<path d="M32.9871 48.5713L31.6884 48.0518L31.1689 49.3505L32.4676 49.87L32.9871 48.5713Z" fill="#0087C7"/>
<path d="M30.6497 38.1807L29.351 37.9209L28.8315 39.2196L30.1302 39.7391L30.6497 38.1807Z" fill="#0087C7"/>
<path d="M28.3119 48.3115L27.7925 48.0518L27.5327 48.5713L28.0522 48.831L28.3119 48.3115Z" fill="#0087C7"/>
<path d="M30.9091 49.0908L30.1299 48.8311L29.8701 49.6103L30.6493 49.87L30.9091 49.0908Z" fill="#0087C7"/>
<path d="M31.4284 48.3115L31.1687 48.0518L30.9089 48.3115L31.1687 48.5713L31.4284 48.3115Z" fill="#0087C7"/>
<path d="M34.5453 49.3515L34.0258 49.0918L33.7661 49.6113L34.2856 49.871L34.5453 49.3515Z" fill="#0087C7"/>
<path d="M31.6882 47.2715L31.1687 47.0117L30.9089 47.5312L31.4284 47.7909L31.6882 47.2715Z" fill="#0087C7"/>
<path d="M30.1298 44.416L29.3506 44.1562L29.0908 44.9355L29.87 45.1952L30.1298 44.416Z" fill="#0087C7"/>
<path d="M33.5065 41.5595L32.7273 41.2998L32.4675 42.079L33.2467 42.3388L33.5065 41.5595Z" fill="#0087C7"/>
<path d="M37.922 43.376L37.1428 43.1162L36.8831 43.8954L37.6623 44.1552L37.922 43.376Z" fill="#0087C7"/>
<path d="M30.1298 36.3642L29.3506 36.1045L29.0908 36.8837L29.87 37.1435L30.1298 36.3642Z" fill="#0087C7"/>
<path d="M28.5712 37.1435L28.0517 36.8838L27.792 37.4033L28.3115 37.663L28.5712 37.1435Z" fill="#0087C7"/>
<path d="M27.7919 37.1435L27.2724 36.8838L27.0127 37.4033L27.5322 37.663L27.7919 37.1435Z" fill="#0087C7"/>
<path d="M20.0001 42.8584L19.2209 42.5986L18.9612 43.6376L19.7404 43.8973L20.0001 42.8584Z" fill="#0087C7"/>
<path d="M36.8832 45.7138L36.104 45.4541L35.8442 46.2333L36.6235 46.4931L36.8832 45.7138Z" fill="#0087C7"/>
<path d="M26.4936 40.2607L25.7143 40.001L25.4546 40.7802L26.2338 41.0399L26.4936 40.2607Z" fill="#0087C7"/>
<path d="M24.1557 42.5967L23.3764 42.3369L23.1167 43.1161L23.8959 43.3759L24.1557 42.5967Z" fill="#0087C7"/>
<path d="M22.8572 42.5976L21.2988 42.0781L20.7793 43.6366L22.3377 44.156L22.8572 42.5976Z" fill="#0087C7"/>
<path d="M44.4154 39.4804L41.818 38.4414L40.7791 41.0388L43.3765 42.0778L44.4154 39.4804Z" fill="#0087C7"/>
<path d="M40.2599 41.2987L37.6625 40.2598L36.6235 42.8572L39.2209 43.8961L40.2599 41.2987Z" fill="#0087C7"/>
<path d="M37.6625 38.7011L35.0651 37.6621L34.0261 40.2595L36.6235 41.2985L37.6625 38.7011Z" fill="#0087C7"/>
<path d="M44.4155 14.5448L42.3376 13.7656L41.5583 15.8435L43.6363 16.6228L44.4155 14.5448Z" fill="#0087C7"/>
<path d="M39.4807 25.455L37.4028 24.6758L36.6235 26.7537L38.7015 27.5329L39.4807 25.455Z" fill="#0087C7"/>
<path d="M39.2207 20.7802L36.883 20.001L36.1038 22.3386L38.4414 23.1179L39.2207 20.7802Z" fill="#0087C7"/>
<path d="M32.987 17.1425L30.6493 16.3633L29.8701 18.7009L32.2078 19.4802L32.987 17.1425Z" fill="#0087C7"/>
<path d="M22.5978 14.0263L21.5588 13.5068L21.0393 14.8055L22.338 15.325L22.5978 14.0263Z" fill="#0087C7"/>
<path d="M28.5717 72.2089L25.9743 71.1699L24.9353 73.7673L27.5327 74.8063L28.5717 72.2089Z" fill="#0087C7"/>
<path d="M24.6754 70.6494L23.3767 70.1299L22.8572 71.4286L24.1559 71.9481L24.6754 70.6494Z" fill="#0087C7"/>
<path d="M22.5973 77.1416L21.5583 76.8818L21.2986 77.9208L22.3375 78.1805L22.5973 77.1416Z" fill="#0087C7"/>
<path d="M31.6885 71.4277L29.8703 70.9082L29.3508 72.4666L31.169 72.9861L31.6885 71.4277Z" fill="#0087C7"/>
<path d="M27.0133 68.5713L26.4939 68.3115L26.2341 68.831L26.7536 69.0907L27.0133 68.5713Z" fill="#0087C7"/>
<path d="M34.026 74.5449L33.5066 74.2852L33.2468 74.8046L33.7663 75.0644L34.026 74.5449Z" fill="#0087C7"/>
<path d="M27.0133 77.9228L26.4939 77.6631L26.2341 78.1826L26.7536 78.4423L27.0133 77.9228Z" fill="#0087C7"/>
<path d="M22.5974 74.8056L22.3376 74.5459L22.0779 74.8056L22.3376 75.0654L22.5974 74.8056Z" fill="#0087C7"/>
<path d="M32.987 67.2714L30.6493 66.4922L29.8701 68.8299L32.2078 69.6091L32.987 67.2714Z" fill="#0087C7"/>
<path d="M34.805 68.0508L33.7661 67.791L33.5063 68.5702L34.5453 68.83L34.805 68.0508Z" fill="#0087C7"/>
<path d="M34.805 65.1953L33.7661 64.9355L33.5063 65.9745L34.5453 66.2342L34.805 65.1953Z" fill="#0087C7"/>
<path d="M34.805 66.2343L33.7661 65.9746L33.5063 67.0136L34.5453 67.2733L34.805 66.2343Z" fill="#0087C7"/>
<path d="M31.4286 74.2871L30.3896 73.7676L29.8701 74.8065L30.9091 75.326L31.4286 74.2871Z" fill="#0087C7"/>
<path d="M35.8444 76.3633L34.8054 76.1035L34.5457 76.8827L35.5846 77.1425L35.8444 76.3633Z" fill="#0087C7"/>
<path d="M30.3897 76.8837L29.091 76.3643L28.5715 77.663L29.8702 78.1824L30.3897 76.8837Z" fill="#0087C7"/>
<path d="M32.9872 75.8428L32.208 75.583L31.9482 76.3622L32.7275 76.622L32.9872 75.8428Z" fill="#0087C7"/>
<path d="M34.805 14.5468L33.5063 14.0273L32.9868 15.5858L34.5453 16.1053L34.805 14.5468Z" fill="#0087C7"/>
<path d="M35.8444 19.4805H34.5457V20.5194H35.5846V19.4805H35.8444Z" fill="#0087C7"/>
<path d="M35.3246 9.34961H34.2856V10.3886H35.3246V9.34961Z" fill="#0087C7"/>
<path d="M36.8831 10.9092H35.0649V12.7274H36.8831V10.9092Z" fill="#0087C7"/>
<path d="M35.3246 74.0264H34.2856V75.0653H35.3246V74.0264Z" fill="#0087C7"/>
<path d="M35.8444 74.5459H34.5457V75.5848H35.5846V74.5459H35.8444Z" fill="#0087C7"/>
<path d="M34.5453 75.0664H33.5063V76.3651H34.5453V75.0664Z" fill="#0087C7"/>
<path d="M34.5453 72.207H33.5063V73.246H34.5453V72.207Z" fill="#0087C7"/>
<path d="M37.9223 69.6103L35.5846 68.8311L34.5457 71.1687L36.8833 71.9479L37.9223 69.6103Z" fill="#0087C7"/>
<path d="M36.1037 69.6103L33.766 68.8311L32.9868 71.1687L35.3245 71.9479L36.1037 69.6103Z" fill="#0087C7"/>
<path d="M34.5456 70.3896L34.2859 70.1299L34.0261 70.3896L34.2859 70.6494L34.5456 70.3896Z" fill="#0087C7"/>
<path d="M27.7923 41.8174H25.9741V43.6356H27.7923V41.8174Z" fill="#0087C7"/>
<path d="M28.5716 40.7793H26.7534V42.5975H28.5716V40.7793Z" fill="#0087C7"/>
<path d="M29.6102 39.4814H27.792V41.2996H29.6102V39.4814Z" fill="#0087C7"/>
<path d="M28.0517 47.793H27.0127V48.8319H28.0517V47.793Z" fill="#0087C7"/>
<path d="M28.8309 45.1963H27.0127V47.0145H28.8309V45.1963Z" fill="#0087C7"/>
<path d="M25.757 45.0499L25.3152 45.9902L26.2556 46.432L26.6973 45.4916L25.757 45.0499Z" fill="#0087C7"/>
<path d="M24.6631 38.5348L24.0005 39.9453L25.411 40.608L26.0737 39.1974L24.6631 38.5348Z" fill="#0087C7"/>
<path d="M22.201 44.2425L22.0906 44.4775L22.3257 44.588L22.4361 44.3529L22.201 44.2425Z" fill="#0087C7"/>
<path d="M26.7533 42.3369L25.9741 41.8174L25.4546 42.5966L26.2338 43.1161L26.7533 42.3369Z" fill="#0087C7"/>
<path d="M24.1562 42.0771L23.8965 41.8174L23.6367 42.0771L23.8965 42.3369L24.1562 42.0771Z" fill="#0087C7"/>
<path d="M26.2336 37.6631L25.9739 37.4033L25.7141 37.6631L25.9739 37.9228L26.2336 37.6631Z" fill="#0087C7"/>
<path d="M26.7536 40.7783L26.4939 40.5186L26.2341 40.7783L26.4939 41.038L26.7536 40.7783Z" fill="#0087C7"/>
<path d="M345.714 17.9228C343.896 14.2864 341.039 11.689 337.142 10.1306C332.987 8.57216 327.532 7.5332 320.259 7.5332H311.428V20.0007H318.181C323.376 20.0007 327.272 20.78 329.35 22.5981C331.428 24.4163 332.467 27.5332 332.467 32.2085C332.467 35.3254 331.948 37.9228 331.168 39.741C330.389 41.5592 328.831 42.8579 326.753 43.6371C324.675 44.4163 321.818 44.6761 318.181 44.6761H311.428V57.4033H320.259C327.013 57.4033 332.467 56.6241 336.623 55.0657C340.779 53.5072 343.636 50.6501 345.714 47.0137C347.532 43.3773 348.571 38.4423 348.571 32.2085C348.311 26.2345 347.272 21.2994 345.714 17.9228Z" fill="#0087C7"/>
<path d="M282.857 22.3365L280 18.4404L276.104 21.2976L278.961 25.1937L282.857 22.3365Z" fill="#0087C7"/>
<path d="M291.169 29.6092L285.195 27.5312L283.117 33.5053L289.091 35.5832L291.169 29.6092Z" fill="#0087C7"/>
<path d="M303.377 24.1569L300.52 20.5205L296.883 23.3776L299.74 27.014L303.377 24.1569Z" fill="#0087C7"/>
<path d="M295.585 27.531L293.507 24.9336L290.909 27.0115L292.987 29.6089L295.585 27.531Z" fill="#0087C7"/>
<path d="M303.896 9.86884L301.299 6.75195L298.182 9.34936L300.779 12.4662L303.896 9.86884Z" fill="#0087C7"/>
<path d="M309.87 30.909L307.792 28.5713L305.455 30.6492L307.533 32.9869L309.87 30.909Z" fill="#0087C7"/>
<path d="M304.415 29.6103L303.376 28.5713L302.337 29.6103L303.376 30.6492L304.415 29.6103Z" fill="#0087C7"/>
<path d="M306.753 34.0272L305.195 32.209L303.377 33.7674L304.935 35.5856L306.753 34.0272Z" fill="#0087C7"/>
<path d="M308.312 25.9734L306.234 23.6357L303.896 25.7137L305.974 28.0513L308.312 25.9734Z" fill="#0087C7"/>
<path d="M306.753 38.702L305.195 36.8838L303.377 38.4422L304.935 40.2604L306.753 38.702Z" fill="#0087C7"/>
<path d="M303.896 47.2723L302.338 45.4541L300.519 47.0125L302.078 48.8307L303.896 47.2723Z" fill="#0087C7"/>
<path d="M295.844 32.7264L294.805 31.4277L293.507 32.4667L294.546 33.7654L295.844 32.7264Z" fill="#0087C7"/>
<path d="M310.13 27.5311L309.091 26.2324L307.792 27.2714L308.831 28.5701L310.13 27.5311Z" fill="#0087C7"/>
<path d="M302.597 16.1034L301.298 14.5449L299.74 15.8436L301.039 17.4021L302.597 16.1034Z" fill="#0087C7"/>
<path d="M305.714 12.7265L304.935 11.9473L304.156 12.7265L304.935 13.5057L305.714 12.7265Z" fill="#0087C7"/>
<path d="M305.195 16.8817L304.416 15.8428L303.377 16.622L304.156 17.661L305.195 16.8817Z" fill="#0087C7"/>
<path d="M305.195 14.2851L304.416 13.2461L303.377 14.0253L304.156 15.0643L305.195 14.2851Z" fill="#0087C7"/>
<path d="M307.273 14.0253L306.493 13.2461L305.714 14.0253L306.493 14.8046L307.273 14.0253Z" fill="#0087C7"/>
<path d="M296.624 15.3242L295.844 14.5449L295.065 15.3242L295.844 16.1034L296.624 15.3242Z" fill="#0087C7"/>
<path d="M311.429 10.3894L309.351 7.79199L306.753 9.86992L308.831 12.4673L311.429 10.3894Z" fill="#0087C7"/>
<path d="M308.052 14.5455L305.195 10.9092L301.559 13.7663L304.416 17.4027L308.052 14.5455Z" fill="#0087C7"/>
<path d="M307.273 20.2595L305.195 17.6621L302.597 19.74L304.675 22.3374L307.273 20.2595Z" fill="#0087C7"/>
<path d="M309.87 15.8446L308.571 14.2861L307.013 15.5848L308.312 17.1433L309.87 15.8446Z" fill="#0087C7"/>
<path d="M308.572 18.9618L307.792 17.9229L306.753 18.7021L307.533 19.741L308.572 18.9618Z" fill="#0087C7"/>
<path d="M292.727 43.8954L290.65 43.1162L289.87 45.1941L291.948 45.9734L292.727 43.8954Z" fill="#0087C7"/>
<path d="M303.117 33.5058L301.039 32.7266L300.26 34.8045L302.338 35.5837L303.117 33.5058Z" fill="#0087C7"/>
<path d="M305.974 43.3779L303.896 42.5986L303.117 44.6766L305.195 45.4558L305.974 43.3779Z" fill="#0087C7"/>
<path d="M298.182 47.0117L293.767 48.0507L294.806 52.4663L299.221 51.4273L298.182 47.0117Z" fill="#0087C7"/>
<path d="M308.052 44.415L304.935 45.1943L305.714 48.3111L308.831 47.5319L308.052 44.415Z" fill="#0087C7"/>
<path d="M310.39 35.0645L307.792 35.8437L308.571 38.4411L311.169 37.6619L310.39 35.0645Z" fill="#0087C7"/>
<path d="M308.312 33.7666L305.714 34.5458L306.493 37.1432L309.091 36.364L308.312 33.7666Z" fill="#0087C7"/>
<path d="M309.351 29.8701L306.753 30.6493L307.533 33.2467L310.13 32.4675L309.351 29.8701Z" fill="#0087C7"/>
<path d="M308.312 20.7793L305.714 21.5585L306.493 24.1559L309.091 23.3767L308.312 20.7793Z" fill="#0087C7"/>
<path d="M309.87 11.4297L307.273 12.2089L308.052 14.8063L310.65 14.0271L309.87 11.4297Z" fill="#0087C7"/>
<path d="M311.688 44.6758L309.091 45.455L309.87 48.0524L312.467 47.2732L311.688 44.6758Z" fill="#0087C7"/>
<path d="M310.65 56.623L308.052 57.4023L308.831 59.9997L311.429 59.2204L310.65 56.623Z" fill="#0087C7"/>
<path d="M310.39 69.8711L307.792 70.6503L308.571 73.2477L311.169 72.4685L310.39 69.8711Z" fill="#0087C7"/>
<path d="M309.87 76.8818L307.273 77.6611L308.052 80.2585L310.65 79.4792L309.87 76.8818Z" fill="#0087C7"/>
<path d="M301.818 36.623L302.857 36.3633L303.117 37.4022H302.078L301.818 36.623Z" fill="#0087C7"/>
<path d="M309.091 72.207L305.974 72.9862L306.753 76.1031L309.87 75.3239L309.091 72.207Z" fill="#0087C7"/>
<path d="M310.649 74.5459L308.572 75.0654L309.091 77.1433L311.169 76.6238L310.649 74.5459Z" fill="#0087C7"/>
<path d="M302.857 70.3887L299.74 71.1679L300.519 74.2848L303.636 73.5056L302.857 70.3887Z" fill="#0087C7"/>
<path d="M295.845 71.9482L293.767 72.4677L294.286 74.5456L296.364 74.0262L295.845 71.9482Z" fill="#0087C7"/>
<path d="M306.234 76.623L303.896 77.1425L304.415 79.4802L306.753 78.9607L306.234 76.623Z" fill="#0087C7"/>
<path d="M301.558 78.4424L300 78.7021L300.26 80.2606L301.818 80.0008L301.558 78.4424Z" fill="#0087C7"/>
<path d="M308.831 47.793L305.974 48.5722L306.753 51.4293L309.61 50.6501L308.831 47.793Z" fill="#0087C7"/>
<path d="M309.091 32.209L306.233 32.9882L307.013 35.8454L309.87 35.0661L309.091 32.209Z" fill="#0087C7"/>
<path d="M309.611 25.7148L306.753 26.4941L307.533 29.3512L310.39 28.572L309.611 25.7148Z" fill="#0087C7"/>
<path d="M308.831 55.585L304.935 56.6239L305.974 60.52L309.87 59.4811L308.831 55.585Z" fill="#0087C7"/>
<path d="M313.247 51.4277L309.351 52.4667L310.39 56.3628L314.286 55.3238L313.247 51.4277Z" fill="#0087C7"/>
<path d="M302.597 65.4551L300.519 65.9746L301.039 68.0525L303.117 67.533L302.597 65.4551Z" fill="#0087C7"/>
<path d="M290.65 61.2979L288.572 61.8173L289.091 63.8953L291.169 63.3758L290.65 61.2979Z" fill="#0087C7"/>
<path d="M307.013 58.9619L305.974 59.2217L306.234 60.2606L307.273 60.0009L307.013 58.9619Z" fill="#0087C7"/>
<path d="M310.13 50.3906L309.091 50.6504L309.351 51.6893L310.39 51.4296L310.13 50.3906Z" fill="#0087C7"/>
<path d="M308.572 40.001L305.974 40.7802L306.753 43.3776L309.351 42.5984L308.572 40.001Z" fill="#0087C7"/>
<path d="M311.429 42.8574L310.65 43.1172L310.909 43.8964L311.689 43.6367L311.429 42.8574Z" fill="#0087C7"/>
<path d="M309.61 42.8574L308.831 43.1172L309.091 43.8964L309.87 43.6367L309.61 42.8574Z" fill="#0087C7"/>
<path d="M310.13 41.8174L309.351 42.0771L309.611 42.8563L310.39 42.5966L310.13 41.8174Z" fill="#0087C7"/>
<path d="M310.13 38.4414L309.351 38.7011L309.611 39.4804L310.39 39.2206L310.13 38.4414Z" fill="#0087C7"/>
<path d="M311.948 45.9746L311.169 46.2343L311.429 47.0136L312.208 46.7538L311.948 45.9746Z" fill="#0087C7"/>
<path d="M311.429 44.6758L310.39 44.9355L310.649 45.9745L311.688 45.7147L311.429 44.6758Z" fill="#0087C7"/>
<path d="M304.415 58.4414L303.636 58.7011L303.896 59.4804L304.675 59.2206L304.415 58.4414Z" fill="#0087C7"/>
<path d="M308.052 69.8711L307.273 70.1308L307.533 70.9101L308.312 70.6503L308.052 69.8711Z" fill="#0087C7"/>
<path d="M308.571 51.6895L306.233 52.2089L306.753 54.5466L309.091 54.0271L308.571 51.6895Z" fill="#0087C7"/>
<path d="M310.649 41.8174L308.312 42.3369L308.831 44.6745L311.169 44.155L310.649 41.8174Z" fill="#0087C7"/>
<path d="M299.221 44.1562L297.663 44.6757L298.182 46.2342L299.741 45.7147L299.221 44.1562Z" fill="#0087C7"/>
<path d="M305.974 59.4814L304.416 59.7412L304.935 61.2996L306.493 60.7801L305.974 59.4814Z" fill="#0087C7"/>
<path d="M306.493 48.8311L304.935 49.3505L305.454 50.909L307.013 50.3895L306.493 48.8311Z" fill="#0087C7"/>
<path d="M308.831 38.9609L307.273 39.2207L307.533 40.7791L309.091 40.2596L308.831 38.9609Z" fill="#0087C7"/>
<path d="M309.87 24.1553L308.312 24.415L308.831 25.9734L310.389 25.454L309.87 24.1553Z" fill="#0087C7"/>
<path d="M310.389 16.624L308.831 17.1435L309.091 18.702L310.649 18.4422L310.389 16.624Z" fill="#0087C7"/>
<path d="M310.909 13.7656L309.351 14.2851L309.611 15.8435L311.169 15.3241L310.909 13.7656Z" fill="#0087C7"/>
<path d="M310.39 32.7266L309.351 32.9863L309.611 34.0253L310.65 33.7655L310.39 32.7266Z" fill="#0087C7"/>
<path d="M310.649 28.5713L309.61 28.831L309.87 29.87L310.909 29.6103L310.649 28.5713Z" fill="#0087C7"/>
<path d="M310.13 55.0654L309.091 55.3252L309.351 56.3641L310.39 56.1044L310.13 55.0654Z" fill="#0087C7"/>
<path d="M307.792 49.8711L306.753 50.1308L307.013 51.1698L308.052 50.91L307.792 49.8711Z" fill="#0087C7"/>
<path d="M304.935 48.0518L303.896 48.3115L304.156 49.3505L305.195 49.0907L304.935 48.0518Z" fill="#0087C7"/>
<path d="M305.455 53.7666L304.416 54.0263L304.675 55.0653L305.714 54.8055L305.455 53.7666Z" fill="#0087C7"/>
<path d="M305.974 69.8711L304.416 70.3906L304.935 71.949L306.493 71.4295L305.974 69.8711Z" fill="#0087C7"/>
<path d="M303.637 75.0664L302.078 75.5859L302.598 77.1443L304.156 76.6248L303.637 75.0664Z" fill="#0087C7"/>
<path d="M301.039 75.3242L300.26 75.584L300.52 76.3632L301.299 76.1034L301.039 75.3242Z" fill="#0087C7"/>
<path d="M310.649 69.8711L309.61 70.1308L309.87 71.1698L310.909 70.9101L310.649 69.8711Z" fill="#0087C7"/>
<path d="M305.974 61.8174L304.935 62.0771L305.195 63.1161L306.234 62.8563L305.974 61.8174Z" fill="#0087C7"/>
<path d="M310.649 59.999L308.572 60.5185L309.091 62.5964L311.169 62.077L310.649 59.999Z" fill="#0087C7"/>
<path d="M303.117 57.4014L301.039 57.9209L301.558 59.9988L303.636 59.4793L303.117 57.4014Z" fill="#0087C7"/>
<path d="M307.013 60.5186L305.974 60.7783L306.234 61.8173L307.273 61.5575L307.013 60.5186Z" fill="#0087C7"/>
<path d="M304.935 62.8574L302.857 63.3769L303.377 65.4548L305.455 64.9353L304.935 62.8574Z" fill="#0087C7"/>
<path d="M304.675 67.2734L303.636 67.5332L303.896 68.5721L304.935 68.3124L304.675 67.2734Z" fill="#0087C7"/>
<path d="M297.922 54.5459L296.883 54.8056L297.143 55.8446L298.182 55.5849L297.922 54.5459Z" fill="#0087C7"/>
<path d="M298.442 65.9746L297.403 66.2343L297.662 67.2733L298.701 67.0136L298.442 65.9746Z" fill="#0087C7"/>
<path d="M286.493 61.2979L285.454 61.5576L285.714 62.5966L286.753 62.3368L286.493 61.2979Z" fill="#0087C7"/>
<path d="M305.454 65.9746H304.935V66.4941H305.454V65.9746Z" fill="#0087C7"/>
<path d="M302.078 63.6367H301.559V64.1562H302.078V63.6367Z" fill="#0087C7"/>
<path d="M305.974 68.8311H305.455V69.3505H305.974V68.8311Z" fill="#0087C7"/>
<path d="M308.312 63.1162H307.792V63.6357H308.312V63.1162Z" fill="#0087C7"/>
<path d="M303.117 55.0654H302.597V55.5849H303.117V55.0654Z" fill="#0087C7"/>
<path d="M305.454 52.7266H304.935V53.246H305.454V52.7266Z" fill="#0087C7"/>
<path d="M311.169 68.8311H310.65V69.3505H311.169V68.8311Z" fill="#0087C7"/>
<path d="M308.312 61.8174H307.792V62.3369H308.312V61.8174Z" fill="#0087C7"/>
<path d="M309.87 49.8711H309.61V50.1308H309.87V49.8711Z" fill="#0087C7"/>
<path d="M311.169 71.6875H310.65V72.207H311.169V71.6875Z" fill="#0087C7"/>
<path d="M309.61 68.8311L308.831 69.0908L309.091 69.87L309.87 69.6103L309.61 68.8311Z" fill="#0087C7"/>
<path d="M305.974 75.0664H305.455V75.5859H305.974V75.0664Z" fill="#0087C7"/>
<path d="M308.312 77.4023H307.792V77.9218H308.312V77.4023Z" fill="#0087C7"/>
<path d="M307.792 79.7412H307.273V80.2607H307.792V79.7412Z" fill="#0087C7"/>
<path d="M311.169 63.6367H310.65V64.1562H311.169V63.6367Z" fill="#0087C7"/>
<path d="M307.013 21.8193H306.494V22.3388H307.013V21.8193Z" fill="#0087C7"/>
<path d="M308.312 33.7666H307.792V34.2861H308.312V33.7666Z" fill="#0087C7"/>
<path d="M308.312 38.4414H307.792V38.9609H308.312V38.4414Z" fill="#0087C7"/>
<path d="M309.87 31.4277H309.351V31.9472H309.87V31.4277Z" fill="#0087C7"/>
<path d="M310.649 25.7148H310.13V26.2343H310.649V25.7148Z" fill="#0087C7"/>
<path d="M305.974 16.1045H305.455V16.624H305.974V16.1045Z" fill="#0087C7"/>
<path d="M308.831 17.6621H308.312V18.1816H308.831V17.6621Z" fill="#0087C7"/>
<path d="M308.312 21.2988H307.792V21.8183H308.312V21.2988Z" fill="#0087C7"/>
<path d="M309.351 13.7656H309.091V14.0254H309.351V13.7656Z" fill="#0087C7"/>
<path d="M310.649 16.1045H310.13V16.624H310.649V16.1045Z" fill="#0087C7"/>
<path d="M308.312 13.2461H307.792V13.7656H308.312V13.2461Z" fill="#0087C7"/>
<path d="M307.013 10.9092H306.494V11.4287H307.013V10.9092Z" fill="#0087C7"/>
<path d="M307.792 7.5332H307.273V8.05269H307.792V7.5332Z" fill="#0087C7"/>
<path d="M308.312 54.5459H307.792V55.0654H308.312V54.5459Z" fill="#0087C7"/>
<path d="M307.792 43.6357H307.273V44.1552H307.792V43.6357Z" fill="#0087C7"/>
<path d="M307.013 27.0137H306.494V27.5331H307.013V27.0137Z" fill="#0087C7"/>
<path d="M303.636 60.7803L302.597 61.04L302.857 62.079L303.896 61.8192L303.636 60.7803Z" fill="#0087C7"/>
<path d="M309.61 78.4424L308.572 78.7021L308.831 79.7411L309.87 79.4813L309.61 78.4424Z" fill="#0087C7"/>
<path d="M310.13 76.1035L309.091 76.3633L309.351 77.4022L310.39 77.1425L310.13 76.1035Z" fill="#0087C7"/>
<path d="M305.195 74.2852L304.156 74.5449L304.416 75.5839L305.455 75.3241L305.195 74.2852Z" fill="#0087C7"/>
<path d="M310.39 62.5967L309.61 62.8564L309.87 63.3759L310.649 63.1162L310.39 62.5967Z" fill="#0087C7"/>
<path d="M287.013 40.5186L285.974 40.7783L286.234 41.8173L287.273 41.5575L287.013 40.5186Z" fill="#0087C7"/>
<path d="M281.818 14.5449L280.78 14.8047L281.039 15.8436L282.078 15.5839L281.818 14.5449Z" fill="#0087C7"/>
<path d="M295.065 9.61133L294.026 9.87107L294.286 10.91L295.325 10.6503L295.065 9.61133Z" fill="#0087C7"/>
<path d="M289.091 74.2852L288.052 74.5449L288.311 75.5839L289.35 75.3241L289.091 74.2852Z" fill="#0087C7"/>
<path d="M300.519 35.585L294.805 37.1434L296.364 42.8577L302.078 41.2992L300.519 35.585Z" fill="#0087C7"/>
<path d="M310.39 21.8193L307.792 22.5986L308.571 25.196L311.169 24.4167L310.39 21.8193Z" fill="#0087C7"/>
<path d="M311.948 53.5059L309.351 54.2851L310.13 56.8825L312.727 56.1033L311.948 53.5059Z" fill="#0087C7"/>
<path d="M310.649 39.4814L309.091 40.0009L309.61 41.5594L311.169 41.0399L310.649 39.4814Z" fill="#0087C7"/>
<path d="M318.961 10.3896L317.143 10.9091L317.663 12.7273L319.481 12.2078L318.961 10.3896Z" fill="#0087C7"/>
<path d="M306.234 6.75195L304.416 7.27144L304.935 9.08961L306.753 8.57014L306.234 6.75195Z" fill="#0087C7"/>
<path d="M305.714 9.34961L304.156 9.86909L304.675 11.4275L306.234 10.908L305.714 9.34961Z" fill="#0087C7"/>
<path d="M297.922 57.9219L294.286 60.779L297.143 64.4154L300.779 61.5582L297.922 57.9219Z" fill="#0087C7"/>
<path d="M290.65 65.7139L286.494 68.8307L289.611 72.9866L293.766 69.8697L290.65 65.7139Z" fill="#0087C7"/>
<path d="M308.052 61.5586L303.896 64.6755L307.013 68.8313L311.169 65.7144L308.052 61.5586Z" fill="#0087C7"/>
<path d="M288.052 50.3906L283.896 53.5075L287.013 57.6634L291.169 54.5465L288.052 50.3906Z" fill="#0087C7"/>
<path d="M283.117 69.0898L280.26 70.3885L281.558 73.2457L284.415 71.947L283.117 69.0898Z" fill="#0087C7"/>
<path d="M287.273 22.8582L287.792 21.04L285.974 20.5205L285.454 22.3387L287.273 22.8582Z" fill="#0087C7"/>
<path d="M290.909 14.5447L291.169 12.207L288.831 11.9473L288.572 14.2849L290.909 14.5447Z" fill="#0087C7"/>
<path d="M298.961 15.8434L297.922 11.9473L294.026 12.9862L295.065 16.8823L298.961 15.8434Z" fill="#0087C7"/>
<path d="M295.844 75.583L295.324 76.8817L296.623 77.4012L297.143 76.1025L295.844 75.583Z" fill="#0087C7"/>
<path d="M275.324 56.623L272.467 59.4802L275.324 62.3373L278.182 59.4802L275.324 56.623Z" fill="#0087C7"/>
<path d="M301.819 53.2471H298.961V56.1042H301.819V53.2471Z" fill="#0087C7"/>
<path d="M304.156 49.8711H301.299V53.2477H304.156V49.8711Z" fill="#0087C7"/>
<path d="M304.156 40.7793H301.299V43.6364H304.156V40.7793Z" fill="#0087C7"/>
<path d="M295.325 18.9609H291.688V22.3375H295.065V18.9609H295.325Z" fill="#0087C7"/>
<path d="M312.467 50.3906H310.13V52.7283H312.467V50.3906Z" fill="#0087C7"/>
<path d="M311.948 17.6621H309.61V19.9998H311.948V17.6621Z" fill="#0087C7"/>
<path d="M311.688 15.584H309.351V17.9217H311.688V15.584Z" fill="#0087C7"/>
<path d="M312.467 11.9473H310.13V14.2849H312.467V11.9473Z" fill="#0087C7"/>
<path d="M306.494 9.34961H304.156V11.6873H306.494V9.34961Z" fill="#0087C7"/>
<path d="M306.494 22.3369H304.156V24.6746H306.494V22.3369Z" fill="#0087C7"/>
<path d="M312.467 7.5332H310.13V9.87087H312.467V7.5332Z" fill="#0087C7"/>
<path d="M309.125 20.0432L308.65 20.9668L309.573 21.4426L310.049 20.519L309.125 20.0432Z" fill="#0087C7"/>
<path d="M312.987 47.5322H310.65V49.8699H312.987V47.5322Z" fill="#0087C7"/>
<path d="M27.7919 36.623L27.2724 36.3633L27.0127 36.8828L27.5322 37.1425L27.7919 36.623Z" fill="#0087C7"/>
<path d="M311.429 29.0918H307.792V32.7281H311.429V29.0918Z" fill="#0087C7"/>
<path d="M311.428 23.3708V19.7344H307.792V23.3708H311.428Z" fill="#0087C7"/>
<path d="M311.333 71.8463V68.21H307.696V71.8463H311.333Z" fill="#0087C7"/>
<path d="M311.348 79.654V76.0176H307.711V79.654H311.348Z" fill="#0087C7"/>
<path d="M311.272 61.9157V58.2793H307.636V61.9157H311.272Z" fill="#0087C7"/>
<path d="M311.241 59.026V55.3896H307.604V59.026H311.241Z" fill="#0087C7"/>
<path d="M311.169 64.6768L310.909 64.9365L311.169 65.1962V64.6768Z" fill="#0087C7"/>
<path d="M311.169 66.4922L310.39 66.7519L310.649 67.5312H311.169V66.4922Z" fill="#0087C7"/>
<path d="M311.169 72.7275L310.13 72.9873L310.389 74.286L311.169 74.0262V72.7275Z" fill="#0087C7"/>
</svg>

