<svg width="64" height="64" viewBox="0 0 450 473" fill="none" xmlns="http://www.w3.org/2000/svg" class=" h-[64px] w-[64px] object-contain">
    <g clip-path="url(#svg-id-2973-clip0_31_5)">
        <path d="M442.499 321.92C413.693 294.501 385.808 266.13 355.667 236.246C385.66 206.669 413.714 178.425 442.52 150.963C450.699 143.178 452.235 137.307 446.779 126.834C394.718 26.8474 275.774 -23.1353 168.145 10.3663C57.8139 44.7142 -12.6287 152.529 1.8963 264.818C15.3513 368.814 91.9175 449.463 195.807 469.065C295.194 487.809 396.275 438.334 446.027 347.297C451.769 336.782 451.43 330.414 442.51 321.92H442.499ZM406.372 349.995C353.961 428.158 253.801 460.401 164.998 427.058C75.6126 393.493 22.7674 304.18 34.9193 207.251C46.1918 117.557 123.341 42.7678 214.983 34.2205C293.859 26.8685 356.822 56.2446 403.903 119.704C406.976 123.84 409.508 128.378 411.627 131.689C384.59 159.352 359.142 185.396 333.026 212.117C301.942 180.17 270.964 148.361 240.59 117.155C198.953 158.982 159.701 198.418 120.978 237.314C158.588 274.952 197.735 314.134 237.655 354.078C268.029 322.84 298.986 291.01 330.568 258.534C336.268 263.369 339.563 265.812 342.434 268.668C362.956 289.074 383.106 309.871 404.02 329.864C411.129 336.677 412.209 341.289 406.372 349.995ZM307.557 236.193C284.059 259.582 260.073 283.446 236.712 306.687C213.542 283.499 189.906 259.835 166.672 236.595C189.99 213.777 213.839 190.431 238.058 166.735C260.55 189.214 284.218 212.868 307.557 236.193Z" fill="white"></path>
    </g>
    <defs>
        <clipPath id="svg-id-2973-clip0_31_5">
            <rect width="450" height="473" fill="white"></rect>
        </clipPath>
    </defs>
</svg>