<svg width="376" height="64" viewBox="0 0 376 64" fill="none" xmlns="http://www.w3.org/2000/svg">
<path d="M45.0339 49.1325V58.9925H25.8239C22.2194 59.0975 18.6165 58.7378 15.1039 57.9225C12.4778 57.171 10.0546 55.838 8.01387 54.0225C2.68054 49.4425 0.013871 41.9325 0.013871 31.4925C-0.133188 26.1296 0.890579 20.7992 3.01387 15.8725C4.74643 11.8447 7.80139 8.52872 11.6739 6.47246C15.2672 4.63913 20.1272 3.72579 26.2539 3.73246H44.9739V13.5925H27.7239C22.3905 13.5925 18.5239 15.0025 16.1239 17.8225C14.0839 20.1425 13.0639 24.3391 13.0639 30.4125C13.0639 38.5791 14.6372 43.9358 17.7839 46.4825C19.9972 48.2558 23.4472 49.1391 28.1339 49.1325H45.0339Z" fill="#007CC3"/>
<path d="M186.439 20.1318L183.535 16.2969L179.701 19.2003L182.604 23.0352L186.439 20.1318Z" fill="#50ABE0"/>
<path d="M57.2238 8.43262H49.6938V58.9726H57.2238V8.43262Z" fill="#007CC3"/>
<path d="M81.0138 20.7219C78.4397 20.6828 75.8856 21.1791 73.5135 22.1793C71.1413 23.1794 69.0029 24.6616 67.2338 26.5319C63.629 30.2612 61.614 35.2451 61.614 40.4319C61.614 45.6186 63.629 50.6025 67.2338 54.3319C69.0332 56.1651 71.1799 57.6212 73.5485 58.6153C75.9171 59.6093 78.4601 60.1213 81.0288 60.1213C83.5976 60.1213 86.1405 59.6093 88.5091 58.6153C90.8777 57.6212 93.0244 56.1651 94.8238 54.3319C98.409 50.5888 100.405 45.6028 100.394 40.4198C100.383 35.2368 98.3651 30.2594 94.7638 26.5319C93.0008 24.662 90.8678 23.1797 88.5005 22.1794C86.1332 21.1791 83.5835 20.6827 81.0138 20.7219ZM92.7638 40.6119C92.7987 42.2069 92.511 43.7926 91.9182 45.2738C91.3254 46.7551 90.4396 48.1013 89.3138 49.2319C88.2298 50.3486 86.9326 51.2365 85.4992 51.8427C84.0657 52.449 82.5252 52.7614 80.9688 52.7614C79.4125 52.7614 77.8719 52.449 76.4385 51.8427C75.005 51.2365 73.7079 50.3486 72.6238 49.2319C71.52 48.0877 70.6546 46.7356 70.0778 45.2541C69.501 43.7726 69.2243 42.1912 69.2638 40.6019C69.2351 38.9787 69.5288 37.366 70.1279 35.8571C70.727 34.3483 71.6195 32.9733 72.7538 31.8119C73.7938 30.6558 75.0653 29.7313 76.4857 29.0985C77.9061 28.4656 79.4438 28.1386 80.9988 28.1386C82.5539 28.1386 84.0915 28.4656 85.5119 29.0985C86.9324 29.7313 88.2039 30.6558 89.2438 31.8119C90.3898 32.9683 91.2918 34.3432 91.8965 35.8548C92.5011 37.3664 92.7961 38.9841 92.7638 40.6119Z" fill="#007CC3"/>
<path d="M130.304 35.7921C130.42 38.804 130.226 41.82 129.724 44.7921C129.341 46.2495 128.66 47.6116 127.724 48.7921C126.784 50.0029 125.594 50.9958 124.234 51.7021C122.969 52.3541 121.567 52.6968 120.144 52.7021C118.935 52.7349 117.732 52.5276 116.604 52.0921C115.706 51.7097 114.928 51.0911 114.354 50.3021C113.685 49.3482 113.203 48.2758 112.934 47.1421C112.498 44.6303 112.327 42.0796 112.424 39.5321V21.6221H104.894V40.7921C104.894 45.7921 105.424 49.3821 106.534 51.7921C107.596 54.2184 109.358 56.2727 111.594 57.6921C113.831 59.1141 116.433 59.8574 119.084 59.8321C123.271 59.8411 127.3 58.2284 130.324 55.3321V58.9321H137.914V21.6221H130.324L130.304 35.7921Z" fill="#007CC3"/>
<path d="M174.334 8.42188V25.2819C171.143 22.2991 166.922 20.6652 162.554 20.7219C159.973 20.6785 157.411 21.1697 155.029 22.1644C152.648 23.1591 150.497 24.6359 148.714 26.5019C146.884 28.3173 145.439 30.483 144.465 32.8695C143.49 35.256 143.007 37.8144 143.044 40.3919C143.009 42.9658 143.487 45.5209 144.448 47.9089C145.409 50.2968 146.836 52.4699 148.644 54.3019C150.378 56.1663 152.483 57.6473 154.823 58.6496C157.164 59.6519 159.688 60.1534 162.234 60.1219C166.72 60.1127 171.039 58.4172 174.334 55.3719V58.9619H181.824V8.42188H174.334ZM174.594 40.6119C174.626 43.8218 173.39 46.9146 171.154 49.2179C168.918 51.5213 165.863 52.8488 162.654 52.9119C161.061 52.9339 159.481 52.6142 158.022 51.9742C156.562 51.3342 155.257 50.3889 154.194 49.2019C151.932 46.8738 150.66 43.7607 150.643 40.515C150.626 37.2693 151.867 34.1432 154.104 31.7919C155.208 30.6422 156.53 29.7251 157.994 29.0947C159.458 28.4642 161.033 28.1332 162.627 28.1211C164.22 28.1089 165.8 28.416 167.273 29.0241C168.746 29.6322 170.083 30.5291 171.204 31.6619C172.334 32.8547 173.215 34.2602 173.797 35.7966C174.379 37.3331 174.65 38.9699 174.594 40.6119Z" fill="#007CC3"/>
<path d="M270.714 25.2824C267.519 22.3058 263.3 20.673 258.934 20.7224C256.353 20.679 253.791 21.1702 251.409 22.1649C249.027 23.1596 246.877 24.6364 245.094 26.5024C243.267 28.3117 241.823 30.4706 240.849 32.8502C239.875 35.2298 239.39 37.7813 239.424 40.3524C239.391 42.9302 239.872 45.4888 240.838 47.8788C241.805 50.2688 243.238 52.4423 245.054 54.2724C246.786 56.1412 248.89 57.6271 251.23 58.6346C253.571 59.6421 256.096 60.1489 258.644 60.1224C263.121 60.1096 267.429 58.4141 270.714 55.3724V58.9624H278.174V21.6224H270.714V25.2824ZM267.494 31.6724C268.643 32.8409 269.544 34.2301 270.142 35.7563C270.74 37.2825 271.023 38.9139 270.974 40.5524C271.023 42.1886 270.734 43.8174 270.125 45.3368C269.516 46.8563 268.6 48.2335 267.434 49.3824C266.351 50.5185 265.045 51.4185 263.598 52.0259C262.15 52.6334 260.593 52.9352 259.024 52.9124C257.433 52.9337 255.857 52.6166 254.398 51.9821C252.939 51.3477 251.632 50.4104 250.564 49.2324C248.296 46.8989 247.024 43.7761 247.014 40.5225C247.005 37.2689 248.26 34.1388 250.514 31.7924C251.581 30.608 252.891 29.6672 254.354 29.034C255.817 28.4007 257.4 28.0898 258.994 28.1224C260.58 28.0865 262.156 28.3839 263.62 28.9954C265.085 29.6069 266.404 30.5189 267.494 31.6724Z" fill="#50ABE0"/>
<path d="M311.264 22.8619C309.041 21.4492 306.458 20.7063 303.824 20.7219C299.636 20.7129 295.608 22.3256 292.584 25.2219V21.6219H284.994V58.9619H292.584V44.7919C292.463 41.7799 292.658 38.7635 293.164 35.7919C293.547 34.3349 294.228 32.973 295.164 31.7919C296.098 30.5756 297.29 29.5817 298.654 28.8819C299.917 28.2237 301.32 27.8806 302.744 27.8819C303.953 27.8453 305.157 28.0528 306.284 28.4919C307.181 28.8719 307.956 29.4911 308.524 30.2819C309.196 31.2352 309.682 32.3075 309.954 33.4419C310.389 35.9505 310.56 38.4977 310.464 41.0419V58.9119H317.994V39.7919C317.994 34.7919 317.454 31.2019 316.354 28.7919C315.289 26.3505 313.516 24.2847 311.264 22.8619Z" fill="#50ABE0"/>
<path d="M353.954 25.2822C350.762 22.2994 346.542 20.6656 342.174 20.7222C339.593 20.6801 337.032 21.1718 334.65 22.1664C332.268 23.1611 330.118 24.6372 328.334 26.5022C326.507 28.3116 325.063 30.4705 324.089 32.8501C323.115 35.2297 322.63 37.7812 322.664 40.3522C322.633 42.9298 323.115 45.4877 324.081 47.8774C325.048 50.2671 326.48 52.4408 328.294 54.2722C330.027 56.1396 332.131 57.6245 334.471 58.6319C336.811 59.6393 339.336 60.1469 341.884 60.1222C346.361 60.1094 350.669 58.4139 353.954 55.3722V58.9622H361.424V21.6222H353.954V25.2822ZM350.734 31.6722C351.883 32.8408 352.784 34.23 353.382 35.7562C353.98 37.2823 354.263 38.9138 354.214 40.5522C354.265 42.1878 353.978 43.8164 353.371 45.3358C352.763 46.8553 351.849 48.2329 350.684 49.3822C349.6 50.5169 348.293 51.4159 346.846 52.0233C345.399 52.6306 343.843 52.9332 342.274 52.9122C340.683 52.9355 339.106 52.6192 337.647 51.9847C336.188 51.3501 334.881 50.4117 333.814 49.2322C331.547 46.8989 330.275 43.7772 330.263 40.5243C330.252 37.2715 331.503 34.1411 333.754 31.7922C334.823 30.6076 336.135 29.6668 337.599 29.0335C339.064 28.4003 340.648 28.0895 342.244 28.1222C343.829 28.0853 345.404 28.3822 346.867 28.9938C348.329 29.6055 349.647 30.518 350.734 31.6722Z" fill="#50ABE0"/>
<path d="M375.074 8.43262H367.544V58.9726H375.074V8.43262Z" fill="#50ABE0"/>
<path d="M235.674 49.1325V58.9925H216.454C212.846 59.0968 209.24 58.7372 205.724 57.9225C203.098 57.171 200.675 55.838 198.634 54.0225C193.334 49.4425 190.684 41.9325 190.684 31.4925C190.537 26.1296 191.561 20.7992 193.684 15.8725C195.42 11.8469 198.474 8.53193 202.344 6.47246C205.93 4.63913 210.79 3.72579 216.924 3.73246H235.654V13.5925H218.354C213.054 13.5925 209.187 15.0025 206.754 17.8225C204.714 20.1425 203.694 24.3391 203.694 30.4125C203.694 38.5791 205.267 43.9358 208.414 46.4825C210.627 48.2558 214.077 49.1391 218.764 49.1325H235.674Z" fill="#50ABE0"/>
<path d="M13.819 43.4834L13.2261 43.2705L13.0132 43.8635L13.6061 44.0763L13.819 43.4834Z" fill="white"/>
<path d="M18.591 51.7021L17.998 51.4893L17.7852 52.0822L18.3781 52.2951L18.591 51.7021Z" fill="white"/>
<path d="M11.7914 51.5811L11.1985 51.3682L10.9856 51.9611L11.5785 52.174L11.7914 51.5811Z" fill="white"/>
<path d="M37.6144 44.4734L33.3184 46.2266L35.0715 50.5226L39.3676 48.7694L37.6144 44.4734Z" fill="white"/>
<path d="M45.4838 46.1523H34.3337V63.9323H45.4838V46.1523Z" fill="white"/>
<path d="M40.2692 53.2932L37.7786 54.3096L38.795 56.8002L41.2855 55.7838L40.2692 53.2932Z" fill="white"/>
<path d="M40.4393 50.0921L38.6523 50.8213L39.3816 52.6082L41.1685 51.879L40.4393 50.0921Z" fill="white"/>
<path d="M45.9128 46.8565L43.5547 45.3467L42.0449 47.7048L44.403 49.2145L45.9128 46.8565Z" fill="#007CC3"/>
<path d="M43.584 55.8998L40.2827 53.7861L38.169 57.0874L41.4703 59.2012L43.584 55.8998Z" fill="#007CC3"/>
<path d="M40.7217 49.9373L38.6848 50.7686L39.5161 52.8055L41.553 51.9742L40.7217 49.9373Z" fill="#007CC3"/>
<path d="M47.4555 55.4622L45.353 54.6895L44.5803 56.7919L46.6828 57.5647L47.4555 55.4622Z" fill="#007CC3"/>
<path d="M46.3481 59.8365L44.8745 59.2949L44.3329 60.7685L45.8065 61.3102L46.3481 59.8365Z" fill="#007CC3"/>
<path d="M38.5254 60.0081L37.0254 60.4365L37.4538 61.9365L38.9538 61.5081L38.5254 60.0081Z" fill="#007CC3"/>
<path d="M45.7666 51.4468L44.7788 51.291L44.6231 52.2788L45.6109 52.4346L45.7666 51.4468Z" fill="#007CC3"/>
<path d="M29.6088 52.4048L26.7273 51.3457L25.6682 54.2272L28.5498 55.2863L29.6088 52.4048Z" fill="white"/>
<path d="M24.6875 48.876L21.3555 47.6514L20.1308 50.9834L23.4629 52.2081L24.6875 48.876Z" fill="white"/>
<path d="M194.174 23.3254L188.617 21.2832L186.575 26.8398L192.131 28.882L194.174 23.3254Z" fill="white"/>
<path d="M200.404 20.4367L197.657 17.0898L194.31 19.8371L197.057 23.1839L200.404 20.4367Z" fill="white"/>
<path d="M201.388 9.4348L198.641 6.08789L195.294 8.83511L198.041 12.182L201.388 9.4348Z" fill="white"/>
<path d="M203.39 23.284L202.178 21.8076L200.702 23.0194L201.914 24.4958L203.39 23.284Z" fill="white"/>
<path d="M198.989 14.4757L198.253 13.5791L197.357 14.3151L198.093 15.2117L198.989 14.4757Z" fill="white"/>
<path d="M193.122 31.2319L191.827 30.7559L191.351 32.0511L192.646 32.5272L193.122 31.2319Z" fill="white"/>
<path d="M199.341 24.8774L198.046 24.4014L197.57 25.6967L198.865 26.1727L199.341 24.8774Z" fill="white"/>
<path d="M201.108 30.811L199.812 30.335L199.336 31.6303L200.631 32.1063L201.108 30.811Z" fill="white"/>
<path d="M196.39 33.0912L193.712 33.7979L194.419 36.4762L197.097 35.7696L196.39 33.0912Z" fill="white"/>
<path d="M201.632 33.2894L198.78 34.042L199.532 36.8944L202.385 36.1418L201.632 33.2894Z" fill="white"/>
<path d="M203.036 48.275L201.151 48.7725L201.648 50.6579L203.534 50.1605L203.036 48.275Z" fill="white"/>
<path d="M203.561 43.03L200.825 43.752L201.547 46.4883L204.283 45.7664L203.561 43.03Z" fill="white"/>
<path d="M196.805 48.1938L195.369 51.2207L198.396 52.6561L199.832 49.6291L196.805 48.1938Z" fill="white"/>
<path d="M203.327 52.0075L202.269 54.2393L204.5 55.2976L205.559 53.0658L203.327 52.0075Z" fill="white"/>
<path d="M208.102 51.9697L207.592 53.0449L208.668 53.5548L209.177 52.4796L208.102 51.9697Z" fill="white"/>
<path d="M190.245 52.1342L188.81 55.1611L191.836 56.5965L193.272 53.5695L190.245 52.1342Z" fill="#50ABE0"/>
<path d="M198.529 55.3265L197.873 56.709L199.256 57.3645L199.911 55.9821L198.529 55.3265Z" fill="#50ABE0"/>
<path d="M199.119 44.2764L197.871 44.6055L198.2 45.8528L199.448 45.5237L199.119 44.2764Z" fill="white"/>
<path d="M201.637 40.2585L200.97 40.4346L201.146 41.1017L201.813 40.9257L201.637 40.2585Z" fill="white"/>
<path d="M207.949 47.0423L207.279 47.2217L207.459 47.891L208.128 47.7116L207.949 47.0423Z" fill="white"/>
<path d="M197.836 26.2054L194.336 27.1289L195.259 30.6291L198.76 29.7056L197.836 26.2054Z" fill="white"/>
<path d="M204.813 12.0451L201.342 12.9609L202.258 16.4322L205.729 15.5163L204.813 12.0451Z" fill="white"/>
<path d="M207.556 5.67908L205.937 6.11328L206.371 7.73318L207.991 7.29898L207.556 5.67908Z" fill="white"/>
<path d="M210.263 9.63622L209.157 9.93262L209.453 11.0384L210.559 10.742L210.263 9.63622Z" fill="white"/>
<path d="M196.522 38.1639L193.296 40.6455L195.778 43.8714L199.004 41.3898L196.522 38.1639Z" fill="white"/>
<path d="M193.102 43.4365L189.329 46.3389L192.232 50.1117L196.004 47.2094L193.102 43.4365Z" fill="white"/>
<path d="M190.978 34.5848L187.752 37.0664L190.234 40.2923L193.46 37.8107L190.978 34.5848Z" fill="white"/>
<path d="M17.13 47.7081L14.7834 46.8457L13.921 49.1922L16.2676 50.0547L17.13 47.7081Z" fill="white"/>
<path d="M23.4123 55.7691L23.1499 54.5674L21.9482 54.8298L22.2107 56.0315L23.4123 55.7691Z" fill="white"/>
<path d="M31.718 56.938L31.4556 55.7363L30.2539 55.9988L30.5163 57.2004L31.718 56.938Z" fill="white"/>
<path d="M26.4485 58.2682L26.1113 56.7246L24.5677 57.0617L24.9048 58.6054L26.4485 58.2682Z" fill="white"/>
<path d="M22.3635 59.8229L22.0264 58.2793L20.4828 58.6164L20.8199 60.16L22.3635 59.8229Z" fill="white"/>
<path d="M20.6928 55.7526L20.2329 53.6064L18.0867 54.0663L18.5466 56.2125L20.6928 55.7526Z" fill="white"/>
<path d="M31.0638 49.4434L29.5996 48.9053L29.0615 50.3695L30.5257 50.9077L31.0638 49.4434Z" fill="white"/>
<path d="M16.0879 52.4447L14.9709 52.0342L14.5604 53.1511L15.6774 53.5616L16.0879 52.4447Z" fill="white"/>
<path d="M18.0773 55.1244L16.6104 54.5938L16.0797 56.0607L17.5467 56.5913L18.0773 55.1244Z" fill="white"/>
<path d="M34.2354 47.0252L35.4575 49.4775L37.9099 48.2554L36.6877 45.8031L34.2354 47.0252Z" fill="#007CC3"/>
<path d="M36.4234 48.4915L32.5811 50.0596L34.1491 53.9019L37.9915 52.3339L36.4234 48.4915Z" fill="#007CC3" stroke="white" stroke-width="0.5" stroke-miterlimit="10"/>
<path d="M37.0139 56.1221H33.9138V59.222H37.0139V56.1221Z" fill="#007CC3"/>
<path d="M18.5981 7.23828L18.0051 7.02539L17.7922 7.61834L18.3852 7.83123L18.5981 7.23828Z" fill="white"/>
<path d="M11.7985 7.11718L11.2056 6.9043L10.9927 7.49724L11.5856 7.71012L11.7985 7.11718Z" fill="white"/>
<path d="M37.612 -0.000251334L33.3159 1.75293L35.0691 6.04897L39.3651 4.29579L37.612 -0.000251334Z" fill="white"/>
<path d="M40.2765 8.81954L37.7859 9.83594L38.8023 12.3265L41.2929 11.3101L40.2765 8.81954Z" fill="white"/>
<path d="M40.4366 5.61842L38.6497 6.34766L39.3789 8.13459L41.1658 7.40535L40.4366 5.61842Z" fill="white"/>
<path d="M45.9128 3.87796L43.5547 2.36816L42.0449 4.72624L44.403 6.23604L45.9128 3.87796Z" fill="#007CC3"/>
<path d="M43.5882 11.4301L40.2869 9.31641L38.1732 12.6177L41.4745 14.7314L43.5882 11.4301Z" fill="#007CC3"/>
<path d="M40.7291 5.47442L38.6921 6.30566L39.5234 8.34258L41.5603 7.51133L40.7291 5.47442Z" fill="#007CC3"/>
<path d="M47.4499 10.9827L45.3474 10.21L44.5747 12.3125L46.6772 13.0852L47.4499 10.9827Z" fill="#007CC3"/>
<path d="M50.2473 6.2212L49.2336 5.84863L48.8611 6.86234L49.8748 7.23491L50.2473 6.2212Z" fill="#007CC3"/>
<path d="M46.3525 15.357L44.8789 14.8154L44.3373 16.2891L45.8109 16.8307L46.3525 15.357Z" fill="#007CC3"/>
<path d="M38.5227 15.5384L37.0227 15.9668L37.4511 17.4668L38.9511 17.0384L38.5227 15.5384Z" fill="#007CC3"/>
<path d="M45.7725 6.97899L44.7847 6.82324L44.6289 7.81104L45.6167 7.96678L45.7725 6.97899Z" fill="#007CC3"/>
<path d="M29.6096 7.93406L26.728 6.875L25.669 9.75654L28.5505 10.8156L29.6096 7.93406Z" fill="white"/>
<path d="M24.6883 4.40531L21.3562 3.18066L20.1316 6.51274L23.4636 7.73739L24.6883 4.40531Z" fill="white"/>
<path d="M17.1307 3.23743L14.7842 2.375L13.9218 4.72154L16.2683 5.58396L17.1307 3.23743Z" fill="white"/>
<path d="M23.4182 11.3013L23.1558 10.0996L21.9541 10.3621L22.2165 11.5637L23.4182 11.3013Z" fill="white"/>
<path d="M31.7139 12.4692L31.4514 11.2676L30.2497 11.53L30.5122 12.7317L31.7139 12.4692Z" fill="white"/>
<path d="M26.4445 13.7995L26.1074 12.2559L24.5638 12.593L24.9009 14.1366L26.4445 13.7995Z" fill="white"/>
<path d="M22.3596 15.3542L22.0225 13.8105L20.4789 14.1477L20.816 15.6913L22.3596 15.3542Z" fill="white"/>
<path d="M21.4468 11.2968L20.9795 9.15723L18.8399 9.62451L19.3072 11.7641L21.4468 11.2968Z" fill="white"/>
<path d="M31.0648 4.9737L29.6006 4.43555L29.0624 5.89978L30.5267 6.43793L31.0648 4.9737Z" fill="white"/>
<path d="M16.0789 7.97399L14.9619 7.56348L14.5514 8.68042L15.6683 9.09093L16.0789 7.97399Z" fill="white"/>
<path d="M17.8571 10.5931L16.3901 10.0625L15.8595 11.5295L17.3265 12.0601L17.8571 10.5931Z" fill="white"/>
<path d="M34.2344 2.55061L35.4565 5.00293L37.9089 3.78078L36.6867 1.32845L34.2344 2.55061Z" fill="#007CC3"/>
<path d="M36.4207 4.02767L32.5784 5.5957L34.1464 9.43807L37.9888 7.87003L36.4207 4.02767Z" fill="#007CC3" stroke="white" stroke-width="0.5" stroke-miterlimit="10"/>
<path d="M37.0139 11.6523H33.9138V14.7523H37.0139V11.6523Z" fill="#007CC3"/>
<path d="M189.651 44.355L185.737 46.3662L187.749 50.2796L191.662 48.2684L189.651 44.355Z" fill="#50ABE0"/>
<path d="M189.412 33.0418L187.362 30.9912L185.311 33.0418L187.362 35.0924L189.412 33.0418Z" fill="#50ABE0"/>
<path d="M191.447 38.174L190.927 36.2324L188.986 36.7523L189.506 38.6939L191.447 38.174Z" fill="#50ABE0"/>
<path d="M189.864 18.4798L190.247 17.4062L189.174 17.0227L188.79 18.0963L189.864 18.4798Z" fill="#50ABE0"/>
<path d="M190.613 26.7956L191.597 23.541L188.343 22.5572L187.359 25.8117L190.613 26.7956Z" fill="#50ABE0"/>
<path d="M187.716 13.1298L187.046 10.6279L184.544 11.2978L185.214 13.7997L187.716 13.1298Z" fill="#50ABE0"/>
<path d="M192.73 14.5677L192.945 13.1641L191.541 12.9493L191.326 14.3529L192.73 14.5677Z" fill="#50ABE0"/>
<path d="M192.37 49.8893L191.804 51.082L192.997 51.6476L193.562 50.4549L192.37 49.8893Z" fill="#50ABE0"/>
<path d="M183.932 38.4174L181.711 40.6377L183.932 42.858L186.152 40.6377L183.932 38.4174Z" fill="#50ABE0"/>
</svg>
