<svg width="132" height="22" viewBox="0 0 132 22" fill="none" xmlns="http://www.w3.org/2000/svg"><path d="m18.318 9.275-8.631 4.859L.445 8.942 0 9.182v3.77l9.687 5.431 8.63-4.84v1.995l-8.63 4.86-9.242-5.192-.445.24v.646l9.687 5.432 9.668-5.432v-3.769l-.445-.24-9.223 5.173-8.65-4.84V10.42l8.65 4.84 9.668-5.43V6.114l-.482-.277-9.186 5.155L1.482 6.41l8.205-4.6 6.741 3.787.593-.332v-.462L9.687.684 0 6.115v.592l9.687 5.432 8.63-4.86z" fill="#EE3D2C"/><path d="M37.449 18.443V1.852h-2.556v6.207c0 .093-.056.167-.148.204a.23.23 0 0 1-.24-.056c-.871-1.016-2.223-1.589-3.705-1.589-3.167 0-5.65 2.66-5.65 6.06 0 1.663.575 3.197 1.63 4.324a5.44 5.44 0 0 0 4.02 1.736c1.463 0 2.815-.61 3.704-1.662.056-.074.167-.093.24-.074.093.037.15.11.15.203v1.238zm-6.093-2.014c-2.038 0-3.63-1.644-3.63-3.75 0-2.107 1.592-3.751 3.63-3.751s3.63 1.644 3.63 3.75-1.593 3.75-3.63 3.75m19.762 2.016V6.896h-2.537V8.06c0 .093-.056.166-.149.203a.2.2 0 0 1-.24-.073c-.852-1.017-2.186-1.59-3.705-1.59-3.167 0-5.649 2.661-5.649 6.06 0 3.4 2.482 6.06 5.65 6.06 1.463 0 2.815-.61 3.704-1.68.055-.075.166-.093.24-.075.093.037.149.111.149.204v1.256h2.537zm-6.056-2.014c-2.038 0-3.63-1.645-3.63-3.75 0-2.107 1.592-3.751 3.63-3.751s3.63 1.644 3.63 3.75-1.593 3.75-3.63 3.75m27.781 2.015V6.896h-2.538V8.06c0 .093-.055.166-.148.203s-.185 0-.24-.073c-.853-1.017-2.186-1.59-3.705-1.59-3.186 0-5.649 2.661-5.649 6.08 0 3.417 2.482 6.06 5.649 6.06 1.463 0 2.815-.61 3.704-1.682.056-.074.167-.093.241-.074.093.037.148.11.148.203v1.256zm-6.057-2.014c-2.037 0-3.63-1.645-3.63-3.75 0-2.107 1.593-3.751 3.63-3.751s3.63 1.644 3.63 3.75-1.593 3.75-3.63 3.75m10.706.647c.019 0 .056-.019.074-.019.056 0 .13.037.167.074.87 1.016 2.222 1.589 3.704 1.589 3.167 0 5.65-2.66 5.65-6.06 0-1.663-.575-3.196-1.63-4.323a5.44 5.44 0 0 0-4.02-1.737c-1.463 0-2.815.61-3.704 1.663-.056.074-.148.092-.24.074-.093-.037-.149-.111-.149-.204V1.852h-2.556v16.59h2.556V17.28c0-.093.056-.166.148-.203m-.26-4.398c0-2.106 1.594-3.75 3.631-3.75s3.63 1.644 3.63 3.75-1.593 3.75-3.63 3.75-3.63-1.662-3.63-3.75m17.244-3.416c.24 0 .463.019.61.056V6.695a2.4 2.4 0 0 0-.425-.037c-1.334 0-2.556.684-3.204 1.774-.056.092-.149.13-.241.092a.22.22 0 0 1-.167-.203V6.898h-2.537v11.566h2.556v-5.1c0-2.53 1.296-4.1 3.408-4.1m4.815-2.367h-2.593v11.566h2.593zM97.958 1.87a1.571 1.571 0 1 0 0 3.141 1.571 1.571 0 1 0 0-3.14m8.928 4.729c-3.556 0-6.131 2.55-6.131 6.08 0 1.717.612 3.25 1.704 4.36 1.112 1.108 2.667 1.718 4.408 1.718 1.445 0 2.556-.277 4.668-1.83l-1.463-1.533c-1.038.684-2.001 1.016-2.945 1.016-2.149 0-3.76-1.607-3.76-3.732s1.611-3.732 3.76-3.732c1.018 0 1.963.333 2.908 1.016l1.629-1.533c-1.907-1.626-3.63-1.83-4.778-1.83m9.149 6.762a.2.2 0 0 1 .149-.055h.018c.056 0 .111.037.167.073l4.093 5.063h3.149l-5.297-6.393c-.075-.092-.075-.222.018-.295l4.871-4.86h-3.13l-4.204 4.213c-.056.055-.148.074-.241.055a.23.23 0 0 1-.13-.203V1.87h-2.574v16.591h2.556v-4.508c0-.055.018-.13.074-.166z" fill="#000"/><path d="M127.776 18.739c2.093 0 4.223-1.275 4.223-3.695 0-1.589-1-2.68-3.037-3.344l-1.39-.462c-.944-.314-1.389-.758-1.389-1.367 0-.702.63-1.183 1.519-1.183.852 0 1.611.555 2.093 1.515l2.056-1.108c-.759-1.552-2.334-2.513-4.149-2.513-2.297 0-3.963 1.478-3.963 3.492 0 1.607.963 2.679 2.944 3.307l1.427.462c1 .314 1.426.72 1.426 1.367 0 .98-.908 1.33-1.686 1.33-1.037 0-1.963-.665-2.407-1.755l-2.093 1.109c.685 1.755 2.37 2.845 4.426 2.845m-69.546-.111c.815 0 1.538-.074 1.945-.13v-2.216a14 14 0 0 1-1.278.073c-1.037 0-1.833-.184-1.833-2.42V9.187c0-.13.092-.222.222-.222h2.5V6.877h-2.5a.214.214 0 0 1-.222-.221V3.33h-2.556v3.344c0 .13-.093.222-.223.222h-1.778v2.088h1.778c.13 0 .223.092.223.221v5.377c0 4.046 2.704 4.046 3.722 4.046" fill="#000"/></svg>