<svg width="2708" height="602" viewBox="0 0 2708 602" fill="none" xmlns="http://www.w3.org/2000/svg">
<rect x="19.2539" y="0.00732422" width="300.847" height="300.847" fill="#2D2D2D"/>
<rect x="19" y="301" width="300.847" height="300.847" rx="150.424" fill="#0D0D0D"/>
<path d="M319.5 -6.10352e-05C361.457 -6.10352e-05 403.004 7.78156 441.767 22.9006C480.531 38.0196 515.752 60.1799 545.421 88.1161C575.089 116.052 598.623 149.218 614.68 185.718C630.736 222.219 639 261.34 639 300.847C639 340.355 630.736 379.476 614.68 415.977C598.623 452.477 575.089 485.642 545.421 513.579C515.752 541.515 480.531 563.675 441.767 578.794C403.004 593.913 361.457 601.695 319.5 601.695V300.847L319.5 -6.10352e-05Z" fill="#5D5D5D"/>
<path d="M843.364 143.028H948.781C973.465 143.028 995.681 146.803 1015.43 154.354C1035.18 161.905 1052.02 172.649 1065.96 186.589C1079.9 200.238 1090.5 216.646 1097.76 235.813C1105.31 254.979 1109.08 276.034 1109.08 298.976C1109.08 322.208 1105.31 343.408 1097.76 362.574C1090.5 381.741 1079.9 398.149 1065.96 411.798C1052.02 425.447 1035.18 436.047 1015.43 443.598C995.681 451.148 973.465 454.923 948.781 454.923H843.364V143.028ZM946.167 399.166C963.301 399.166 978.402 396.842 991.47 392.196C1004.54 387.259 1015.43 380.434 1024.14 371.722C1032.85 363.01 1039.39 352.556 1043.74 340.358C1048.1 327.871 1050.28 314.077 1050.28 298.976C1050.28 283.875 1048.1 270.226 1043.74 258.029C1039.39 245.541 1032.85 234.941 1024.14 226.229C1015.43 217.517 1004.54 210.838 991.47 206.191C978.402 201.254 963.301 198.786 946.167 198.786H902.171V399.166H946.167ZM1281.04 432.272H1277.56C1270.88 440.403 1262.75 447.373 1253.16 453.181C1243.87 458.989 1231.82 461.893 1217.01 461.893C1205.97 461.893 1195.52 460.005 1185.64 456.23C1176.06 452.745 1167.64 447.808 1160.38 441.419C1153.12 435.031 1147.45 427.335 1143.39 418.332C1139.32 409.33 1137.29 399.456 1137.29 388.711C1137.29 377.676 1139.47 367.802 1143.82 359.09C1148.18 350.087 1154.28 342.391 1162.12 336.002C1169.96 329.614 1179.11 324.822 1189.56 321.627C1200.31 318.142 1211.92 316.4 1224.41 316.4C1238.35 316.4 1249.82 317.562 1258.82 319.885C1267.83 321.918 1275.23 324.096 1281.04 326.419V319.885C1281.04 308.559 1276.54 299.266 1267.54 292.006C1258.53 284.456 1247.35 280.68 1234 280.68C1214.25 280.68 1197.55 288.957 1183.9 305.51L1142.52 277.195C1165.17 248.736 1196.1 234.506 1235.3 234.506C1268.41 234.506 1293.67 242.347 1311.1 258.029C1328.52 273.42 1337.23 296.362 1337.23 326.855V454.923H1281.04V432.272ZM1281.04 368.237C1274.36 365.043 1267.39 362.574 1260.13 360.832C1253.16 358.799 1245.47 357.783 1237.04 357.783C1223.4 357.783 1212.8 360.832 1205.24 366.931C1197.98 372.739 1194.35 379.999 1194.35 388.711C1194.35 397.423 1197.84 404.393 1204.81 409.62C1212.07 414.847 1220.35 417.461 1229.64 417.461C1237.19 417.461 1244.16 416.154 1250.55 413.541C1256.94 410.637 1262.31 407.006 1266.67 402.65C1271.31 398.004 1274.8 392.777 1277.12 386.969C1279.73 380.87 1281.04 374.626 1281.04 368.237ZM1401.87 290.264H1364.41V241.476H1401.87V176.134H1458.94V241.476H1511.21V290.264H1458.94V373.029C1458.94 377.966 1459.37 382.612 1460.25 386.969C1461.41 391.034 1463.44 394.519 1466.34 397.423C1470.41 402.07 1476.22 404.393 1483.77 404.393C1488.71 404.393 1492.63 403.957 1495.53 403.086C1498.43 401.924 1501.19 400.472 1503.81 398.73L1519.92 448.825C1513.24 452.019 1505.98 454.343 1498.14 455.795C1490.59 457.537 1482.17 458.408 1472.88 458.408C1462.13 458.408 1452.4 456.811 1443.69 453.617C1435.27 450.132 1428.16 445.485 1422.35 439.677C1408.7 426.609 1401.87 408.023 1401.87 383.919V290.264ZM1680.49 432.272H1677C1670.33 440.403 1662.19 447.373 1652.61 453.181C1643.32 458.989 1631.27 461.893 1616.46 461.893C1605.42 461.893 1594.97 460.005 1585.09 456.23C1575.51 452.745 1567.09 447.808 1559.83 441.419C1552.57 435.031 1546.9 427.335 1542.84 418.332C1538.77 409.33 1536.74 399.456 1536.74 388.711C1536.74 377.676 1538.92 367.802 1543.27 359.09C1547.63 350.087 1553.73 342.391 1561.57 336.002C1569.41 329.614 1578.56 324.822 1589.01 321.627C1599.76 318.142 1611.37 316.4 1623.86 316.4C1637.8 316.4 1649.27 317.562 1658.27 319.885C1667.28 321.918 1674.68 324.096 1680.49 326.419V319.885C1680.49 308.559 1675.99 299.266 1666.99 292.006C1657.98 284.456 1646.8 280.68 1633.44 280.68C1613.7 280.68 1597 288.957 1583.35 305.51L1541.97 277.195C1564.62 248.736 1595.55 234.506 1634.75 234.506C1667.86 234.506 1693.12 242.347 1710.55 258.029C1727.97 273.42 1736.68 296.362 1736.68 326.855V454.923H1680.49V432.272ZM1680.49 368.237C1673.81 365.043 1666.84 362.574 1659.58 360.832C1652.61 358.799 1644.91 357.783 1636.49 357.783C1622.84 357.783 1612.24 360.832 1604.69 366.931C1597.43 372.739 1593.8 379.999 1593.8 388.711C1593.8 397.423 1597.29 404.393 1604.26 409.62C1611.52 414.847 1619.79 417.461 1629.09 417.461C1636.64 417.461 1643.61 416.154 1650 413.541C1656.39 410.637 1661.76 407.006 1666.11 402.65C1670.76 398.004 1674.25 392.777 1676.57 386.969C1679.18 380.87 1680.49 374.626 1680.49 368.237ZM1894.88 461.893C1879.19 461.893 1864.82 458.553 1851.75 451.874C1838.97 445.195 1829.1 436.337 1822.13 425.302H1820.39V454.923H1782.05V143.028H1822.13V241.476L1820.39 271.097H1822.13C1829.1 260.061 1838.97 251.204 1851.75 244.525C1864.82 237.845 1879.19 234.506 1894.88 234.506C1923.05 234.506 1946.86 245.541 1966.32 267.612C1986.35 289.973 1996.37 316.836 1996.37 348.199C1996.37 379.854 1986.35 406.716 1966.32 428.787C1946.86 450.858 1923.05 461.893 1894.88 461.893ZM1888.34 425.302C1907.51 425.302 1923.63 418.042 1936.69 403.522C1949.76 389.292 1956.3 370.851 1956.3 348.199C1956.3 325.838 1949.76 307.398 1936.69 292.877C1923.63 278.357 1907.51 271.097 1888.34 271.097C1868.89 271.097 1852.62 278.357 1839.55 292.877C1826.78 307.398 1820.39 325.838 1820.39 348.199C1820.39 370.851 1826.78 389.437 1839.55 403.957C1852.62 418.187 1868.89 425.302 1888.34 425.302ZM2068.86 454.923H2028.79V241.476H2067.12V276.324H2068.86C2072.93 264.998 2081.2 255.415 2093.69 247.574C2106.47 239.443 2118.96 235.377 2131.15 235.377C2142.77 235.377 2152.64 237.119 2160.77 240.604L2148.58 279.373C2143.64 277.341 2135.8 276.324 2125.05 276.324C2109.95 276.324 2096.74 282.423 2085.41 294.62C2074.38 306.817 2068.86 321.047 2068.86 337.309V454.923ZM2207.71 389.582C2207.71 400.037 2212.07 408.749 2220.78 415.719C2229.78 422.688 2240.24 426.173 2252.14 426.173C2268.99 426.173 2283.94 419.93 2297.01 407.442C2310.37 394.955 2317.05 380.289 2317.05 363.446C2304.56 353.572 2287.14 348.635 2264.78 348.635C2248.51 348.635 2234.86 352.556 2223.83 360.396C2213.08 368.237 2207.71 377.966 2207.71 389.582ZM2259.55 234.506C2289.17 234.506 2312.55 242.492 2329.68 258.464C2346.82 274.146 2355.38 295.781 2355.38 323.37V454.923H2317.05V425.302H2315.31C2298.75 449.696 2276.68 461.893 2249.09 461.893C2225.57 461.893 2205.82 454.923 2189.85 440.984C2174.17 427.044 2166.33 409.62 2166.33 388.711C2166.33 366.64 2174.6 349.071 2191.16 336.002C2208 322.934 2230.36 316.4 2258.24 316.4C2282.05 316.4 2301.66 320.756 2317.05 329.468V320.321C2317.05 306.381 2311.53 294.62 2300.5 285.036C2289.46 275.163 2276.54 270.226 2261.73 270.226C2239.37 270.226 2221.65 279.664 2208.58 298.54L2173.3 276.324C2192.76 248.445 2221.51 234.506 2259.55 234.506ZM2452.42 167.858C2452.42 175.699 2449.66 182.378 2444.14 187.896C2438.63 193.413 2431.95 196.172 2424.11 196.172C2416.27 196.172 2409.59 193.413 2404.07 187.896C2398.55 182.378 2395.79 175.699 2395.79 167.858C2395.79 160.017 2398.55 153.338 2404.07 147.82C2409.59 142.302 2416.27 139.543 2424.11 139.543C2431.95 139.543 2438.63 142.302 2444.14 147.82C2449.66 153.338 2452.42 160.017 2452.42 167.858ZM2444.14 241.476V454.923H2404.07V241.476H2444.14ZM2496.3 241.476H2534.63V271.097H2536.37C2542.47 260.642 2551.77 251.93 2564.25 244.96C2577.03 237.991 2590.24 234.506 2603.89 234.506C2630.03 234.506 2650.07 242.056 2664.01 257.157C2678.24 271.968 2685.35 293.168 2685.35 320.756V454.923H2645.28V323.37C2644.4 288.521 2626.83 271.097 2592.57 271.097C2576.59 271.097 2563.24 277.631 2552.49 290.699C2541.75 303.477 2536.37 318.869 2536.37 336.874V454.923H2496.3V241.476Z" fill="#0D0D0D"/>
</svg>
