<svg width="64" height="64" viewBox="0 0 500 486" fill="none" xmlns="http://www.w3.org/2000/svg" class=" h-[64px] w-[64px] object-contain">
    <path fill-rule="evenodd" clip-rule="evenodd" d="M493.828 398.334L264.894 7.02041C259.774 -1.72881 247.126 -1.72881 242.006 7.02041L47.4499 339.566C44.031 345.416 50.2022 352.17 56.3357 349.294C58.8543 348.109 61.7613 346.917 64.9534 345.729L64.8881 345.859C64.8881 345.859 70.2038 343.798 79.1858 340.954C89.0852 337.914 99.933 335.035 109.753 332.603C137.232 326.262 173.239 321.099 205.707 326.489C235.587 331.446 256.396 339.453 271.553 347.323C278.501 350.936 285.064 341.868 279.446 336.409C257.716 315.297 224.279 289.812 173.421 279.132C171.194 278.665 170.078 276.154 171.229 274.189L247.823 143.267C250.342 138.966 256.558 138.966 259.076 143.267L405.358 393.305C408.441 398.571 405.857 405.297 400.07 407.234C388.607 411.064 374.914 413.929 359.586 413.929C349.834 413.929 340.024 412.779 330.19 410.494C330.19 410.494 301.842 406.022 263.952 383.422C226.062 360.826 153.007 331.999 71.0319 378.668C36.1039 401.106 12.8311 431.795 0.567641 451.063C-1.35314 454.079 1.9627 457.675 5.11705 455.992C33.2828 440.95 109.224 405.424 177.654 418.196C218.328 425.784 264.808 456.48 313.126 474.081C393.057 503.692 471.421 454.082 471.589 453.976C479.874 448.504 484.739 444.344 485.567 443.622L486.567 442.75C499.339 431.606 502.387 412.961 493.828 398.334Z" fill="#00ADD4"></path>
</svg>