<?xml version="1.0" encoding="UTF-8" standalone="no"?>
<!-- Generator: Adobe Illustrator 28.2.0, SVG Export Plug-In . SVG Version: 6.00 Build 0)  -->

<svg
   version="1.1"
   id="Layer_1"
   x="0px"
   y="0px"
   viewBox="0 0 462.38014 364.89988"
   xml:space="preserve"
   sodipodi:docname="bear.svg"
   width="416.14185"
   height="328.40988"
   inkscape:version="1.3.2 (091e20e, 2023-11-25)"
   xmlns:inkscape="http://www.inkscape.org/namespaces/inkscape"
   xmlns:sodipodi="http://sodipodi.sourceforge.net/DTD/sodipodi-0.dtd"
   xmlns="http://www.w3.org/2000/svg"
   xmlns:svg="http://www.w3.org/2000/svg"><defs
   id="defs30" /><sodipodi:namedview
   id="namedview30"
   pagecolor="#ffffff"
   bordercolor="#000000"
   borderopacity="0.25"
   inkscape:showpageshadow="2"
   inkscape:pageopacity="0.0"
   inkscape:pagecheckerboard="0"
   inkscape:deskcolor="#d1d1d1"
   inkscape:zoom="0.78028933"
   inkscape:cx="264.00463"
   inkscape:cy="214.02317"
   inkscape:window-width="848"
   inkscape:window-height="1029"
   inkscape:window-x="11"
   inkscape:window-y="265"
   inkscape:window-maximized="0"
   inkscape:current-layer="Layer_1" />
<style
   type="text/css"
   id="style1">
	.st0{fill-rule:evenodd;clip-rule:evenodd;}
	.st2{fill-rule:evenodd;clip-rule:evenodd;fill:#5D7389;}
	.st3{fill-rule:evenodd;clip-rule:evenodd;fill:#32485C;}
	.st4{fill-rule:evenodd;clip-rule:evenodd;fill:#091F34;}
	.st5{fill-rule:evenodd;clip-rule:evenodd;fill:#1E3448;}
	.st6{fill-rule:evenodd;clip-rule:evenodd;fill:#8DA5BA;}
	.st7{fill-rule:evenodd;clip-rule:evenodd;fill:#BCD4EB;}
</style>
<g
   id="g30"
   transform="translate(-321.81,-370.55)">
	
	
	<polygon
   class="st2"
   points="589.92,735.45 565.2,667 520.5,676.26 501.19,735.45 "
   id="polygon1" />
	<polygon
   class="st3"
   points="465.69,638.48 501.19,735.45 565.2,667 519.62,644.6 "
   id="polygon2" />
	<polygon
   class="st4"
   points="521.69,606.85 465.69,638.48 565.2,667 577.88,602.98 "
   id="polygon3" />
	<polygon
   class="st2"
   points="713.52,735.45 677.76,640.79 634.87,671.36 621.61,735.45 "
   id="polygon4" />
	<polygon
   class="st3"
   points="599.75,669.22 621.61,735.45 677.76,640.79 627.82,634.99 "
   id="polygon5" />
	<polygon
   class="st4"
   points="577.88,602.98 599.75,669.22 677.76,640.79 632.36,600.77 "
   id="polygon6" />
	<polygon
   class="st3"
   points="615.57,548.2 577.88,602.98 677.76,640.79 679.37,515.55 "
   id="polygon7" />
	<polygon
   class="st2"
   points="577.88,602.98 679.37,515.55 614.35,492.4 585.41,501.73 565.17,526.72 "
   id="polygon8" />
	<polygon
   class="st3"
   points="577.88,602.98 585.41,501.73 555.3,464.18 491.68,464.17 504.7,535.99 "
   id="polygon9" />
	<polygon
   class="st5"
   points="465.69,638.48 577.88,602.98 530.37,526.48 480.15,577.42 "
   id="polygon10" />
	<polygon
   class="st2"
   points="465.69,638.48 530.37,526.48 500.01,500.1 411.85,471.38 425.38,582.05 "
   id="polygon11" />
	<polygon
   class="st5"
   points="465.69,638.48 411.85,471.38 375.32,558.99 353.5,618.83 385.91,644.1 "
   id="polygon12" />
	<polygon
   class="st4"
   points="399.03,671.86 465.69,638.48 353.5,618.83 337.66,677.14 "
   id="polygon13" />
	<polygon
   class="st3"
   points="411.18,735.45 465.69,638.48 337.66,677.14 352.56,713.22 "
   id="polygon14" />
	<polygon
   class="st2"
   points="321.81,735.45 411.18,735.45 337.66,677.14 "
   id="polygon15" />
	<polygon
   class="st4"
   points="356.36,519.96 353.5,618.83 411.85,471.38 "
   id="polygon16" />
	<polygon
   class="st6"
   points="491.68,464.17 411.85,471.38 530.37,526.48 "
   id="polygon17" />
	<polygon
   class="st2"
   points="660.32,434.83 591.51,419.8 620.35,472.75 679.37,515.55 701.43,477.24 683.19,449.81 "
   id="polygon18" />
	<polygon
   class="st5"
   points="718.6,444.82 683.19,449.81 679.37,515.55 770.24,469.24 "
   id="polygon19" />
	<polygon
   class="st6"
   points="683.19,449.81 770.24,469.24 760.29,437.23 739.82,418.54 711.51,421.5 "
   id="polygon20" />
	<polygon
   class="st7"
   points="784.19,429.94 739.82,418.54 770.24,469.24 "
   id="polygon21" />
	<polygon
   class="st3"
   points="680.32,418.01 683.19,449.81 739.82,418.54 713.2,393.18 "
   id="polygon22" />
	<polygon
   class="st7"
   points="591.51,419.8 683.19,449.81 713.2,393.18 639.56,402.69 "
   id="polygon23" />
	<polygon
   class="st6"
   points="642.9,381.88 639.63,402.88 663.62,399.58 682.86,387.1 665.14,373.34 648.94,370.55 "
   id="polygon24" />
	<polygon
   class="st2"
   points="591.5,419.8 491.68,464.17 585.41,501.73 608.55,469.7 "
   id="polygon25" />
	<polygon
   class="st6"
   points="591.5,419.8 585.41,501.73 679.37,515.55 "
   id="polygon26" />
	<polygon
   class="st2"
   points="454.28,735.45 494.43,735.45 478.2,691.09 464.21,705.85 "
   id="polygon27" />
	<polygon
   class="st3"
   points="445.17,688.99 454.28,735.45 478.2,691.09 463.94,680.75 "
   id="polygon28" />
	<polygon
   class="st4"
   points="445.01,688.2 445.17,688.99 478.2,691.09 464.47,653.58 "
   id="polygon29" />
	<polygon
   class="st2"
   points="713.2,393.18 683.19,449.81 639.56,402.69 682.8,386.9 "
   id="polygon30" />
</g>
</svg>
