<svg width="64" height="64" viewBox="0 0 679 354" fill="none" xmlns="http://www.w3.org/2000/svg" class=" h-[64px] w-[64px] object-contain">
    <path fill-rule="evenodd" clip-rule="evenodd" d="M506.126 0.292969H172.433C77.3535 0.292969 0 79.5691 0 177.012C0 274.455 77.3535 353.731 172.433 353.731H506.126C601.206 353.731 678.56 274.455 678.56 177.012C678.56 79.5691 601.206 0.292969 506.126 0.292969ZM341.539 277.353C336.038 278.519 329.847 278.731 325.64 274.226C324.393 277.164 321.811 276.499 319.396 275.876C318.804 275.724 318.223 275.574 317.674 275.48C317.414 276.222 317.191 276.876 316.949 277.618C307.655 278.255 300.688 268.535 296.257 261.201C291.993 258.836 287.45 256.919 282.876 254.991C278.016 252.942 273.123 250.878 268.495 248.247C268.395 249.882 268.381 251.592 268.368 253.328C268.312 260.524 268.254 268.14 261.96 272.511C261.748 281.184 268.629 281.103 275.398 281.022C281.25 280.953 287.019 280.884 288.049 286.471C287.588 286.524 287.113 286.528 286.639 286.531C285.34 286.542 284.043 286.552 283.032 287.549C279.737 290.834 276.191 289.405 272.519 287.927C269.137 286.566 265.648 285.161 262.15 287.355C258.987 288.988 256.743 290.525 254.745 291.892C250.558 294.758 247.458 296.881 239.25 297.588C238.579 296.544 238.855 295.855 239.423 295.219C240.548 293.881 241.329 292.462 242.078 291.102C243.603 288.332 245 285.795 248.908 284.633C243.681 283.787 239.2 286.252 234.792 288.678C234.139 289.036 233.488 289.394 232.837 289.741C230.081 290.898 228.49 289.989 226.826 289.039C224.523 287.724 222.08 286.329 216.214 290.218C215.093 289.282 215.628 288.433 216.266 287.709C218.834 284.492 222.215 284.015 226.026 284.192C216.092 278.516 208.942 282.535 203.128 285.804C197.971 288.703 193.866 291.011 189.797 285.447C187.95 285.948 186.919 287.303 185.891 288.654C185.47 289.207 185.049 289.76 184.572 290.253C183.569 289.125 183.816 287.827 184.069 286.499C184.173 285.955 184.277 285.408 184.298 284.863C184.045 284.743 183.783 284.631 183.522 284.52C182.028 283.883 180.543 283.248 180.969 280.888C177.838 279.801 175.602 281.543 173.283 283.35L172.882 283.662C171.359 282.452 172.623 280.862 173.794 279.389C174.334 278.711 174.854 278.057 175.071 277.476C176.147 275.561 177.967 275.509 179.773 275.458C181.299 275.415 182.815 275.372 183.866 274.207C187.635 272.01 192.264 273.146 196.938 274.293C200.346 275.13 203.778 275.972 206.92 275.533C212.662 276.275 219.766 270.231 216.886 264.204C211.636 257.328 211.67 248.64 211.705 240.254C211.71 238.837 211.716 237.426 211.696 236.036C211.266 232.857 206.852 229.181 202.422 225.493C199.047 222.682 195.662 219.864 194.022 217.25C189.514 212.019 185.962 205.988 182.446 200.019L182.02 199.296C176.029 187.409 173.616 173.983 171.21 160.592C168.318 144.5 165.435 128.458 156.362 115.195C148.844 119.454 139.05 117.44 132.567 111.732C129.17 114.904 128.923 119.024 128.659 123.417L128.635 123.82C120.237 115.213 121.29 98.9549 127.997 89.377C130.739 85.5953 134.015 82.4849 137.671 79.7457C138.498 79.1273 138.774 78.5264 138.757 77.5721C145.395 46.9645 190.677 52.8669 204.988 74.5502C209.709 80.6182 212.933 87.5775 216.151 94.5278C220.011 102.861 223.864 111.18 230.284 117.936C236.502 124.911 243.061 131.561 249.618 138.21C259.772 148.504 269.923 158.797 278.806 170.297C292.636 187.598 302.517 207.885 311.138 228.332C312.544 231.042 313.393 233.998 314.239 236.942C315.509 241.364 316.772 245.757 319.899 249.237C320.654 250.266 322.275 251.818 324.115 253.581C328.531 257.809 334.219 263.254 332.296 265.637C332.887 266.953 334.916 268.458 337.001 270.004C340.455 272.564 344.059 275.236 341.521 277.353H341.539ZM561.46 172.947L535.957 199.084C529.163 206.048 520.766 211.243 511.661 214.087L511.195 214.229L511.024 214.688C508.057 222.712 503.556 229.869 497.625 235.93L472.121 262.067C461 273.465 446.206 279.738 430.445 279.738C414.684 279.738 399.889 273.465 388.768 262.067C365.782 238.51 365.782 200.197 388.768 176.641L414.271 150.504C421.099 143.506 429.273 138.47 438.532 135.554L438.998 135.412L439.17 134.953C442.136 126.93 446.654 119.756 452.603 113.641L478.105 87.5039C489.227 76.1054 504.022 69.8318 519.782 69.8318C535.543 69.8318 550.337 76.1054 561.46 87.5039C572.582 98.9018 578.703 114.065 578.703 130.217C578.703 146.369 572.582 161.549 561.46 172.93V172.947ZM519.793 95.8808C510.825 95.8808 502.393 99.4506 496.082 105.935L470.579 132.072C463.699 139.124 460.165 148.914 460.889 158.951L461.044 160.612C461.958 168.318 465.252 175.263 470.579 180.705C474.253 184.47 478.305 186.856 483.219 188.516C483.477 190.036 483.615 191.573 483.615 193.111C483.615 200.039 480.995 206.542 476.235 211.419L474.666 213.028C466.148 210.04 459.044 205.676 452.629 199.102C444.112 190.372 438.473 179.345 436.352 167.24L436.059 165.56L434.765 166.639C433.887 167.363 433.058 168.141 432.282 168.935L406.779 195.073C393.709 208.468 393.709 230.293 406.779 243.688C413.314 250.386 421.902 253.744 430.506 253.744C439.111 253.744 447.681 250.386 454.216 243.688L479.719 217.552C492.79 204.156 492.79 182.349 479.719 168.935C476.235 165.366 472.08 162.681 467.373 160.949C467.114 159.375 466.975 157.803 466.975 156.266C466.975 148.738 469.873 141.598 475.184 136.155C483.72 139.141 491.289 143.983 497.686 150.54C506.187 159.252 511.808 170.261 513.963 182.402L514.257 184.081L515.55 183.003C516.43 182.279 517.258 181.5 518.051 180.688L543.554 154.551C556.624 141.156 556.641 119.332 543.554 105.935C537.225 99.4506 528.81 95.8808 519.827 95.8808H519.793ZM236.735 250.699C237.085 248.928 237.422 247.234 237.801 245.72L237.818 245.703C238.408 247.118 238.972 248.55 239.536 249.979C242.783 258.211 246.008 266.386 253.838 271.009C253.493 278.484 244.388 281.505 238.232 280.587C236.887 277.247 234.99 273.889 231.007 275.763C226.973 277.423 222.559 275.48 223.49 270.32C232.915 269.952 235.01 259.391 236.735 250.699Z" fill="white"></path>
</svg>