<svg width="49" height="48" viewBox="0 0 49 48" fill="none" xmlns="http://www.w3.org/2000/svg">
<path fill-rule="evenodd" clip-rule="evenodd" d="M48.1958 0H36.1958V0.00026389L29.843 0.000264168V12.0001H24.1961H24.196H18.5491V0.00026389L12.1963 0.000264168V5.72205e-05H0.196289V12.0001H12.1962V12.0003H0.196385V17.6473V18.3532V24.0001V24.0002V29.6471V30.353V36H12.1964V30.353V29.6471V24.0002V24.0001V18.3532V17.6473V12.0003H17.8432V24.0001H24.196H24.1961H30.5489V12.0003H36.1958V17.6473V24.0001V24.0003V29.6471V29.6473V36V36.0001H48.1958V36V29.6473V29.6471V24.0003V24.0001V12.0003H36.1959V12H48.1958V0ZM12.1962 36.0003H24.1962V41.6473V42.3533V48.0003H12.1962V42.3533V41.6473V36.0003ZM48.1958 36.0003H36.1958V41.6473V42.3533V48.0003H48.1958V42.3533V41.6473V36.0003Z" fill="white"/>
</svg>
