<svg viewBox="0 0 134.96 135.57" xmlns="http://www.w3.org/2000/svg" xmlns:xlink="http://www.w3.org/1999/xlink"><linearGradient id="a" gradientUnits="userSpaceOnUse" x1="105.39" x2="-22.15" y1="148.5" y2="84.15"><stop offset="0" stop-color="#f9952a"/><stop offset="1" stop-color="#f15635"/></linearGradient><linearGradient id="b" x1="111.84" x2="-15.71" xlink:href="#a" y1="135.73" y2="71.39"/><linearGradient id="c" x1="118.28" x2="-9.27" xlink:href="#a" y1="122.96" y2="58.62"/><linearGradient id="d" x1="136.49" x2="8.94" xlink:href="#a" y1="86.85" y2="22.51"/><linearGradient id="e" x1="137.31" x2="9.76" xlink:href="#a" y1="85.23" y2="20.88"/><path d="m120.67 135.57c-6 0-9.12-3-12.16-5.94-3.25-3.12-6.31-6.06-13.2-6.06-7.12 0-11.5 3.22-15.74 6.33-3.79 2.79-7.7 5.67-13.18 5.67-5.76 0-9.37-3.1-12.87-6.1s-6.88-5.9-12.55-5.9c-6.39 0-11.55 3.67-16.11 6.9-3.86 2.73-7.18 5.1-10.78 5.1-7.76 0-13.83-7-14.08-7.27l2.61-2.23-1.31 1.11 1.31-1.12c.05.06 5.31 6.07 11.47 6.07 2.5 0 5.41-2.07 8.79-4.46 4.73-3.36 10.62-7.53 18.1-7.53 7 0 11.11 3.57 14.79 6.72 3.3 2.83 6.14 5.27 10.63 5.27s7.5-2.32 11.15-5c4.46-3.28 9.52-7 17.77-7s12.15 3.72 15.58 7c2.89 2.78 5.18 5 9.78 5 8.3 0 11.15-4.9 11.27-5.11l3 1.65c-.13.33-3.83 6.9-14.27 6.9z" fill="url(#a)"/><path d="m120.67 119.55c-6 0-9.12-3-12.16-5.94-3.25-3.11-6.31-6-13.2-6-7.12 0-11.5 3.21-15.74 6.33-3.79 2.78-7.7 5.66-13.18 5.66-5.76 0-9.37-3.1-12.87-6.1s-6.88-5.89-12.55-5.89c-6.39 0-11.55 3.66-16.11 6.89-3.86 2.74-7.18 5.1-10.78 5.1-7.76 0-13.83-7-14.08-7.26l2.61-2.24c.05.06 5.31 6.06 11.47 6.06 2.5 0 5.41-2.07 8.79-4.46 4.73-3.36 10.62-7.53 18.1-7.53 7 0 11.11 3.57 14.79 6.72 3.3 2.83 6.14 5.27 10.63 5.27s7.5-2.31 11.15-5c4.46-3.28 9.52-7 17.77-7s12.15 3.73 15.58 7c2.89 2.79 5.18 5 9.78 5 8.3 0 11.15-4.9 11.27-5.11l3 1.65c-.13.23-3.83 6.85-14.27 6.85z" fill="url(#b)"/><path d="m120.67 103.53c-6 0-9.12-3-12.16-5.93-3.25-3.12-6.31-6.06-13.2-6.06-7.12 0-11.5 3.22-15.74 6.33-3.79 2.78-7.7 5.66-13.18 5.66-5.76 0-9.37-3.1-12.87-6.09s-6.88-5.9-12.55-5.9c-6.39 0-11.55 3.66-16.11 6.9-3.86 2.73-7.18 5.09-10.78 5.09-7.76 0-13.83-7-14.08-7.26l2.61-2.27-1.31 1.15 1.31-1.15c.05.06 5.31 6.07 11.47 6.07 2.5 0 5.41-2.07 8.79-4.47 4.73-3.32 10.62-7.5 18.13-7.5 7 0 11.11 3.57 14.79 6.73 3.3 2.82 6.14 5.27 10.63 5.27s7.5-2.32 11.15-5c4.46-3.28 9.52-7 17.77-7s12.15 3.73 15.58 7c2.89 2.78 5.18 5 9.78 5 8.3 0 11.15-4.9 11.27-5.11l3 1.65c-.16.28-3.86 6.89-14.3 6.89z" fill="url(#c)"/><path d="m104.64 57.63a12.77 12.77 0 0 0 -5.07 1l-24.71-36.79a12.73 12.73 0 1 0 -17.74 0l-24.71 36.84a12.73 12.73 0 1 0 7.44 14h52.28a12.72 12.72 0 1 0 12.51-15zm-46.8-44.9a8.15 8.15 0 1 1 14.4 5.21 8.15 8.15 0 0 1 -14.4-5.21zm-22.68 59.91a8.14 8.14 0 1 1 -7.82-10.43 7.9 7.9 0 0 1 2.45.38 8.15 8.15 0 0 1 3.8 2.55 8 8 0 0 1 1.56 2.92 7.93 7.93 0 0 1 .33 2.29 8.23 8.23 0 0 1 -.32 2.29zm57-4.58h-52.31a12.67 12.67 0 0 0 -3.65-6.82l24.72-36.85a12.65 12.65 0 0 0 10.14 0l24.72 36.85a12.67 12.67 0 0 0 -3.65 6.82zm12.48 10.44a8.12 8.12 0 0 1 -8.14-8.15 7.93 7.93 0 0 1 .33-2.29 8 8 0 0 1 1.56-2.92 8.15 8.15 0 0 1 3.8-2.55 7.9 7.9 0 0 1 2.45-.38 8.15 8.15 0 0 1 0 16.29z" fill="url(#d)"/><path d="m58.28 36.8h4.89v9.58l5.33-9.58h5.2v1.08l-6.28 10.47 6.28 12.5v.85h-5.39l-3.62-9.29-1.71 2.09v7.2h-4.7z" fill="url(#e)"/></svg>