<svg width="372" height="372" viewBox="0 0 372 372" fill="none" xmlns="http://www.w3.org/2000/svg">
<path d="M299.543 325.536L278.37 267.521L194.965 39.1248C194.42 37.6442 193.44 36.3627 192.154 35.4484C190.867 34.5341 189.334 34.0297 187.755 34.0013C186.177 33.9729 184.627 34.4218 183.308 35.2892C181.989 36.1566 180.964 37.402 180.366 38.8621L125.399 174.282L85.9179 140.288C84.7548 139.281 83.3202 138.639 81.7937 138.443C80.2672 138.247 78.7168 138.506 77.3367 139.187C75.9566 139.867 74.8083 140.94 74.0355 142.27C73.2628 143.6 72.9 145.129 72.9927 146.664L81.1298 285.306C81.2103 286.722 81.6755 288.091 82.4753 289.263C83.2752 290.436 84.3796 291.369 85.6698 291.962C86.9601 292.555 88.3876 292.785 89.7991 292.628C91.2105 292.472 92.5526 291.934 93.6813 291.073L169.793 233.14L287.088 334.096C288.399 335.229 290.049 335.895 291.78 335.989C293.51 336.082 295.222 335.599 296.648 334.614C298.074 333.63 299.132 332.2 299.656 330.549C300.18 328.898 300.14 327.12 299.543 325.494V325.536ZM119.186 189.563L94.7192 249.819L89.6958 164.186L119.186 189.563ZM106.883 261.325L131.696 200.323L157.684 222.699L106.883 261.325ZM137.909 185.11L187.23 63.5479L226.282 170.506L170.402 213.032L137.909 185.11ZM182.524 223.515L231.9 185.94L263.66 272.942L274.551 302.662L182.524 223.515Z" fill="#EF3250"/>
</svg>
