<?xml version="1.0" encoding="utf-8"?>
<svg viewBox="128.9 75.5 248 248.2" xmlns="http://www.w3.org/2000/svg">
  <defs>
    <style type="text/css">
	.st0{fill:#FFFFFF;}
	.st1{fill:url(#SVGID_1_);}
	.st2{fill:url(#SVGID_2_);}
	.st3{fill:url(#SVGID_3_);}
	.st4{fill:url(#SVGID_4_);}
</style>
  </defs>
  <linearGradient id="SVGID_4_" gradientUnits="userSpaceOnUse" x1="174.0763" y1="408.2579" x2="373.4322" y2="206.1042" gradientTransform="matrix(1 0 0 -1 0 512)">
    <stop offset="0" style="stop-color:#00FFA9"/>
    <stop offset="1" style="stop-color:#0D4DFF"/>
  </linearGradient>
  <g>
    <linearGradient id="SVGID_1_" gradientUnits="userSpaceOnUse" x1="188.1294" y1="349.2368" x2="236.0762" y2="300.617" gradientTransform="matrix(1 0 0 -1 0 512)">
      <stop offset="0" style="stop-color:#FFE53B"/>
      <stop offset="1" style="stop-color:#00FFFF"/>
    </linearGradient>
    <path class="st1" d="M220,215.8c11.4,0,20.7-9.2,20.7-20.7c0-11.4-9.2-20.7-20.7-20.7c-11.4,0-20.7,9.2-20.7,20.7 C199.3,206.5,208.6,215.8,220,215.8z"/>
    <linearGradient id="SVGID_2_" gradientUnits="userSpaceOnUse" x1="254.1783" y1="349.2063" x2="302.1252" y2="300.5865" gradientTransform="matrix(1 0 0 -1 0 512)">
      <stop offset="0" style="stop-color:#FFE53B"/>
      <stop offset="1" style="stop-color:#00FFFF"/>
    </linearGradient>
    <path class="st2" d="M286,215.8c11.4,0,20.7-9.2,20.7-20.7c0-11.4-9.2-20.7-20.7-20.7s-20.7,9.2-20.7,20.7 C265.4,206.5,274.6,215.8,286,215.8z"/>
    <linearGradient id="SVGID_3_" gradientUnits="userSpaceOnUse" x1="129.5131" y1="364.3116" x2="328.8688" y2="162.1578" gradientTransform="matrix(1 0 0 -1 0 512)">
      <stop offset="0" style="stop-color:#FFE53B"/>
      <stop offset="1" style="stop-color:#00FFFF"/>
    </linearGradient>
    <path class="st3" d="M359.6,277.3l-5.7-5.7l-30.1-30.1c-7.1,12-17.2,22.1-29.2,29.2c-12.3,7.2-26.6,11.4-41.8,11.4 c-15.5,0-30-4.3-42.4-11.7c-12-7.2-22-17.3-29-29.4l-30.1,30.1c8,11.3,17.8,21.3,29.1,29.3c20.4,14.7,45.4,23.3,72.4,23.3 c26.8,0,51.6-8.5,71.9-23l5.7,5.7c8.1,8.1,21.1,8.1,29.2,0C367.7,298.4,367.7,285.3,359.6,277.3z"/>
  </g>
  <path class="st4" d="M375.2,179c-3.2-19.1-10.7-36.7-21.6-51.8c-8.1-11.3-18-21.1-29.3-29.1c-20.2-14.2-44.8-22.6-71.4-22.6 c-26.8,0-51.6,8.5-71.9,23c-11.3,8-21.2,17.9-29.2,29.2c-10.7,15-18.1,32.4-21.2,51.3c-1.1,6.7-1.7,13.6-1.7,20.7s0.6,13.9,1.7,20.7 H173c-1.7-6.6-2.6-13.5-2.6-20.7c0-7.1,0.9-14.1,2.6-20.7c1.9-7.5,4.9-14.6,8.8-21.2c7.1-12,17.2-22.1,29.2-29.2 c12.3-7.2,26.6-11.4,41.8-11.4c15,0,29.1,4,41.3,11.1c12.1,7,22.2,17,29.4,29c4,6.7,7.1,14,9.1,21.7c1.7,6.6,2.6,13.5,2.6,20.7 c0,7.1-0.9,14.1-2.6,20.7h42.6c1.1-6.7,1.7-13.6,1.7-20.7S376.3,185.7,375.2,179z"/>
</svg>