<svg width="437" height="56" viewBox="0 0 437 56" fill="none" xmlns="http://www.w3.org/2000/svg">
<g clip-path="url(#clip0_3701_6060)">
<path d="M40.6055 9.21007C40.6055 5.66978 43.4754 2.7998 47.0157 2.7998H81.2037V2.7998C81.2037 9.88039 75.4637 15.6203 68.3832 15.6203H47.0157C43.4754 15.6203 40.6055 12.7504 40.6055 9.21007V9.21007Z" fill="white"/>
<path d="M40.6055 9.21007C40.6055 5.66978 43.4754 2.7998 47.0157 2.7998H81.2037V2.7998C81.2037 9.88039 75.4637 15.6203 68.3832 15.6203H47.0157C43.4754 15.6203 40.6055 12.7504 40.6055 9.21007V9.21007Z" fill="url(#paint0_linear_3701_6060)"/>
<path d="M19.3984 34.3558C19.3984 27.8199 24.6969 22.5215 31.2328 22.5215H76.9258V22.5215C76.9258 29.0574 71.6274 34.3558 65.0914 34.3558H19.3984V34.3558Z" fill="url(#paint1_linear_3701_6060)"/>
<path d="M0 54.0725C0 46.9919 5.73995 41.252 12.8205 41.252H34.188C37.7283 41.252 40.5982 44.1219 40.5982 47.6622V47.6622C40.5982 51.2025 37.7282 54.0725 34.188 54.0725H0V54.0725Z" fill="#D7613A"/>
<path d="M47.0039 47.6622C47.0039 44.1219 49.8739 41.252 53.4142 41.252H68.3714V43.3887C68.3714 49.2892 63.5881 54.0725 57.6876 54.0725H53.4142C49.8739 54.0725 47.0039 51.2025 47.0039 47.6622V47.6622Z" fill="url(#paint2_linear_3701_6060)"/>
<path fill-rule="evenodd" clip-rule="evenodd" d="M141.004 26.3077H116.696C116.388 26.3077 116.004 26.5385 115.927 26.9231L114.696 32.8462C114.619 33.1538 114.85 33.4615 115.157 33.4615H130.004C127.542 44.3846 122.081 48.4615 113.696 48.4615C104.773 48.4615 100.004 42.4615 100.004 33.3846C100.004 19.5385 108.311 7.46154 120.234 7.46154C126.927 7.46154 131.773 11.2308 132.619 17.7692C132.696 18.1538 133.004 18.3846 133.311 18.3846H141.773C142.081 18.3846 142.388 18.0769 142.388 17.7692C141.542 6.69231 132.619 0 120.773 0C103.388 0 90.2344 15.4615 90.2344 33.3846C90.2344 47.1538 99.0036 56 113.004 56C127.465 56 137.773 47.6923 141.542 26.9231C141.542 26.6154 141.311 26.3077 141.004 26.3077ZM149.051 54.9184H141.051C140.743 54.9184 140.512 54.6107 140.589 54.303L146.974 27.8415L152.743 1.68765C152.82 1.30304 153.205 1.07227 153.512 1.07227H161.512C161.82 1.07227 162.051 1.37996 161.974 1.68765L155.666 27.8415L149.82 54.303C149.743 54.6876 149.358 54.9184 149.051 54.9184ZM288.107 54.9184H279.723C279.415 54.9184 279.184 54.6107 279.261 54.303L285.646 27.9953L291.415 1.68765C291.492 1.30304 291.876 1.07227 292.184 1.07227H325.646C325.953 1.07227 326.184 1.37996 326.107 1.68765L324.799 7.8415C324.723 8.22611 324.338 8.45688 324.03 8.45688H299.492L295.261 25.0723H318.876C319.184 25.0723 319.415 25.38 319.338 25.6876L318.03 31.8415C317.953 32.2261 317.569 32.4569 317.261 32.4569H293.646L288.876 54.303C288.799 54.6876 288.415 54.9184 288.107 54.9184ZM319.25 54.9184H327.25C327.558 54.9184 327.942 54.6876 328.019 54.303L333.865 27.8415L340.173 1.68765C340.25 1.37996 340.019 1.07227 339.711 1.07227H331.711C331.404 1.07227 331.019 1.30304 330.942 1.68765L325.173 27.8415L318.788 54.303C318.711 54.6107 318.942 54.9184 319.25 54.9184ZM337.367 39.1589C337.367 24.7743 346.752 14.3896 359.983 14.3896C370.29 14.3896 377.29 20.7743 377.29 31.005C377.29 45.005 368.059 55.8512 354.829 55.8512C344.598 55.8512 337.367 49.4666 337.367 39.1589ZM346.752 39.7743C346.752 46.005 349.752 49.3127 355.136 49.3127C362.829 49.3127 367.906 42.1589 367.906 30.6204C367.906 24.3127 364.752 20.9281 359.521 20.9281C351.829 20.9281 346.752 28.3127 346.752 39.7743ZM417.86 54.922H408.245C407.937 54.922 407.63 54.6143 407.63 54.3066V22.6913L393.783 54.3836C393.63 54.6913 393.322 54.922 392.937 54.922H383.322C383.014 54.922 382.706 54.6143 382.706 54.3066L382.168 15.922C382.168 15.6143 382.476 15.3066 382.783 15.3066H390.014C390.322 15.3066 390.63 15.6143 390.63 15.922L389.322 47.6913L403.245 15.8451C403.399 15.5374 403.706 15.3066 404.091 15.3066H414.014C414.322 15.3066 414.63 15.6143 414.63 15.922L414.014 46.922L427.322 15.8451C427.476 15.5374 427.783 15.3066 428.168 15.3066H436.399C436.706 15.3066 436.86 15.6143 436.783 15.8451L418.706 54.3836C418.553 54.6913 418.245 54.922 417.86 54.922ZM263.014 31.411C258.342 30.1532 254.26 29.0541 254.26 25.9281C254.26 22.9281 257.029 20.3896 261.876 20.3896C267.029 20.3896 270.183 22.9281 270.26 26.7743C270.26 27.1589 270.568 27.3896 270.876 27.3896H278.26C278.568 27.3896 278.876 27.082 278.953 26.7743C279.414 18.4666 271.106 14.3896 262.414 14.3896C251.106 14.3896 244.953 20.4666 244.953 26.8512C244.953 34.7285 252.361 36.8009 258.654 38.5612C263.3 39.8606 267.337 40.99 267.337 44.1589C267.337 47.2358 264.722 49.6973 259.645 49.6973C253.337 49.6973 249.568 46.8512 249.722 42.005C249.722 41.6973 249.414 41.3896 249.106 41.3896H241.337C241.029 41.3896 240.645 41.6973 240.645 42.005C239.722 50.3896 247.953 55.8512 259.029 55.8512C269.568 55.8512 276.568 50.1589 276.568 42.5435C276.568 35.0605 269.263 33.0937 263.014 31.411ZM214.639 25.9281C214.639 29.0541 218.721 30.1532 223.393 31.411C229.642 33.0937 236.947 35.0605 236.947 42.5435C236.947 50.1589 229.947 55.8512 219.408 55.8512C208.331 55.8512 200.101 50.3896 201.024 42.005C201.024 41.6973 201.408 41.3896 201.716 41.3896H209.485C209.793 41.3896 210.101 41.6973 210.101 42.005C209.947 46.8512 213.716 49.6973 220.024 49.6973C225.101 49.6973 227.716 47.2358 227.716 44.1589C227.716 40.99 223.679 39.8606 219.033 38.5612C212.74 36.8009 205.331 34.7285 205.331 26.8512C205.331 20.4666 211.485 14.3896 222.793 14.3896C231.485 14.3896 239.793 18.4666 239.331 26.7743C239.255 27.082 238.947 27.3896 238.639 27.3896H231.255C230.947 27.3896 230.639 27.1589 230.639 26.7743C230.562 22.9281 227.408 20.3896 222.255 20.3896C217.408 20.3896 214.639 22.9281 214.639 25.9281ZM176.691 49.0758C169.845 49.1527 166.999 43.1527 169.306 33.3835C170.999 25.922 174.691 21.3835 180.306 21.1527H181.537C187.768 21.4604 190.691 26.922 188.383 36.922C186.383 44.9989 182.306 49.1527 176.691 49.0758ZM184.383 54.922H192.46C192.768 54.922 193.152 54.6912 193.229 54.3066L197.46 34.9989L202.076 15.922C202.152 15.6143 201.922 15.3066 201.614 15.3066H193.46C193.152 15.3066 192.768 15.5373 192.691 15.922L191.46 21.922C189.383 17.1527 184.999 14.6143 179.076 14.6143C168.383 14.6143 162.152 23.0758 159.999 32.3835C156.768 45.9989 162.691 55.6143 173.306 55.6143C177.999 55.6143 181.845 53.7681 184.922 50.6143L183.922 54.3066C183.845 54.6143 184.076 54.922 184.383 54.922Z" fill="url(#paint3_linear_3701_6060)"/>
</g>
<defs>
<linearGradient id="paint0_linear_3701_6060" x1="40.6055" y1="9.21007" x2="81.2037" y2="9.21007" gradientUnits="userSpaceOnUse">
<stop stop-color="#D7613A"/>
<stop offset="0.59" stop-color="#DC8946"/>
<stop offset="1" stop-color="#F9C078"/>
</linearGradient>
<linearGradient id="paint1_linear_3701_6060" x1="19.3984" y1="28.4387" x2="76.9258" y2="28.4387" gradientUnits="userSpaceOnUse">
<stop stop-color="#D7613A"/>
<stop offset="0.59" stop-color="#DC8946"/>
<stop offset="1" stop-color="#F9C078"/>
</linearGradient>
<linearGradient id="paint2_linear_3701_6060" x1="47.0039" y1="47.6622" x2="68.3714" y2="47.6622" gradientUnits="userSpaceOnUse">
<stop stop-color="#D7613A"/>
<stop offset="0.59" stop-color="#DC8946"/>
<stop offset="1" stop-color="#F9C078"/>
</linearGradient>
<linearGradient id="paint3_linear_3701_6060" x1="109.622" y1="56.2934" x2="486.94" y2="-63.1418" gradientUnits="userSpaceOnUse">
<stop stop-color="#E0E0E3"/>
<stop offset="1" stop-color="white"/>
</linearGradient>
<clipPath id="clip0_3701_6060">
<rect width="437" height="56" fill="white"/>
</clipPath>
</defs>
</svg>
