<?xml version="1.0" encoding="UTF-8" standalone="no"?><!DOCTYPE svg PUBLIC "-//W3C//DTD SVG 1.1//EN" "http://www.w3.org/Graphics/SVG/1.1/DTD/svg11.dtd"><svg width="100%" height="100%" viewBox="0 0 1180 1117" version="1.1" xmlns="http://www.w3.org/2000/svg" xmlns:xlink="http://www.w3.org/1999/xlink" xml:space="preserve" xmlns:serif="http://www.serif.com/" style="fill-rule:evenodd;clip-rule:evenodd;stroke-linejoin:round;stroke-miterlimit:2;"><rect id="Artboard1" x="0" y="-0" width="1179.72" height="1116.33" style="fill:none;"/><clipPath id="_clip1"><rect x="0" y="-0" width="1179.72" height="1116.33"/></clipPath><g clip-path="url(#_clip1)"><rect x="-0" y="-0" width="1179.72" height="1116.33" style="fill:#06f;"/><path d="M105.997,1001.85l40.201,-0c33.166,-0 62.312,-29.146 62.312,-63.317c-0,-34.17 -29.146,-63.316 -62.312,-63.316l-40.201,-0l0,126.633Zm40.201,-23.116l-16.08,0l-0,-80.401l16.08,-0c20.101,-0 38.191,18.09 38.191,40.2c0,22.111 -18.09,40.201 -38.191,40.201Zm117.682,-70.351c-23.115,-0 -37.185,14.07 -39.196,31.155l23.116,0c0,0 2.01,-10.05 14.07,-10.05c9.046,0 15.076,6.03 15.076,16.081c-42.211,-0 -55.277,13.065 -55.277,31.155c0,15.076 11.056,26.131 31.156,26.131c16.081,0 26.131,-10.05 26.131,-10.05l4.02,9.045l17.085,-0l0,-57.286c0,-21.106 -15.075,-36.181 -36.181,-36.181Zm-7.035,76.382c-7.035,-0 -12.06,-5.026 -12.06,-10.051c-0,-8.04 5.025,-13.065 32.161,-13.065l-0,4.02c-0,11.055 -8.04,19.096 -20.101,19.096Zm72.331,-97.488l-0,13.066c-0,7.035 -4.02,11.055 -11.056,11.055l-6.03,-0l0,19.095l14.071,0l-0,39.196c-0,20.101 13.065,33.166 31.155,33.166c6.031,0 11.056,-2.01 11.056,-2.01l-0,-20.101c-0,0 -2.01,1.006 -6.03,1.006c-8.041,-0 -13.066,-5.026 -13.066,-13.066l0,-38.191l20.101,0l-0,-21.105l-20.101,-0l0,-22.111l-20.1,0Zm95.469,21.106c-23.116,-0 -37.186,14.07 -39.196,31.155l23.115,0c0,0 2.01,-10.05 14.071,-10.05c9.045,0 15.075,6.03 15.075,16.081c-42.211,-0 -55.276,13.065 -55.276,31.155c-0,15.076 11.055,26.131 31.155,26.131c16.081,0 26.131,-10.05 26.131,-10.05l4.02,9.045l17.086,-0l-0,-57.286c-0,-21.106 -15.076,-36.181 -36.181,-36.181Zm-7.036,76.382c-7.035,-0 -12.06,-5.026 -12.06,-10.051c0,-8.04 5.025,-13.065 32.161,-13.065l-0,4.02c-0,11.055 -8.04,19.096 -20.101,19.096Zm135.522,17.085l-0,-126.633l-24.121,-0l0,126.633l24.121,-0Zm71.357,-93.467c-15.076,-0 -26.131,10.05 -26.131,10.05l-4.02,-9.045l-17.086,-0l0,92.462l23.116,-0l-0,-51.256c-0,-12.061 8.04,-20.101 19.095,-20.101c11.056,0 19.096,8.04 19.096,20.101l-0,51.256l23.115,-0l0,-54.271c0,-24.121 -15.075,-39.196 -37.185,-39.196Zm75.456,64.321l-22.11,0c2.01,18.091 14.07,30.151 38.191,30.151c21.105,0 34.17,-13.065 34.17,-28.141c0,-33.165 -47.236,-25.125 -47.236,-38.191c0,-5.025 4.02,-9.045 11.056,-9.045c7.035,0 12.06,5.025 13.065,9.045l22.11,0c-2.01,-16.08 -14.07,-28.14 -36.18,-28.14c-20.101,-0 -33.166,13.065 -33.166,28.14c-0,32.161 47.236,24.121 47.236,37.186c-0,5.025 -5.025,10.051 -13.065,10.051c-8.041,-0 -13.066,-5.026 -14.071,-11.056Zm79.38,-75.377c7.036,0 13.066,-6.03 13.066,-13.065c-0,-7.035 -6.03,-13.065 -13.066,-13.065c-7.035,-0 -13.065,6.03 -13.065,13.065c0,7.035 6.03,13.065 13.065,13.065Zm11.056,104.523l-0,-92.462l-23.116,-0l0,92.462l23.116,-0Zm60.223,1.005c16.08,0 26.131,-10.05 26.131,-10.05l4.02,9.045l17.085,-0l0,-126.633l-23.116,-0l0,42.211c0,-0 -9.045,-9.045 -24.12,-9.045c-23.116,-0 -43.216,20.1 -43.216,47.236c-0,27.136 20.1,47.236 43.216,47.236Zm26.131,-47.236c-0,15.075 -10.051,25.125 -23.116,25.125c-13.065,0 -23.116,-10.05 -23.116,-25.125c0,-15.075 10.051,-25.126 23.116,-25.126c13.065,0 23.116,10.051 23.116,25.126Zm125.661,18.09l-24.121,0c0,0 -5.025,7.035 -17.085,7.035c-12.06,0 -19.095,-7.035 -21.105,-16.08l64.321,0c0,0 1.005,-5.025 1.005,-9.045c0,-28.141 -20.1,-47.236 -44.221,-47.236c-25.126,-0 -46.231,21.105 -46.231,47.236c-0,26.131 21.105,47.236 46.231,47.236c21.106,0 36.181,-15.075 41.206,-29.146Zm-41.206,-43.216c12.06,0 20.101,8.04 22.111,18.091l-44.221,-0c2.01,-10.051 10.05,-18.091 22.11,-18.091Zm104.472,-22.11c-14.07,-0 -22.11,11.055 -22.11,11.055l-4.02,-10.05l-17.086,-0l0,92.462l23.116,-0l-0,-49.246c-0,-12.06 8.04,-20.101 19.095,-20.101c5.025,0 8.04,1.005 8.04,1.005l0,-24.12c0,-0 -3.015,-1.005 -7.035,-1.005Z" style="fill:#fff;fill-rule:nonzero;"/><clipPath id="_clip2"><rect x="104.099" y="107.985" width="971.523" height="680.066"/></clipPath><g clip-path="url(#_clip2)"><g><path d="M280.369,284.067l-176.27,0l-0,-175.639l176.27,175.639Z" style="fill:#fff;fill-rule:nonzero;"/><path d="M899.339,283.624l-308.5,307.395l-308.501,-307.395l617.001,-0Z" style="fill:#fff;fill-rule:nonzero;"/><path d="M899.344,283.624l176.27,-0l0,-175.639l-176.27,175.639Z" style="fill:#fff;fill-rule:nonzero;"/><path d="M713.717,788.055l-124.634,-124.187l-124.743,124.187l249.377,-0Z" style="fill:#fff;fill-rule:nonzero;"/><path d="M810.957,674.288c-51.643,0.136 -101.3,-19.821 -138.397,-55.621l38.315,-38.946c27.551,26.463 64.522,40.937 102.782,40.238c38.261,-0.7 74.677,-16.516 101.233,-43.968c26.558,-27.452 41.084,-64.291 40.382,-102.415c-0.702,-38.123 -16.575,-74.407 -44.125,-100.87l38.205,-39.384c28.519,27.467 48.153,62.796 56.384,101.456c8.23,38.662 4.682,78.891 -10.188,115.529c-14.871,36.639 -40.388,68.015 -73.277,90.105c-32.89,22.09 -71.652,33.886 -111.314,33.876Z" style="fill:#fff;fill-rule:nonzero;"/><path d="M868.866,524.864c13.685,-14.116 21.189,-33.069 20.858,-52.693c-0.33,-19.625 -8.466,-38.316 -22.62,-51.967l-103.274,106.416c14.168,13.636 33.187,21.111 52.883,20.782c19.694,-0.329 38.453,-8.436 52.153,-22.538Z" style="fill:#fff;fill-rule:nonzero;"/><path d="M379.343,673.297c-39.352,-0.063 -77.8,-11.746 -110.492,-33.573c-32.689,-21.827 -58.154,-52.817 -73.176,-89.058c-15.022,-36.239 -18.927,-76.104 -11.222,-114.554c7.705,-38.451 26.674,-73.764 54.512,-101.477l38.975,38.835c-20.118,20.043 -33.829,45.573 -39.402,73.37c-5.573,27.798 -2.758,56.617 8.09,82.822c10.847,26.205 29.241,48.623 52.86,64.423c23.62,15.801 51.405,24.277 79.855,24.358c19.013,0.125 37.858,-3.528 55.44,-10.742c17.579,-7.213 33.542,-17.847 46.952,-31.275l38.976,38.727c-18.459,18.473 -40.406,33.122 -64.574,43.101c-24.17,9.98 -50.082,15.091 -76.244,15.043l-0.55,-0Z" style="fill:#fff;fill-rule:nonzero;"/><path d="M322.862,524.864c-6.901,-6.859 -12.376,-15.005 -16.111,-23.975c-3.736,-8.971 -5.66,-18.587 -5.66,-28.299c0,-9.712 1.924,-19.329 5.66,-28.299c3.735,-8.97 9.21,-17.118 16.111,-23.976l104.926,104.549c-13.916,13.861 -32.787,21.647 -52.462,21.647c-19.677,0 -38.547,-7.786 -52.464,-21.647Z" style="fill:#fff;fill-rule:nonzero;"/></g></g></g></svg>