<?xml version="1.0" encoding="UTF-8"?>
<svg id="Layer_1" xmlns="http://www.w3.org/2000/svg" version="1.1" viewBox="0 0 1024 1024">
  <!-- Generator: Adobe Illustrator 29.0.0, SVG Export Plug-In . SVG Version: 2.1.0 Build 186)  -->
  <defs>
    <style>
      .st0 {
        fill: #512fc9;
      }

      .st1 {
        fill: #584b9f;
      }
    </style>
  </defs>
  <path class="st1" d="M512,212.4h0,0,0Z"/>
  <g>
    <path class="st0" d="M896.7,626.4l-79-67.2,1.5-9.1c1.7-12.3,2.2-25.2,2.2-37.9s-.8-32-3.7-47.1l79-67.2,1.8-1.5c2.1-2.1,3.5-4.8,4.1-7.7.6-2.9.2-6-1-8.6-16.1-48.6-43.9-95-78.2-133.3-4.8-5.5-11.7-7.5-18.1-4.7l-99.5,34-8.3-6.4c-22.7-16.9-47.5-30.5-73.9-40.6l-19.7-101.2-.6-2.1c-1-2.9-2.7-5.4-5-7.3-2.3-1.9-5.1-3.2-8.1-3.7h0c-51.6-10.3-104.7-10.3-156.3,0-3.4.5-6.5,2-8.9,4.4-2.5,2.3-4.1,5.4-4.8,8.7l-19.7,101.2-8.9,3.6c-26.4,10.8-51.1,25.4-73.2,43.5l-99.5-34-2.2-.7c-2.9-.7-5.9-.5-8.8.4-2.8,1-5.3,2.7-7.2,5.1-34.3,38.4-62,84.7-78.1,133.3-1.4,3-1.7,6.5-.8,9.7.9,3.2,2.9,6.1,5.6,8l79,67.2-1.5,9.1c-1.6,12.3-2.2,25.3-2.2,37.9-.2,15.8,1,31.5,3.6,47.1l-78.9,67.2-1.8,1.4c-2.1,2.1-3.5,4.8-4.1,7.7-.6,2.9-.2,6,1,8.7,16.1,48.7,43.9,94.9,78.1,133.2,4.9,5.5,11.7,7.5,18.1,4.8l99.5-34,7.3,5.8c22.9,17.2,48.1,31.1,74.9,41.2l19.7,101.2.5,2.1c1,2.8,2.7,5.4,5.1,7.3,2.3,1.9,5.1,3.2,8.1,3.7,25.8,4.7,51.6,7.5,78.2,7.5s52.3-2.8,78.1-7.5c3.3-.5,6.5-2.1,8.9-4.4,2.5-2.3,4.1-5.4,4.8-8.7l19.7-101.2,9.8-4c26-11,50.5-25.5,72.3-43.1l99.5,34,2.2.7c5.8,1.6,11.6-.6,16-5.5,34.3-38.3,62-84.5,78.1-133.2,1.4-3,1.7-6.5.8-9.8-.9-3.2-2.9-6.1-5.6-8h0ZM512,749c-131.1,0-237.5-106.1-237.5-237s106.2-237,237.4-237h0,0,0c131.2,0,237.5,106.1,237.5,237s-106.3,237-237.5,237h0Z"/>
    <path class="st0" d="M512,350c-89.5,0-162.2,72.7-162.2,162s72.8,162,162.2,162,162.2-72.7,162.2-162-72.8-162-162.2-162h0ZM512,607.2c-52.6,0-95.5-42.7-95.5-95.2s42.8-95.2,95.4-95.2,95.5,42.7,95.5,95.2-42.8,95.2-95.5,95.2h0Z"/>
  </g>
</svg>